<mxfile host="65bd71144e">
    <diagram id="vBu7v42lNUGAjECXIESN" name="Page-1">
        <mxGraphModel dx="6043" dy="5013" grid="1" gridSize="10" guides="1" tooltips="1" connect="1" arrows="1" fold="1" page="1" pageScale="1" pageWidth="850" pageHeight="1100" math="0" shadow="0">
            <root>
                <mxCell id="0"/>
                <mxCell id="1" parent="0"/>
                <mxCell id="153" value="&lt;div style=&quot;color: rgb(255, 241, 243); background-color: rgb(44, 37, 37); font-family: &amp;quot;Ubuntu Mono&amp;quot;, Consolas, &amp;quot;Courier New&amp;quot;, monospace; font-weight: normal; font-size: 14px; line-height: 19px;&quot;&gt;&lt;div&gt;&lt;span style=&quot;color: #fd6883;font-style: italic;&quot;&gt;static&lt;/span&gt;&lt;span style=&quot;color: #fff1f3;&quot;&gt; &lt;/span&gt;&lt;span style=&quot;color: #fd6883;font-style: italic;&quot;&gt;const&lt;/span&gt;&lt;span style=&quot;color: #fff1f3;&quot;&gt; &lt;/span&gt;&lt;span style=&quot;color: #85dacc;font-style: italic;&quot;&gt;esp_vhci_host_callback_t&lt;/span&gt;&lt;span style=&quot;color: #fff1f3;&quot;&gt; vhci_host_cb &lt;/span&gt;&lt;span style=&quot;color: #fd6883;&quot;&gt;=&lt;/span&gt;&lt;span style=&quot;color: #fff1f3;&quot;&gt; &lt;/span&gt;&lt;span style=&quot;color: #948a8b;&quot;&gt;{&lt;/span&gt;&lt;/div&gt;&lt;div&gt;&lt;span style=&quot;color: #fff1f3;&quot;&gt;&amp;nbsp; &amp;nbsp; .notify_host_send_available &lt;/span&gt;&lt;span style=&quot;color: #fd6883;&quot;&gt;=&lt;/span&gt;&lt;span style=&quot;color: #fff1f3;&quot;&gt; host_send_pkt_available_cb&lt;/span&gt;&lt;span style=&quot;color: #948a8b;&quot;&gt;,&lt;/span&gt;&lt;/div&gt;&lt;div&gt;&lt;span style=&quot;color: #fff1f3;&quot;&gt;&amp;nbsp; &amp;nbsp; .notify_host_recv &lt;/span&gt;&lt;span style=&quot;color: #fd6883;&quot;&gt;=&lt;/span&gt;&lt;span style=&quot;color: #fff1f3;&quot;&gt; host_recv_pkt_cb&lt;/span&gt;&lt;span style=&quot;color: #948a8b;&quot;&gt;,&lt;/span&gt;&lt;/div&gt;&lt;div&gt;&lt;span style=&quot;color: #948a8b;&quot;&gt;};&lt;/span&gt;&lt;/div&gt;&lt;/div&gt;" style="text;whiteSpace=wrap;html=1;" parent="1" vertex="1">
                    <mxGeometry x="680" y="-2710" width="460" height="80" as="geometry"/>
                </mxCell>
                <mxCell id="126" style="edgeStyle=orthogonalEdgeStyle;html=1;exitX=0.25;exitY=1;exitDx=0;exitDy=0;entryX=0;entryY=0.25;entryDx=0;entryDy=0;strokeWidth=2;" parent="1" source="116" target="123" edge="1">
                    <mxGeometry relative="1" as="geometry">
                        <Array as="points">
                            <mxPoint x="-583" y="-1420"/>
                            <mxPoint x="-190.00000000000003" y="-1420"/>
                            <mxPoint x="-190.00000000000003" y="-1510"/>
                        </Array>
                    </mxGeometry>
                </mxCell>
                <mxCell id="116" value="&lt;div style=&quot;color: rgb(255, 241, 243); background-color: rgb(44, 37, 37); font-family: &amp;quot;Ubuntu Mono&amp;quot;, Consolas, &amp;quot;Courier New&amp;quot;, monospace; font-weight: normal; font-size: 14px; line-height: 19px;&quot;&gt;&lt;div&gt;&lt;span style=&quot;color: #85dacc;font-style: italic;&quot;&gt;void&lt;/span&gt;&lt;span style=&quot;color: #fff1f3;&quot;&gt; &lt;/span&gt;&lt;span style=&quot;color: #adda78;&quot;&gt;hci_register_sco_packet_handler&lt;/span&gt;&lt;span style=&quot;color: #948a8b;&quot;&gt;(&lt;/span&gt;&lt;span style=&quot;color: #85dacc;font-style: italic;&quot;&gt;btstack_packet_handler_t&lt;/span&gt;&lt;span style=&quot;color: #fff1f3;&quot;&gt; &lt;/span&gt;&lt;span style=&quot;color: #f38d70;font-style: italic;&quot;&gt;handler&lt;/span&gt;&lt;span style=&quot;color: #948a8b;&quot;&gt;){&lt;/span&gt;&lt;/div&gt;&lt;div&gt;&lt;span style=&quot;color: #fff1f3;&quot;&gt;&amp;nbsp; &amp;nbsp; &lt;/span&gt;&lt;span style=&quot;color: #fff1f3;&quot;&gt;hci_stack&lt;/span&gt;&lt;span style=&quot;color: #948a8b;&quot;&gt;-&amp;gt;&lt;/span&gt;&lt;span style=&quot;color: #fff1f3;&quot;&gt;sco_packet_handler&lt;/span&gt;&lt;span style=&quot;color: #fff1f3;&quot;&gt; &lt;/span&gt;&lt;span style=&quot;color: #fd6883;&quot;&gt;=&lt;/span&gt;&lt;span style=&quot;color: #fff1f3;&quot;&gt; &lt;/span&gt;&lt;span style=&quot;color: #f38d70;font-style: italic;&quot;&gt;handler&lt;/span&gt;&lt;span style=&quot;color: #948a8b;&quot;&gt;;&lt;/span&gt;&lt;span style=&quot;color: #fff1f3;&quot;&gt; &amp;nbsp; &amp;nbsp;&lt;/span&gt;&lt;/div&gt;&lt;div&gt;&lt;span style=&quot;color: #948a8b;&quot;&gt;}&lt;/span&gt;&lt;/div&gt;&lt;/div&gt;" style="text;whiteSpace=wrap;html=1;" parent="1" vertex="1">
                    <mxGeometry x="-710" y="-1490" width="510" height="60" as="geometry"/>
                </mxCell>
                <mxCell id="119" style="edgeStyle=orthogonalEdgeStyle;html=1;entryX=0;entryY=0.25;entryDx=0;entryDy=0;" parent="1" target="116" edge="1">
                    <mxGeometry relative="1" as="geometry">
                        <mxPoint x="-710" y="-1230" as="sourcePoint"/>
                        <Array as="points">
                            <mxPoint x="-750" y="-1230"/>
                            <mxPoint x="-750" y="-1475"/>
                        </Array>
                    </mxGeometry>
                </mxCell>
                <mxCell id="94" value="&lt;div style=&quot;color: rgb(247, 241, 255); background-color: rgb(34, 34, 34); font-family: &amp;quot;Ubuntu Mono&amp;quot;, Consolas, &amp;quot;Courier New&amp;quot;, monospace; font-weight: normal; font-size: 14px; line-height: 19px;&quot;&gt;&lt;div&gt;&lt;span style=&quot;color: #69676c;font-style: italic;&quot;&gt;// register for HCI events and SCO packets&lt;/span&gt;&lt;/div&gt;&lt;div&gt;&lt;span style=&quot;color: #f7f1ff;&quot;&gt;&amp;nbsp; &amp;nbsp; &lt;/span&gt;&lt;span style=&quot;color: #f7f1ff;&quot;&gt;hci_event_callback_registration&lt;/span&gt;&lt;span style=&quot;color: #8b888f;&quot;&gt;.&lt;/span&gt;&lt;span style=&quot;color: #f7f1ff;&quot;&gt;callback&lt;/span&gt;&lt;span style=&quot;color: #f7f1ff;&quot;&gt; &lt;/span&gt;&lt;span style=&quot;color: #fc618d;&quot;&gt;=&lt;/span&gt;&lt;span style=&quot;color: #f7f1ff;&quot;&gt; &lt;/span&gt;&lt;span style=&quot;color: #fc618d;&quot;&gt;&amp;amp;&lt;/span&gt;&lt;span style=&quot;color: #7bd88f;&quot;&gt;packet_handler&lt;/span&gt;&lt;span style=&quot;color: #8b888f;&quot;&gt;;&lt;/span&gt;&lt;/div&gt;&lt;div&gt;&lt;span style=&quot;color: #f7f1ff;&quot;&gt;&amp;nbsp; &amp;nbsp; &lt;/span&gt;&lt;span style=&quot;color: #7bd88f;&quot;&gt;hci_add_event_handler&lt;/span&gt;&lt;span style=&quot;color: #8b888f;&quot;&gt;(&lt;/span&gt;&lt;span style=&quot;color: #fc618d;&quot;&gt;&amp;amp;&lt;/span&gt;&lt;span style=&quot;color: #f7f1ff;&quot;&gt;hci_event_callback_registration&lt;/span&gt;&lt;span style=&quot;color: #8b888f;&quot;&gt;);&lt;/span&gt;&lt;/div&gt;&lt;div&gt;&lt;span style=&quot;color: #f7f1ff;&quot;&gt;&amp;nbsp; &amp;nbsp; &lt;/span&gt;&lt;span style=&quot;color: #7bd88f;&quot;&gt;hci_register_sco_packet_handler&lt;/span&gt;&lt;span style=&quot;color: #8b888f;&quot;&gt;(&lt;/span&gt;&lt;span style=&quot;color: #fc618d;&quot;&gt;&amp;amp;&lt;/span&gt;&lt;span style=&quot;color: #7bd88f;&quot;&gt;packet_handler&lt;/span&gt;&lt;span style=&quot;color: #8b888f;&quot;&gt;);&lt;/span&gt;&lt;/div&gt;&lt;br&gt;&lt;div&gt;&lt;span style=&quot;color: #8b888f;&quot;&gt;&amp;nbsp; &amp;nbsp; &lt;/span&gt;&lt;span style=&quot;color: #69676c;font-style: italic;&quot;&gt;// register for HFP events&lt;/span&gt;&lt;/div&gt;&lt;div&gt;&lt;span style=&quot;color: #7bd88f;&quot;&gt;hfp_ag_register_packet_handler&lt;/span&gt;&lt;span style=&quot;color: #8b888f;&quot;&gt;(&lt;/span&gt;&lt;span style=&quot;color: #fc618d;&quot;&gt;&amp;amp;&lt;/span&gt;&lt;span style=&quot;color: #7bd88f;&quot;&gt;packet_handler&lt;/span&gt;&lt;span style=&quot;color: #8b888f;&quot;&gt;);&lt;/span&gt;&lt;span style=&quot;color: #f7f1ff;&quot;&gt; &lt;/span&gt;&lt;/div&gt;&lt;/div&gt;" style="text;whiteSpace=wrap;html=1;fontSize=37;" parent="1" vertex="1">
                    <mxGeometry x="-710" y="-1365" width="445" height="140" as="geometry"/>
                </mxCell>
                <mxCell id="84" value="&lt;div style=&quot;color: rgb(247, 241, 255); background-color: rgb(34, 34, 34); font-family: &amp;quot;Ubuntu Mono&amp;quot;, Consolas, &amp;quot;Courier New&amp;quot;, monospace; font-weight: normal; font-size: 14px; line-height: 19px;&quot;&gt;&lt;div&gt;&lt;span style=&quot;color: #fc618d;&quot;&gt;switch&lt;/span&gt;&lt;span style=&quot;color: #f7f1ff;&quot;&gt; &lt;/span&gt;&lt;span style=&quot;color: #8b888f;&quot;&gt;(&lt;/span&gt;&lt;span style=&quot;color: #fd9353;font-style: italic;&quot;&gt;packet_type&lt;/span&gt;&lt;span style=&quot;color: #8b888f;&quot;&gt;)&lt;/span&gt;&lt;/div&gt;&lt;/div&gt;" style="text;whiteSpace=wrap;html=1;fontSize=37;" parent="1" vertex="1">
                    <mxGeometry x="-1993.6" y="-1550" width="150" height="25" as="geometry"/>
                </mxCell>
                <mxCell id="67" value="&lt;div style=&quot;color: rgb(247, 241, 255); background-color: rgb(34, 34, 34); font-family: &amp;quot;Ubuntu Mono&amp;quot;, Consolas, &amp;quot;Courier New&amp;quot;, monospace; font-weight: normal; font-size: 14px; line-height: 19px;&quot;&gt;&lt;div&gt;&lt;span style=&quot;color: #5ad4e6;font-style: italic;&quot;&gt;void&lt;/span&gt;&lt;span style=&quot;color: #f7f1ff;&quot;&gt; &lt;/span&gt;&lt;span style=&quot;color: #7bd88f;&quot;&gt;sco_receive&lt;/span&gt;&lt;span style=&quot;color: #8b888f;&quot;&gt;(&lt;/span&gt;&lt;span style=&quot;color: #5ad4e6;font-style: italic;&quot;&gt;uint8_t&lt;/span&gt;&lt;span style=&quot;color: #f7f1ff;&quot;&gt; &lt;/span&gt;&lt;span style=&quot;color: #fc618d;&quot;&gt;*&lt;/span&gt;&lt;span style=&quot;color: #f7f1ff;&quot;&gt; &lt;/span&gt;&lt;span style=&quot;color: #fd9353;font-style: italic;&quot;&gt;packet&lt;/span&gt;&lt;span style=&quot;color: #8b888f;&quot;&gt;,&lt;/span&gt;&lt;span style=&quot;color: #f7f1ff;&quot;&gt; &lt;/span&gt;&lt;span style=&quot;color: #5ad4e6;font-style: italic;&quot;&gt;uint16_t&lt;/span&gt;&lt;span style=&quot;color: #f7f1ff;&quot;&gt; &lt;/span&gt;&lt;span style=&quot;color: #fd9353;font-style: italic;&quot;&gt;size&lt;/span&gt;&lt;span style=&quot;color: #8b888f;&quot;&gt;)&lt;/span&gt;&lt;/div&gt;&lt;div&gt;&lt;span style=&quot;color: #8b888f;&quot;&gt;{&lt;/span&gt;&lt;/div&gt;&lt;div&gt;&lt;span style=&quot;color: #f7f1ff;&quot;&gt;&amp;nbsp; &amp;nbsp; &lt;/span&gt;&lt;span style=&quot;color: #f7f1ff;&quot;&gt;codec_current&lt;/span&gt;&lt;span style=&quot;color: #8b888f;&quot;&gt;-&amp;gt;&lt;/span&gt;&lt;span style=&quot;color: #f7f1ff;&quot;&gt;receive&lt;/span&gt;&lt;span style=&quot;color: #8b888f;&quot;&gt;(&lt;/span&gt;&lt;span style=&quot;color: #fd9353;font-style: italic;&quot;&gt;packet&lt;/span&gt;&lt;span style=&quot;color: #8b888f;&quot;&gt;,&lt;/span&gt;&lt;span style=&quot;color: #f7f1ff;&quot;&gt; &lt;/span&gt;&lt;span style=&quot;color: #fd9353;font-style: italic;&quot;&gt;size&lt;/span&gt;&lt;span style=&quot;color: #8b888f;&quot;&gt;);&lt;/span&gt;&lt;/div&gt;&lt;div&gt;&lt;span style=&quot;color: #8b888f;&quot;&gt;}&lt;/span&gt;&lt;/div&gt;&lt;/div&gt;" style="text;whiteSpace=wrap;html=1;fontSize=37;" parent="1" vertex="1">
                    <mxGeometry x="-1252.6" y="-1465" width="350" height="90" as="geometry"/>
                </mxCell>
                <mxCell id="64" value="&lt;div style=&quot;color: rgb(247, 241, 255); background-color: rgb(34, 34, 34); font-family: &amp;quot;Ubuntu Mono&amp;quot;, Consolas, &amp;quot;Courier New&amp;quot;, monospace; font-weight: normal; font-size: 14px; line-height: 19px;&quot;&gt;&lt;div&gt;&lt;span style=&quot;color: #fc618d;font-style: italic;&quot;&gt;static&lt;/span&gt;&lt;span style=&quot;color: #f7f1ff;&quot;&gt; &lt;/span&gt;&lt;span style=&quot;color: #fc618d;font-style: italic;&quot;&gt;const&lt;/span&gt;&lt;span style=&quot;color: #f7f1ff;&quot;&gt; &lt;/span&gt;&lt;span style=&quot;color: #5ad4e6;font-style: italic;&quot;&gt;codec_support_t&lt;/span&gt;&lt;span style=&quot;color: #f7f1ff;&quot;&gt; &lt;/span&gt;&lt;span style=&quot;color: #f7f1ff;&quot;&gt;codec_cvsd&lt;/span&gt;&lt;span style=&quot;color: #f7f1ff;&quot;&gt; &lt;/span&gt;&lt;span style=&quot;color: #fc618d;&quot;&gt;=&lt;/span&gt;&lt;/div&gt;&lt;div&gt;&lt;span style=&quot;color: #f7f1ff;&quot;&gt; &lt;/span&gt;&lt;span style=&quot;color: #8b888f;&quot;&gt;{&lt;/span&gt;&lt;/div&gt;&lt;div&gt;&lt;span style=&quot;color: #f7f1ff;&quot;&gt;&amp;nbsp; &amp;nbsp; &amp;nbsp; &amp;nbsp; .&lt;/span&gt;&lt;span style=&quot;color: #f7f1ff;&quot;&gt;init&lt;/span&gt;&lt;span style=&quot;color: #f7f1ff;&quot;&gt; &amp;nbsp; &amp;nbsp; &amp;nbsp; &amp;nbsp; &lt;/span&gt;&lt;span style=&quot;color: #fc618d;&quot;&gt;=&lt;/span&gt;&lt;span style=&quot;color: #f7f1ff;&quot;&gt; &lt;/span&gt;&lt;span style=&quot;color: #fc618d;&quot;&gt;&amp;amp;&lt;/span&gt;&lt;span style=&quot;color: #7bd88f;&quot;&gt;cvsd_init&lt;/span&gt;&lt;span style=&quot;color: #8b888f;&quot;&gt;,&lt;/span&gt;&lt;/div&gt;&lt;div&gt;&lt;span style=&quot;color: #f7f1ff;&quot;&gt;&amp;nbsp; &amp;nbsp; &amp;nbsp; &amp;nbsp; .&lt;/span&gt;&lt;span style=&quot;color: #f7f1ff;&quot;&gt;receive&lt;/span&gt;&lt;span style=&quot;color: #f7f1ff;&quot;&gt; &amp;nbsp; &amp;nbsp; &amp;nbsp;&lt;/span&gt;&lt;span style=&quot;color: #fc618d;&quot;&gt;=&lt;/span&gt;&lt;span style=&quot;color: #f7f1ff;&quot;&gt; &lt;/span&gt;&lt;span style=&quot;color: #fc618d;&quot;&gt;&amp;amp;&lt;/span&gt;&lt;span style=&quot;color: #7bd88f;&quot;&gt;cvsd_receive&lt;/span&gt;&lt;span style=&quot;color: #8b888f;&quot;&gt;,&lt;/span&gt;&lt;/div&gt;&lt;div&gt;&lt;span style=&quot;color: #f7f1ff;&quot;&gt;&amp;nbsp; &amp;nbsp; &amp;nbsp; &amp;nbsp; .&lt;/span&gt;&lt;span style=&quot;color: #f7f1ff;&quot;&gt;fill_payload&lt;/span&gt;&lt;span style=&quot;color: #f7f1ff;&quot;&gt; &lt;/span&gt;&lt;span style=&quot;color: #fc618d;&quot;&gt;=&lt;/span&gt;&lt;span style=&quot;color: #f7f1ff;&quot;&gt; &lt;/span&gt;&lt;span style=&quot;color: #fc618d;&quot;&gt;&amp;amp;&lt;/span&gt;&lt;span style=&quot;color: #7bd88f;&quot;&gt;cvsd_fill_payload&lt;/span&gt;&lt;span style=&quot;color: #8b888f;&quot;&gt;,&lt;/span&gt;&lt;/div&gt;&lt;div&gt;&lt;span style=&quot;color: #f7f1ff;&quot;&gt;&amp;nbsp; &amp;nbsp; &amp;nbsp; &amp;nbsp; .&lt;/span&gt;&lt;span style=&quot;color: #f7f1ff;&quot;&gt;close&lt;/span&gt;&lt;span style=&quot;color: #f7f1ff;&quot;&gt; &amp;nbsp; &amp;nbsp; &amp;nbsp; &amp;nbsp;&lt;/span&gt;&lt;span style=&quot;color: #fc618d;&quot;&gt;=&lt;/span&gt;&lt;span style=&quot;color: #f7f1ff;&quot;&gt; &lt;/span&gt;&lt;span style=&quot;color: #fc618d;&quot;&gt;&amp;amp;&lt;/span&gt;&lt;span style=&quot;color: #7bd88f;&quot;&gt;cvsd_close&lt;/span&gt;&lt;span style=&quot;color: #8b888f;&quot;&gt;,&lt;/span&gt;&lt;/div&gt;&lt;div&gt;&lt;span style=&quot;color: #f7f1ff;&quot;&gt;&amp;nbsp; &amp;nbsp; &amp;nbsp; &amp;nbsp; .&lt;/span&gt;&lt;span style=&quot;color: #f7f1ff;&quot;&gt;sample_rate&lt;/span&gt;&lt;span style=&quot;color: #f7f1ff;&quot;&gt; &lt;/span&gt;&lt;span style=&quot;color: #fc618d;&quot;&gt;=&lt;/span&gt;&lt;span style=&quot;color: #f7f1ff;&quot;&gt; &lt;/span&gt;&lt;span style=&quot;color: #5ad4e6;&quot;&gt;SAMPLE_RATE_8KHZ&lt;/span&gt;&lt;/div&gt;&lt;div&gt;&lt;span style=&quot;color: #8b888f;&quot;&gt;};&lt;/span&gt;&lt;/div&gt;&lt;/div&gt;" style="text;whiteSpace=wrap;html=1;fontSize=37;" parent="1" vertex="1">
                    <mxGeometry x="-1252.6" y="-1295" width="310" height="160" as="geometry"/>
                </mxCell>
                <mxCell id="59" value="&lt;div style=&quot;color: rgb(247, 241, 255); background-color: rgb(34, 34, 34); font-family: &amp;quot;Ubuntu Mono&amp;quot;, Consolas, &amp;quot;Courier New&amp;quot;, monospace; font-weight: normal; font-size: 14px; line-height: 19px;&quot;&gt;&lt;div&gt;&lt;span style=&quot;color: #fc618d;font-style: italic;&quot;&gt;static&lt;/span&gt;&lt;span style=&quot;color: #f7f1ff;&quot;&gt; &lt;/span&gt;&lt;span style=&quot;color: #5ad4e6;font-style: italic;&quot;&gt;void&lt;/span&gt;&lt;span style=&quot;color: #f7f1ff;&quot;&gt; &lt;/span&gt;&lt;span style=&quot;color: #7bd88f;&quot;&gt;cvsd_receive&lt;/span&gt;&lt;span style=&quot;color: #8b888f;&quot;&gt;(&lt;/span&gt;&lt;span style=&quot;color: #fc618d;font-style: italic;&quot;&gt;const&lt;/span&gt;&lt;span style=&quot;color: #f7f1ff;&quot;&gt; &lt;/span&gt;&lt;span style=&quot;color: #5ad4e6;font-style: italic;&quot;&gt;uint8_t&lt;/span&gt;&lt;span style=&quot;color: #f7f1ff;&quot;&gt; &lt;/span&gt;&lt;span style=&quot;color: #fc618d;&quot;&gt;*&lt;/span&gt;&lt;span style=&quot;color: #f7f1ff;&quot;&gt; &lt;/span&gt;&lt;span style=&quot;color: #fd9353;font-style: italic;&quot;&gt;packet&lt;/span&gt;&lt;span style=&quot;color: #8b888f;&quot;&gt;,&lt;/span&gt;&lt;span style=&quot;color: #f7f1ff;&quot;&gt; &lt;/span&gt;&lt;span style=&quot;color: #5ad4e6;font-style: italic;&quot;&gt;uint16_t&lt;/span&gt;&lt;span style=&quot;color: #f7f1ff;&quot;&gt; &lt;/span&gt;&lt;span style=&quot;color: #fd9353;font-style: italic;&quot;&gt;size&lt;/span&gt;&lt;span style=&quot;color: #8b888f;&quot;&gt;)&lt;/span&gt;&lt;/div&gt;&lt;div&gt;&lt;span style=&quot;color: #8b888f;&quot;&gt;{&lt;/span&gt;&lt;/div&gt;&lt;br&gt;&lt;div&gt;&lt;span style=&quot;color: #f7f1ff;&quot;&gt;&amp;nbsp; &amp;nbsp; &lt;/span&gt;&lt;span style=&quot;color: #5ad4e6;font-style: italic;&quot;&gt;int16_t&lt;/span&gt;&lt;span style=&quot;color: #f7f1ff;&quot;&gt; &lt;/span&gt;&lt;span style=&quot;color: #f7f1ff;&quot;&gt;audio_frame_out&lt;/span&gt;&lt;span style=&quot;color: #8b888f;&quot;&gt;[&lt;/span&gt;&lt;span style=&quot;color: #948ae3;&quot;&gt;128&lt;/span&gt;&lt;span style=&quot;color: #8b888f;&quot;&gt;];&lt;/span&gt;&lt;/div&gt;&lt;br&gt;&lt;div&gt;&lt;span style=&quot;color: #f7f1ff;&quot;&gt;&amp;nbsp; &amp;nbsp; &lt;/span&gt;&lt;span style=&quot;color: #fc618d;&quot;&gt;if&lt;/span&gt;&lt;span style=&quot;color: #f7f1ff;&quot;&gt; &lt;/span&gt;&lt;span style=&quot;color: #8b888f;&quot;&gt;(&lt;/span&gt;&lt;span style=&quot;color: #fd9353;font-style: italic;&quot;&gt;size&lt;/span&gt;&lt;span style=&quot;color: #f7f1ff;&quot;&gt; &lt;/span&gt;&lt;span style=&quot;color: #fc618d;&quot;&gt;&amp;gt;&lt;/span&gt;&lt;span style=&quot;color: #f7f1ff;&quot;&gt; &lt;/span&gt;&lt;span style=&quot;color: #fc618d;&quot;&gt;sizeof&lt;/span&gt;&lt;span style=&quot;color: #8b888f;&quot;&gt;(&lt;/span&gt;&lt;span style=&quot;color: #f7f1ff;&quot;&gt;audio_frame_out&lt;/span&gt;&lt;span style=&quot;color: #8b888f;&quot;&gt;)){&lt;/span&gt;&lt;/div&gt;&lt;div&gt;&lt;span style=&quot;color: #f7f1ff;&quot;&gt;&amp;nbsp; &amp;nbsp; &amp;nbsp; &amp;nbsp; &lt;/span&gt;&lt;span style=&quot;color: #7bd88f;&quot;&gt;printf&lt;/span&gt;&lt;span style=&quot;color: #8b888f;&quot;&gt;(&lt;/span&gt;&lt;span style=&quot;color: #8b888f;&quot;&gt;&quot;&lt;/span&gt;&lt;span style=&quot;color: #fce566;&quot;&gt;cvsd_receive: SCO packet larger than local output buffer - dropping data.&lt;/span&gt;&lt;span style=&quot;color: #948ae3;&quot;&gt;\n&lt;/span&gt;&lt;span style=&quot;color: #8b888f;&quot;&gt;&quot;&lt;/span&gt;&lt;span style=&quot;color: #8b888f;&quot;&gt;);&lt;/span&gt;&lt;/div&gt;&lt;div&gt;&lt;span style=&quot;color: #f7f1ff;&quot;&gt;&amp;nbsp; &amp;nbsp; &amp;nbsp; &amp;nbsp; &lt;/span&gt;&lt;span style=&quot;color: #fc618d;&quot;&gt;return&lt;/span&gt;&lt;span style=&quot;color: #8b888f;&quot;&gt;;&lt;/span&gt;&lt;/div&gt;&lt;div&gt;&lt;span style=&quot;color: #f7f1ff;&quot;&gt;&amp;nbsp; &amp;nbsp; &lt;/span&gt;&lt;span style=&quot;color: #8b888f;&quot;&gt;}&lt;/span&gt;&lt;/div&gt;&lt;br&gt;&lt;div&gt;&lt;span style=&quot;color: #f7f1ff;&quot;&gt;&amp;nbsp; &amp;nbsp; &lt;/span&gt;&lt;span style=&quot;color: #fc618d;font-style: italic;&quot;&gt;const&lt;/span&gt;&lt;span style=&quot;color: #f7f1ff;&quot;&gt; &lt;/span&gt;&lt;span style=&quot;color: #5ad4e6;font-style: italic;&quot;&gt;int&lt;/span&gt;&lt;span style=&quot;color: #f7f1ff;&quot;&gt; &lt;/span&gt;&lt;span style=&quot;color: #f7f1ff;&quot;&gt;audio_bytes_read&lt;/span&gt;&lt;span style=&quot;color: #f7f1ff;&quot;&gt; &lt;/span&gt;&lt;span style=&quot;color: #fc618d;&quot;&gt;=&lt;/span&gt;&lt;span style=&quot;color: #f7f1ff;&quot;&gt; &lt;/span&gt;&lt;span style=&quot;color: #fd9353;font-style: italic;&quot;&gt;size&lt;/span&gt;&lt;span style=&quot;color: #f7f1ff;&quot;&gt; &lt;/span&gt;&lt;span style=&quot;color: #fc618d;&quot;&gt;-&lt;/span&gt;&lt;span style=&quot;color: #f7f1ff;&quot;&gt; &lt;/span&gt;&lt;span style=&quot;color: #948ae3;&quot;&gt;3&lt;/span&gt;&lt;span style=&quot;color: #8b888f;&quot;&gt;;&lt;/span&gt;&lt;/div&gt;&lt;div&gt;&lt;span style=&quot;color: #f7f1ff;&quot;&gt;&amp;nbsp; &amp;nbsp; &lt;/span&gt;&lt;span style=&quot;color: #fc618d;font-style: italic;&quot;&gt;const&lt;/span&gt;&lt;span style=&quot;color: #f7f1ff;&quot;&gt; &lt;/span&gt;&lt;span style=&quot;color: #5ad4e6;font-style: italic;&quot;&gt;int&lt;/span&gt;&lt;span style=&quot;color: #f7f1ff;&quot;&gt; &lt;/span&gt;&lt;span style=&quot;color: #f7f1ff;&quot;&gt;num_samples&lt;/span&gt;&lt;span style=&quot;color: #f7f1ff;&quot;&gt; &lt;/span&gt;&lt;span style=&quot;color: #fc618d;&quot;&gt;=&lt;/span&gt;&lt;span style=&quot;color: #f7f1ff;&quot;&gt; &lt;/span&gt;&lt;span style=&quot;color: #f7f1ff;&quot;&gt;audio_bytes_read&lt;/span&gt;&lt;span style=&quot;color: #f7f1ff;&quot;&gt; &lt;/span&gt;&lt;span style=&quot;color: #fc618d;&quot;&gt;/&lt;/span&gt;&lt;span style=&quot;color: #f7f1ff;&quot;&gt; &lt;/span&gt;&lt;span style=&quot;color: #5ad4e6;&quot;&gt;BYTES_PER_FRAME&lt;/span&gt;&lt;span style=&quot;color: #8b888f;&quot;&gt;;&lt;/span&gt;&lt;/div&gt;&lt;br&gt;&lt;div&gt;&lt;span style=&quot;color: #8b888f;&quot;&gt;&amp;nbsp; &amp;nbsp; &lt;/span&gt;&lt;span style=&quot;color: #69676c;font-style: italic;&quot;&gt;// convert into host endian&lt;/span&gt;&lt;/div&gt;&lt;div&gt;&lt;span style=&quot;color: #f7f1ff;&quot;&gt;&amp;nbsp; &amp;nbsp; &lt;/span&gt;&lt;span style=&quot;color: #5ad4e6;font-style: italic;&quot;&gt;int16_t&lt;/span&gt;&lt;span style=&quot;color: #f7f1ff;&quot;&gt; &lt;/span&gt;&lt;span style=&quot;color: #f7f1ff;&quot;&gt;audio_frame_in&lt;/span&gt;&lt;span style=&quot;color: #8b888f;&quot;&gt;[&lt;/span&gt;&lt;span style=&quot;color: #948ae3;&quot;&gt;128&lt;/span&gt;&lt;span style=&quot;color: #8b888f;&quot;&gt;];&lt;/span&gt;&lt;/div&gt;&lt;div&gt;&lt;span style=&quot;color: #f7f1ff;&quot;&gt;&amp;nbsp; &amp;nbsp; &lt;/span&gt;&lt;span style=&quot;color: #5ad4e6;font-style: italic;&quot;&gt;int&lt;/span&gt;&lt;span style=&quot;color: #f7f1ff;&quot;&gt; &lt;/span&gt;&lt;span style=&quot;color: #f7f1ff;&quot;&gt;i&lt;/span&gt;&lt;span style=&quot;color: #8b888f;&quot;&gt;;&lt;/span&gt;&lt;/div&gt;&lt;div&gt;&lt;span style=&quot;color: #f7f1ff;&quot;&gt;&amp;nbsp; &amp;nbsp; &lt;/span&gt;&lt;span style=&quot;color: #fc618d;&quot;&gt;for&lt;/span&gt;&lt;span style=&quot;color: #f7f1ff;&quot;&gt; &lt;/span&gt;&lt;span style=&quot;color: #8b888f;&quot;&gt;(&lt;/span&gt;&lt;span style=&quot;color: #f7f1ff;&quot;&gt;i&lt;/span&gt;&lt;span style=&quot;color: #fc618d;&quot;&gt;=&lt;/span&gt;&lt;span style=&quot;color: #948ae3;&quot;&gt;0&lt;/span&gt;&lt;span style=&quot;color: #8b888f;&quot;&gt;;&lt;/span&gt;&lt;span style=&quot;color: #f7f1ff;&quot;&gt;i&lt;/span&gt;&lt;span style=&quot;color: #fc618d;&quot;&gt;&amp;lt;&lt;/span&gt;&lt;span style=&quot;color: #f7f1ff;&quot;&gt;num_samples&lt;/span&gt;&lt;span style=&quot;color: #8b888f;&quot;&gt;;&lt;/span&gt;&lt;span style=&quot;color: #f7f1ff;&quot;&gt;i&lt;/span&gt;&lt;span style=&quot;color: #fc618d;&quot;&gt;++&lt;/span&gt;&lt;span style=&quot;color: #8b888f;&quot;&gt;){&lt;/span&gt;&lt;/div&gt;&lt;div&gt;&lt;span style=&quot;color: #f7f1ff;&quot;&gt;&amp;nbsp; &amp;nbsp; &amp;nbsp; &amp;nbsp; &lt;/span&gt;&lt;span style=&quot;color: #f7f1ff;&quot;&gt;audio_frame_in&lt;/span&gt;&lt;span style=&quot;color: #8b888f;&quot;&gt;[&lt;/span&gt;&lt;span style=&quot;color: #f7f1ff;&quot;&gt;i&lt;/span&gt;&lt;span style=&quot;color: #8b888f;&quot;&gt;]&lt;/span&gt;&lt;span style=&quot;color: #f7f1ff;&quot;&gt; &lt;/span&gt;&lt;span style=&quot;color: #fc618d;&quot;&gt;=&lt;/span&gt;&lt;span style=&quot;color: #f7f1ff;&quot;&gt; &lt;/span&gt;&lt;span style=&quot;color: #7bd88f;&quot;&gt;little_endian_read_16&lt;/span&gt;&lt;span style=&quot;color: #8b888f;&quot;&gt;(&lt;/span&gt;&lt;span style=&quot;color: #fd9353;font-style: italic;&quot;&gt;packet&lt;/span&gt;&lt;span style=&quot;color: #8b888f;&quot;&gt;,&lt;/span&gt;&lt;span style=&quot;color: #f7f1ff;&quot;&gt; &lt;/span&gt;&lt;span style=&quot;color: #948ae3;&quot;&gt;3&lt;/span&gt;&lt;span style=&quot;color: #f7f1ff;&quot;&gt; &lt;/span&gt;&lt;span style=&quot;color: #fc618d;&quot;&gt;+&lt;/span&gt;&lt;span style=&quot;color: #f7f1ff;&quot;&gt; &lt;/span&gt;&lt;span style=&quot;color: #f7f1ff;&quot;&gt;i&lt;/span&gt;&lt;span style=&quot;color: #f7f1ff;&quot;&gt; &lt;/span&gt;&lt;span style=&quot;color: #fc618d;&quot;&gt;*&lt;/span&gt;&lt;span style=&quot;color: #f7f1ff;&quot;&gt; &lt;/span&gt;&lt;span style=&quot;color: #948ae3;&quot;&gt;2&lt;/span&gt;&lt;span style=&quot;color: #8b888f;&quot;&gt;);&lt;/span&gt;&lt;/div&gt;&lt;div&gt;&lt;span style=&quot;color: #f7f1ff;&quot;&gt;&amp;nbsp; &amp;nbsp; &lt;/span&gt;&lt;span style=&quot;color: #8b888f;&quot;&gt;}&lt;/span&gt;&lt;/div&gt;&lt;br&gt;&lt;div&gt;&lt;span style=&quot;color: #8b888f;&quot;&gt;&amp;nbsp; &amp;nbsp; &lt;/span&gt;&lt;span style=&quot;color: #69676c;font-style: italic;&quot;&gt;// treat packet as bad frame if controller does not report 'all good'&lt;/span&gt;&lt;/div&gt;&lt;div&gt;&lt;span style=&quot;color: #f7f1ff;&quot;&gt;&amp;nbsp; &amp;nbsp; &lt;/span&gt;&lt;span style=&quot;color: #5ad4e6;font-style: italic;&quot;&gt;bool&lt;/span&gt;&lt;span style=&quot;color: #f7f1ff;&quot;&gt; &lt;/span&gt;&lt;span style=&quot;color: #f7f1ff;&quot;&gt;bad_frame&lt;/span&gt;&lt;span style=&quot;color: #f7f1ff;&quot;&gt; &lt;/span&gt;&lt;span style=&quot;color: #fc618d;&quot;&gt;=&lt;/span&gt;&lt;span style=&quot;color: #f7f1ff;&quot;&gt; &lt;/span&gt;&lt;span style=&quot;color: #8b888f;&quot;&gt;(&lt;/span&gt;&lt;span style=&quot;color: #fd9353;font-style: italic;&quot;&gt;packet&lt;/span&gt;&lt;span style=&quot;color: #8b888f;&quot;&gt;[&lt;/span&gt;&lt;span style=&quot;color: #948ae3;&quot;&gt;1&lt;/span&gt;&lt;span style=&quot;color: #8b888f;&quot;&gt;]&lt;/span&gt;&lt;span style=&quot;color: #f7f1ff;&quot;&gt; &lt;/span&gt;&lt;span style=&quot;color: #fc618d;&quot;&gt;&amp;amp;&lt;/span&gt;&lt;span style=&quot;color: #f7f1ff;&quot;&gt; &lt;/span&gt;&lt;span style=&quot;color: #fc618d;&quot;&gt;0x&lt;/span&gt;&lt;span style=&quot;color: #948ae3;&quot;&gt;30&lt;/span&gt;&lt;span style=&quot;color: #8b888f;&quot;&gt;)&lt;/span&gt;&lt;span style=&quot;color: #f7f1ff;&quot;&gt; &lt;/span&gt;&lt;span style=&quot;color: #fc618d;&quot;&gt;!=&lt;/span&gt;&lt;span style=&quot;color: #f7f1ff;&quot;&gt; &lt;/span&gt;&lt;span style=&quot;color: #948ae3;&quot;&gt;0&lt;/span&gt;&lt;span style=&quot;color: #8b888f;&quot;&gt;;&lt;/span&gt;&lt;/div&gt;&lt;br&gt;&lt;div&gt;&lt;span style=&quot;color: #f7f1ff;&quot;&gt;&amp;nbsp; &amp;nbsp; &lt;/span&gt;&lt;span style=&quot;color: #7bd88f;&quot;&gt;btstack_cvsd_plc_process_data&lt;/span&gt;&lt;span style=&quot;color: #8b888f;&quot;&gt;(&lt;/span&gt;&lt;span style=&quot;color: #fc618d;&quot;&gt;&amp;amp;&lt;/span&gt;&lt;span style=&quot;color: #f7f1ff;&quot;&gt;cvsd_plc_state&lt;/span&gt;&lt;span style=&quot;color: #8b888f;&quot;&gt;,&lt;/span&gt;&lt;span style=&quot;color: #f7f1ff;&quot;&gt; &lt;/span&gt;&lt;span style=&quot;color: #f7f1ff;&quot;&gt;bad_frame&lt;/span&gt;&lt;span style=&quot;color: #8b888f;&quot;&gt;,&lt;/span&gt;&lt;span style=&quot;color: #f7f1ff;&quot;&gt; &lt;/span&gt;&lt;span style=&quot;color: #f7f1ff;&quot;&gt;audio_frame_in&lt;/span&gt;&lt;span style=&quot;color: #8b888f;&quot;&gt;,&lt;/span&gt;&lt;span style=&quot;color: #f7f1ff;&quot;&gt; &lt;/span&gt;&lt;span style=&quot;color: #f7f1ff;&quot;&gt;num_samples&lt;/span&gt;&lt;span style=&quot;color: #8b888f;&quot;&gt;,&lt;/span&gt;&lt;span style=&quot;color: #f7f1ff;&quot;&gt; &lt;/span&gt;&lt;span style=&quot;color: #f7f1ff;&quot;&gt;audio_frame_out&lt;/span&gt;&lt;span style=&quot;color: #8b888f;&quot;&gt;);&lt;/span&gt;&lt;/div&gt;&lt;div&gt;&lt;span style=&quot;color: #f7f1ff;&quot;&gt;&amp;nbsp; &amp;nbsp; &lt;/span&gt;&lt;span style=&quot;color: #7bd88f;&quot;&gt;btstack_ring_buffer_write&lt;/span&gt;&lt;span style=&quot;color: #8b888f;&quot;&gt;(&lt;/span&gt;&lt;span style=&quot;color: #fc618d;&quot;&gt;&amp;amp;&lt;/span&gt;&lt;span style=&quot;color: #f7f1ff;&quot;&gt;audio_output_ring_buffer&lt;/span&gt;&lt;span style=&quot;color: #8b888f;&quot;&gt;,&lt;/span&gt;&lt;span style=&quot;color: #f7f1ff;&quot;&gt; &lt;/span&gt;&lt;span style=&quot;color: #8b888f;&quot;&gt;(&lt;/span&gt;&lt;span style=&quot;color: #5ad4e6;font-style: italic;&quot;&gt;uint8_t&lt;/span&gt;&lt;span style=&quot;color: #f7f1ff;&quot;&gt; &lt;/span&gt;&lt;span style=&quot;color: #fc618d;&quot;&gt;*&lt;/span&gt;&lt;span style=&quot;color: #8b888f;&quot;&gt;)&lt;/span&gt;&lt;span style=&quot;color: #f7f1ff;&quot;&gt;audio_frame_out&lt;/span&gt;&lt;span style=&quot;color: #8b888f;&quot;&gt;,&lt;/span&gt;&lt;span style=&quot;color: #f7f1ff;&quot;&gt; &lt;/span&gt;&lt;span style=&quot;color: #f7f1ff;&quot;&gt;audio_bytes_read&lt;/span&gt;&lt;span style=&quot;color: #8b888f;&quot;&gt;);&lt;/span&gt;&lt;/div&gt;&lt;div&gt;&lt;span style=&quot;color: #8b888f;&quot;&gt;}&lt;/span&gt;&lt;/div&gt;&lt;/div&gt;" style="text;whiteSpace=wrap;html=1;fontSize=37;" parent="1" vertex="1">
                    <mxGeometry x="-1242.6" y="-1085" width="413.6" height="660" as="geometry"/>
                </mxCell>
                <mxCell id="63" style="edgeStyle=orthogonalEdgeStyle;html=1;exitX=0.8;exitY=0.031;exitDx=0;exitDy=0;strokeWidth=1;fontSize=37;entryX=0.425;entryY=0.877;entryDx=0;entryDy=0;entryPerimeter=0;exitPerimeter=0;" parent="1" source="59" target="59" edge="1">
                    <mxGeometry relative="1" as="geometry">
                        <mxPoint x="-742.5999999999999" y="-505" as="targetPoint"/>
                        <Array as="points">
                            <mxPoint x="-922.5999999999999" y="-1045"/>
                            <mxPoint x="-792.5999999999999" y="-1045"/>
                            <mxPoint x="-792.5999999999999" y="-490"/>
                            <mxPoint x="-1072.6" y="-490"/>
                        </Array>
                    </mxGeometry>
                </mxCell>
                <mxCell id="9" value="&lt;div style=&quot;color: rgb(247, 241, 255); background-color: rgb(34, 34, 34); font-family: &amp;quot;Ubuntu Mono&amp;quot;, Consolas, &amp;quot;Courier New&amp;quot;, monospace; font-weight: normal; font-size: 14px; line-height: 19px;&quot;&gt;&lt;div&gt;&lt;span style=&quot;color: #fc618d;font-style: italic;&quot;&gt;static&lt;/span&gt;&lt;span style=&quot;color: #f7f1ff;&quot;&gt; &lt;/span&gt;&lt;span style=&quot;color: #5ad4e6;font-style: italic;&quot;&gt;int&lt;/span&gt;&lt;span style=&quot;color: #f7f1ff;&quot;&gt; &lt;/span&gt;&lt;span style=&quot;color: #7bd88f;&quot;&gt;btstack_audio_esp32_sink_init&lt;/span&gt;&lt;span style=&quot;color: #8b888f;&quot;&gt;(&lt;/span&gt;&lt;span style=&quot;color: rgb(90, 212, 230); font-style: italic;&quot;&gt;uint8_t&lt;/span&gt; &lt;span style=&quot;color: rgb(253, 147, 83); font-style: italic;&quot;&gt;channels&lt;/span&gt;&lt;span style=&quot;color: rgb(139, 136, 143);&quot;&gt;,&amp;nbsp;&lt;/span&gt;&lt;span style=&quot;color: rgb(90, 212, 230); font-style: italic;&quot;&gt;uint32_t&lt;/span&gt; &lt;span style=&quot;color: rgb(253, 147, 83); font-style: italic;&quot;&gt;samplerate&lt;/span&gt;&lt;span style=&quot;color: rgb(139, 136, 143);&quot;&gt;,&lt;/span&gt;&lt;/div&gt;&lt;div&gt;&lt;span style=&quot;color: #f7f1ff;&quot;&gt;&amp;nbsp; &amp;nbsp; &lt;/span&gt;&lt;span style=&quot;color: #5ad4e6;font-style: italic;&quot;&gt;void&lt;/span&gt;&lt;span style=&quot;color: #f7f1ff;&quot;&gt; &lt;/span&gt;&lt;span style=&quot;color: #8b888f;&quot;&gt;(&lt;/span&gt;&lt;span style=&quot;color: #fc618d;&quot;&gt;*&lt;/span&gt;&lt;span style=&quot;color: #fd9353;font-style: italic;&quot;&gt;playback&lt;/span&gt;&lt;span style=&quot;color: #8b888f;&quot;&gt;)(&lt;/span&gt;&lt;span style=&quot;color: #5ad4e6;font-style: italic;&quot;&gt;int16_t&lt;/span&gt;&lt;span style=&quot;color: #f7f1ff;&quot;&gt; &lt;/span&gt;&lt;span style=&quot;color: #fc618d;&quot;&gt;*&lt;/span&gt;&lt;span style=&quot;color: #f7f1ff;&quot;&gt; buffer&lt;/span&gt;&lt;span style=&quot;color: #8b888f;&quot;&gt;,&lt;/span&gt;&lt;span style=&quot;color: #f7f1ff;&quot;&gt; &lt;/span&gt;&lt;span style=&quot;color: #5ad4e6;font-style: italic;&quot;&gt;uint16_t&lt;/span&gt;&lt;span style=&quot;color: #f7f1ff;&quot;&gt; num_samples&lt;/span&gt;&lt;span style=&quot;color: #8b888f;&quot;&gt;)){&lt;/span&gt;&lt;/div&gt;&lt;br&gt;&lt;div&gt;&lt;span style=&quot;color: #f7f1ff;&quot;&gt;&amp;nbsp; &amp;nbsp; &lt;/span&gt;&lt;span style=&quot;color: #5ad4e6;&quot;&gt;btstack_assert&lt;/span&gt;&lt;span style=&quot;color: #8b888f;&quot;&gt;(&lt;/span&gt;&lt;span style=&quot;color: #fd9353;font-style: italic;&quot;&gt;playback&lt;/span&gt;&lt;span style=&quot;color: #f7f1ff;&quot;&gt; &lt;/span&gt;&lt;span style=&quot;color: #fc618d;&quot;&gt;!=&lt;/span&gt;&lt;span style=&quot;color: #f7f1ff;&quot;&gt; &lt;/span&gt;&lt;span style=&quot;color: #5ad4e6;&quot;&gt;NULL&lt;/span&gt;&lt;span style=&quot;color: #8b888f;&quot;&gt;);&lt;/span&gt;&lt;/div&gt;&lt;div&gt;&lt;span style=&quot;color: #f7f1ff;&quot;&gt;&amp;nbsp; &amp;nbsp; &lt;/span&gt;&lt;span style=&quot;color: #5ad4e6;&quot;&gt;btstack_assert&lt;/span&gt;&lt;span style=&quot;color: #8b888f;&quot;&gt;((&lt;/span&gt;&lt;span style=&quot;color: #948ae3;&quot;&gt;1&lt;/span&gt;&lt;span style=&quot;color: #f7f1ff;&quot;&gt; &lt;/span&gt;&lt;span style=&quot;color: #fc618d;&quot;&gt;&amp;lt;=&lt;/span&gt;&lt;span style=&quot;color: #f7f1ff;&quot;&gt; &lt;/span&gt;&lt;span style=&quot;color: #fd9353;font-style: italic;&quot;&gt;channels&lt;/span&gt;&lt;span style=&quot;color: #8b888f;&quot;&gt;)&lt;/span&gt;&lt;span style=&quot;color: #f7f1ff;&quot;&gt; &lt;/span&gt;&lt;span style=&quot;color: #fc618d;&quot;&gt;&amp;amp;&amp;amp;&lt;/span&gt;&lt;span style=&quot;color: #f7f1ff;&quot;&gt; &lt;/span&gt;&lt;span style=&quot;color: #8b888f;&quot;&gt;(&lt;/span&gt;&lt;span style=&quot;color: #fd9353;font-style: italic;&quot;&gt;channels&lt;/span&gt;&lt;span style=&quot;color: #f7f1ff;&quot;&gt; &lt;/span&gt;&lt;span style=&quot;color: #fc618d;&quot;&gt;&amp;lt;=&lt;/span&gt;&lt;span style=&quot;color: #f7f1ff;&quot;&gt; &lt;/span&gt;&lt;span style=&quot;color: #948ae3;&quot;&gt;2&lt;/span&gt;&lt;span style=&quot;color: #8b888f;&quot;&gt;));&lt;/span&gt;&lt;/div&gt;&lt;br&gt;&lt;div&gt;&lt;span style=&quot;color: #8b888f;&quot;&gt;&amp;nbsp; &amp;nbsp; &lt;/span&gt;&lt;span style=&quot;color: #69676c;font-style: italic;&quot;&gt;// store config&lt;/span&gt;&lt;/div&gt;&lt;div&gt;&lt;span style=&quot;color: #f7f1ff;&quot;&gt;&amp;nbsp; &amp;nbsp; &lt;/span&gt;&lt;span style=&quot;color: #f7f1ff;&quot;&gt;btstack_audio_esp32_sink_playback_callback&lt;/span&gt;&lt;span style=&quot;color: #f7f1ff;&quot;&gt; &amp;nbsp;&lt;/span&gt;&lt;span style=&quot;color: #fc618d;&quot;&gt;=&lt;/span&gt;&lt;span style=&quot;color: #f7f1ff;&quot;&gt; &lt;/span&gt;&lt;span style=&quot;color: #fd9353;font-style: italic;&quot;&gt;playback&lt;/span&gt;&lt;span style=&quot;color: #8b888f;&quot;&gt;;&lt;/span&gt;&lt;/div&gt;&lt;/div&gt;" style="text;whiteSpace=wrap;html=1;fontSize=15;" parent="1" vertex="1">
                    <mxGeometry x="260" y="210" width="560" height="160" as="geometry"/>
                </mxCell>
                <mxCell id="47" value="&lt;div style=&quot;color: rgb(247, 241, 255); background-color: rgb(34, 34, 34); font-family: &amp;quot;Ubuntu Mono&amp;quot;, Consolas, &amp;quot;Courier New&amp;quot;, monospace; font-weight: normal; font-size: 14px; line-height: 19px;&quot;&gt;&lt;div&gt;&lt;span style=&quot;color: #fc618d;font-style: italic;&quot;&gt;static&lt;/span&gt;&lt;span style=&quot;color: #f7f1ff;&quot;&gt; &lt;/span&gt;&lt;span style=&quot;color: #5ad4e6;font-style: italic;&quot;&gt;void&lt;/span&gt;&lt;span style=&quot;color: #f7f1ff;&quot;&gt; &lt;/span&gt;&lt;span style=&quot;color: #7bd88f;&quot;&gt;btstack_audio_esp32_sink_fill_buffer&lt;/span&gt;&lt;span style=&quot;color: #8b888f;&quot;&gt;(&lt;/span&gt;&lt;span style=&quot;color: #5ad4e6;font-style: italic;&quot;&gt;void&lt;/span&gt;&lt;span style=&quot;color: #8b888f;&quot;&gt;)&lt;/span&gt;&lt;/div&gt;&lt;div&gt;&lt;span style=&quot;color: #8b888f;&quot;&gt;{&lt;/span&gt;&lt;/div&gt;&lt;div&gt;&lt;div style=&quot;line-height: 19px;&quot;&gt;&amp;nbsp;&lt;span style=&quot;color: #8b888f;&quot;&gt;(&lt;/span&gt;&lt;span style=&quot;color: #fc618d;&quot;&gt;*&lt;/span&gt;btstack_audio_esp32_sink_playback_callback&lt;span style=&quot;color: #8b888f;&quot;&gt;)((&lt;/span&gt;&lt;span style=&quot;color: #5ad4e6;font-style: italic;&quot;&gt;int16_t&lt;/span&gt; &lt;span style=&quot;color: #fc618d;&quot;&gt;*&lt;/span&gt;&lt;span style=&quot;color: #8b888f;&quot;&gt;)&lt;/span&gt; sink_buffer&lt;span style=&quot;color: #8b888f;&quot;&gt;,&lt;/span&gt; btstack_audio_esp32_samples_per_dma_buffer&lt;span style=&quot;color: #8b888f;&quot;&gt;);&lt;/span&gt;&lt;/div&gt;&lt;/div&gt;&lt;div&gt;&lt;span style=&quot;color: #8b888f;&quot;&gt;&lt;br&gt;&lt;/span&gt;&lt;/div&gt;&lt;div&gt;&lt;span style=&quot;color: rgb(123, 216, 143);&quot;&gt;i2s_write&lt;/span&gt;&lt;span style=&quot;color: rgb(139, 136, 143);&quot;&gt;(&lt;/span&gt;&lt;span style=&quot;color: rgb(90, 212, 230);&quot;&gt;BTSTACK_AUDIO_I2S_NUM&lt;/span&gt;&lt;span style=&quot;color: rgb(139, 136, 143);&quot;&gt;,&lt;/span&gt;&amp;nbsp;sink_buffer&lt;span style=&quot;color: rgb(139, 136, 143);&quot;&gt;,&lt;/span&gt;&amp;nbsp;data_len&lt;span style=&quot;color: rgb(139, 136, 143);&quot;&gt;,&lt;/span&gt;&amp;nbsp;&lt;span style=&quot;color: rgb(252, 97, 141);&quot;&gt;&amp;amp;&lt;/span&gt;bytes_written&lt;span style=&quot;color: rgb(139, 136, 143);&quot;&gt;,&lt;/span&gt;&amp;nbsp;&lt;span style=&quot;color: rgb(148, 138, 227);&quot;&gt;0&lt;/span&gt;&lt;span style=&quot;color: rgb(139, 136, 143);&quot;&gt;);&lt;/span&gt;&lt;br&gt;&lt;/div&gt;&lt;div&gt;&lt;span style=&quot;color: #8b888f;&quot;&gt;}&lt;/span&gt;&lt;/div&gt;&lt;/div&gt;" style="text;whiteSpace=wrap;html=1;fontSize=35;" parent="1" vertex="1">
                    <mxGeometry x="190" y="510" width="820" height="120" as="geometry"/>
                </mxCell>
                <mxCell id="2" value="&lt;div style=&quot;color: rgb(247, 241, 255); background-color: rgb(34, 34, 34); font-family: &amp;quot;Ubuntu Mono&amp;quot;, Consolas, &amp;quot;Courier New&amp;quot;, monospace; font-weight: normal; font-size: 14px; line-height: 19px;&quot;&gt;&lt;br&gt;&lt;/div&gt;" style="text;whiteSpace=wrap;html=1;" parent="1" vertex="1">
                    <mxGeometry x="260" y="620" width="560" height="30" as="geometry"/>
                </mxCell>
                <mxCell id="32" value="&lt;div style=&quot;color: rgb(247, 241, 255); background-color: rgb(34, 34, 34); font-family: &amp;quot;Ubuntu Mono&amp;quot;, Consolas, &amp;quot;Courier New&amp;quot;, monospace; font-weight: normal; font-size: 14px; line-height: 19px;&quot;&gt;&lt;div&gt;&lt;span style=&quot;color: #fc618d;font-style: italic;&quot;&gt;static&lt;/span&gt;&lt;span style=&quot;color: #f7f1ff;&quot;&gt; &lt;/span&gt;&lt;span style=&quot;color: #5ad4e6;font-style: italic;&quot;&gt;void&lt;/span&gt;&lt;span style=&quot;color: #f7f1ff;&quot;&gt; &lt;/span&gt;&lt;span style=&quot;color: #7bd88f;&quot;&gt;audio_playback_callback&lt;/span&gt;&lt;span style=&quot;color: #8b888f;&quot;&gt;(&lt;/span&gt;&lt;span style=&quot;color: #5ad4e6;font-style: italic;&quot;&gt;int16_t&lt;/span&gt;&lt;span style=&quot;color: #f7f1ff;&quot;&gt; &lt;/span&gt;&lt;span style=&quot;color: #fc618d;&quot;&gt;*&lt;/span&gt;&lt;span style=&quot;color: #f7f1ff;&quot;&gt; &lt;/span&gt;&lt;span style=&quot;color: #fd9353;font-style: italic;&quot;&gt;buffer&lt;/span&gt;&lt;span style=&quot;color: #8b888f;&quot;&gt;,&lt;/span&gt;&lt;span style=&quot;color: #f7f1ff;&quot;&gt; &lt;/span&gt;&lt;span style=&quot;color: #5ad4e6;font-style: italic;&quot;&gt;uint16_t&lt;/span&gt;&lt;span style=&quot;color: #f7f1ff;&quot;&gt; &lt;/span&gt;&lt;span style=&quot;color: #fd9353;font-style: italic;&quot;&gt;num_samples&lt;/span&gt;&lt;span style=&quot;color: #8b888f;&quot;&gt;){&lt;/span&gt;&lt;/div&gt;&lt;br&gt;&lt;div&gt;&lt;span style=&quot;color: #8b888f;&quot;&gt;&amp;nbsp; &amp;nbsp; &lt;/span&gt;&lt;span style=&quot;color: #69676c;font-style: italic;&quot;&gt;// fill with silence while paused&lt;/span&gt;&lt;/div&gt;&lt;div&gt;&lt;span style=&quot;color: #f7f1ff;&quot;&gt;&amp;nbsp; &amp;nbsp; &lt;/span&gt;&lt;span style=&quot;color: #fc618d;&quot;&gt;if&lt;/span&gt;&lt;span style=&quot;color: #f7f1ff;&quot;&gt; &lt;/span&gt;&lt;span style=&quot;color: #8b888f;&quot;&gt;(&lt;/span&gt;&lt;span style=&quot;color: #f7f1ff;&quot;&gt;audio_output_paused&lt;/span&gt;&lt;span style=&quot;color: #8b888f;&quot;&gt;){&lt;/span&gt;&lt;/div&gt;&lt;div&gt;&lt;span style=&quot;color: #f7f1ff;&quot;&gt;&amp;nbsp; &amp;nbsp; &amp;nbsp; &amp;nbsp; &lt;/span&gt;&lt;span style=&quot;color: #fc618d;&quot;&gt;if&lt;/span&gt;&lt;span style=&quot;color: #f7f1ff;&quot;&gt; &lt;/span&gt;&lt;span style=&quot;color: #8b888f;&quot;&gt;(&lt;/span&gt;&lt;span style=&quot;color: #7bd88f;&quot;&gt;btstack_ring_buffer_bytes_available&lt;/span&gt;&lt;span style=&quot;color: #8b888f;&quot;&gt;(&lt;/span&gt;&lt;span style=&quot;color: #fc618d;&quot;&gt;&amp;amp;&lt;/span&gt;&lt;span style=&quot;color: #f7f1ff;&quot;&gt;audio_output_ring_buffer&lt;/span&gt;&lt;span style=&quot;color: #8b888f;&quot;&gt;)&lt;/span&gt;&lt;span style=&quot;color: #f7f1ff;&quot;&gt; &lt;/span&gt;&lt;span style=&quot;color: #fc618d;&quot;&gt;&amp;lt;&lt;/span&gt;&lt;span style=&quot;color: #f7f1ff;&quot;&gt; &lt;/span&gt;&lt;span style=&quot;color: #f7f1ff;&quot;&gt;audio_prebuffer_bytes&lt;/span&gt;&lt;span style=&quot;color: #8b888f;&quot;&gt;){&lt;/span&gt;&lt;/div&gt;&lt;div&gt;&lt;span style=&quot;color: #f7f1ff;&quot;&gt;&amp;nbsp; &amp;nbsp; &amp;nbsp; &amp;nbsp; &amp;nbsp; &amp;nbsp; &lt;/span&gt;&lt;span style=&quot;color: #7bd88f;&quot;&gt;memset&lt;/span&gt;&lt;span style=&quot;color: #8b888f;&quot;&gt;(&lt;/span&gt;&lt;span style=&quot;color: #fd9353;font-style: italic;&quot;&gt;buffer&lt;/span&gt;&lt;span style=&quot;color: #8b888f;&quot;&gt;,&lt;/span&gt;&lt;span style=&quot;color: #f7f1ff;&quot;&gt; &lt;/span&gt;&lt;span style=&quot;color: #948ae3;&quot;&gt;0&lt;/span&gt;&lt;span style=&quot;color: #8b888f;&quot;&gt;,&lt;/span&gt;&lt;span style=&quot;color: #f7f1ff;&quot;&gt; &lt;/span&gt;&lt;span style=&quot;color: #fd9353;font-style: italic;&quot;&gt;num_samples&lt;/span&gt;&lt;span style=&quot;color: #f7f1ff;&quot;&gt; &lt;/span&gt;&lt;span style=&quot;color: #fc618d;&quot;&gt;*&lt;/span&gt;&lt;span style=&quot;color: #f7f1ff;&quot;&gt; &lt;/span&gt;&lt;span style=&quot;color: #5ad4e6;&quot;&gt;BYTES_PER_FRAME&lt;/span&gt;&lt;span style=&quot;color: #8b888f;&quot;&gt;);&lt;/span&gt;&lt;/div&gt;&lt;div&gt;&lt;span style=&quot;color: #f7f1ff;&quot;&gt;&amp;nbsp; &amp;nbsp; &amp;nbsp; &amp;nbsp; &amp;nbsp; &amp;nbsp;&lt;/span&gt;&lt;span style=&quot;color: #fc618d;&quot;&gt;return&lt;/span&gt;&lt;span style=&quot;color: #8b888f;&quot;&gt;;&lt;/span&gt;&lt;/div&gt;&lt;div&gt;&lt;span style=&quot;color: #f7f1ff;&quot;&gt;&amp;nbsp; &amp;nbsp; &amp;nbsp; &amp;nbsp; &lt;/span&gt;&lt;span style=&quot;color: #8b888f;&quot;&gt;}&lt;/span&gt;&lt;span style=&quot;color: #f7f1ff;&quot;&gt; &lt;/span&gt;&lt;span style=&quot;color: #fc618d;&quot;&gt;else&lt;/span&gt;&lt;span style=&quot;color: #f7f1ff;&quot;&gt; &lt;/span&gt;&lt;span style=&quot;color: #8b888f;&quot;&gt;{&lt;/span&gt;&lt;/div&gt;&lt;div&gt;&lt;span style=&quot;color: #8b888f;&quot;&gt;&amp;nbsp; &amp;nbsp; &amp;nbsp; &amp;nbsp; &amp;nbsp; &amp;nbsp; &lt;/span&gt;&lt;span style=&quot;color: #69676c;font-style: italic;&quot;&gt;// resume playback&lt;/span&gt;&lt;/div&gt;&lt;div&gt;&lt;span style=&quot;color: #f7f1ff;&quot;&gt;&amp;nbsp; &amp;nbsp; &amp;nbsp; &amp;nbsp; &amp;nbsp; &amp;nbsp; &lt;/span&gt;&lt;span style=&quot;color: #f7f1ff;&quot;&gt;audio_output_paused&lt;/span&gt;&lt;span style=&quot;color: #f7f1ff;&quot;&gt; &lt;/span&gt;&lt;span style=&quot;color: #fc618d;&quot;&gt;=&lt;/span&gt;&lt;span style=&quot;color: #f7f1ff;&quot;&gt; &lt;/span&gt;&lt;span style=&quot;color: #948ae3;&quot;&gt;0&lt;/span&gt;&lt;span style=&quot;color: #8b888f;&quot;&gt;;&lt;/span&gt;&lt;/div&gt;&lt;div&gt;&lt;span style=&quot;color: #f7f1ff;&quot;&gt;&amp;nbsp; &amp;nbsp; &amp;nbsp; &amp;nbsp; &lt;/span&gt;&lt;span style=&quot;color: #8b888f;&quot;&gt;}&lt;/span&gt;&lt;/div&gt;&lt;div&gt;&lt;span style=&quot;color: #f7f1ff;&quot;&gt;&amp;nbsp; &amp;nbsp; &lt;/span&gt;&lt;span style=&quot;color: #8b888f;&quot;&gt;}&lt;/span&gt;&lt;/div&gt;&lt;br&gt;&lt;div&gt;&lt;span style=&quot;color: #8b888f;&quot;&gt;&amp;nbsp; &amp;nbsp; &lt;/span&gt;&lt;span style=&quot;color: #69676c;font-style: italic;&quot;&gt;// get data from ringbuffer&lt;/span&gt;&lt;/div&gt;&lt;div&gt;&lt;span style=&quot;color: #f7f1ff;&quot;&gt;&amp;nbsp; &amp;nbsp; &lt;/span&gt;&lt;span style=&quot;color: #5ad4e6;font-style: italic;&quot;&gt;uint32_t&lt;/span&gt;&lt;span style=&quot;color: #f7f1ff;&quot;&gt; &lt;/span&gt;&lt;span style=&quot;color: #f7f1ff;&quot;&gt;bytes_read&lt;/span&gt;&lt;span style=&quot;color: #f7f1ff;&quot;&gt; &lt;/span&gt;&lt;span style=&quot;color: #fc618d;&quot;&gt;=&lt;/span&gt;&lt;span style=&quot;color: #f7f1ff;&quot;&gt; &lt;/span&gt;&lt;span style=&quot;color: #948ae3;&quot;&gt;0&lt;/span&gt;&lt;span style=&quot;color: #8b888f;&quot;&gt;;&lt;/span&gt;&lt;/div&gt;&lt;div&gt;&lt;span style=&quot;color: #f7f1ff;&quot;&gt;&amp;nbsp; &amp;nbsp; &lt;/span&gt;&lt;span style=&quot;color: #7bd88f;&quot;&gt;btstack_ring_buffer_read&lt;/span&gt;&lt;span style=&quot;color: #8b888f;&quot;&gt;(&lt;/span&gt;&lt;span style=&quot;color: #fc618d;&quot;&gt;&amp;amp;&lt;/span&gt;&lt;span style=&quot;color: #f7f1ff;&quot;&gt;audio_output_ring_buffer&lt;/span&gt;&lt;span style=&quot;color: #8b888f;&quot;&gt;,&lt;/span&gt;&lt;span style=&quot;color: #f7f1ff;&quot;&gt; &lt;/span&gt;&lt;span style=&quot;color: #8b888f;&quot;&gt;(&lt;/span&gt;&lt;span style=&quot;color: #5ad4e6;font-style: italic;&quot;&gt;uint8_t&lt;/span&gt;&lt;span style=&quot;color: #f7f1ff;&quot;&gt; &lt;/span&gt;&lt;span style=&quot;color: #fc618d;&quot;&gt;*&lt;/span&gt;&lt;span style=&quot;color: #8b888f;&quot;&gt;)&lt;/span&gt;&lt;span style=&quot;color: #f7f1ff;&quot;&gt; &lt;/span&gt;&lt;span style=&quot;color: #fd9353;font-style: italic;&quot;&gt;buffer&lt;/span&gt;&lt;span style=&quot;color: #8b888f;&quot;&gt;,&lt;/span&gt;&lt;span style=&quot;color: #f7f1ff;&quot;&gt; &lt;/span&gt;&lt;span style=&quot;color: #fd9353;font-style: italic;&quot;&gt;num_samples&lt;/span&gt;&lt;span style=&quot;color: #f7f1ff;&quot;&gt; &lt;/span&gt;&lt;span style=&quot;color: #fc618d;&quot;&gt;*&lt;/span&gt;&lt;span style=&quot;color: #f7f1ff;&quot;&gt; &lt;/span&gt;&lt;span style=&quot;color: #5ad4e6;&quot;&gt;BYTES_PER_FRAME&lt;/span&gt;&lt;span style=&quot;color: #8b888f;&quot;&gt;,&lt;/span&gt;&lt;span style=&quot;color: #f7f1ff;&quot;&gt; &lt;/span&gt;&lt;span style=&quot;color: #fc618d;&quot;&gt;&amp;amp;&lt;/span&gt;&lt;span style=&quot;color: #f7f1ff;&quot;&gt;bytes_read&lt;/span&gt;&lt;span style=&quot;color: #8b888f;&quot;&gt;);&lt;/span&gt;&lt;/div&gt;&lt;div&gt;&lt;span style=&quot;color: #f7f1ff;&quot;&gt;&amp;nbsp; &amp;nbsp; &lt;/span&gt;&lt;span style=&quot;color: #fd9353;font-style: italic;&quot;&gt;num_samples&lt;/span&gt;&lt;span style=&quot;color: #f7f1ff;&quot;&gt; &lt;/span&gt;&lt;span style=&quot;color: #fc618d;&quot;&gt;-=&lt;/span&gt;&lt;span style=&quot;color: #f7f1ff;&quot;&gt; &lt;/span&gt;&lt;span style=&quot;color: #f7f1ff;&quot;&gt;bytes_read&lt;/span&gt;&lt;span style=&quot;color: #f7f1ff;&quot;&gt; &lt;/span&gt;&lt;span style=&quot;color: #fc618d;&quot;&gt;/&lt;/span&gt;&lt;span style=&quot;color: #f7f1ff;&quot;&gt; &lt;/span&gt;&lt;span style=&quot;color: #5ad4e6;&quot;&gt;BYTES_PER_FRAME&lt;/span&gt;&lt;span style=&quot;color: #8b888f;&quot;&gt;;&lt;/span&gt;&lt;/div&gt;&lt;div&gt;&lt;span style=&quot;color: #f7f1ff;&quot;&gt;&amp;nbsp; &amp;nbsp; &lt;/span&gt;&lt;span style=&quot;color: #fd9353;font-style: italic;&quot;&gt;buffer&lt;/span&gt;&lt;span style=&quot;color: #f7f1ff;&quot;&gt; &amp;nbsp; &amp;nbsp; &amp;nbsp;&lt;/span&gt;&lt;span style=&quot;color: #fc618d;&quot;&gt;+=&lt;/span&gt;&lt;span style=&quot;color: #f7f1ff;&quot;&gt; &lt;/span&gt;&lt;span style=&quot;color: #f7f1ff;&quot;&gt;bytes_read&lt;/span&gt;&lt;span style=&quot;color: #f7f1ff;&quot;&gt; &lt;/span&gt;&lt;span style=&quot;color: #fc618d;&quot;&gt;/&lt;/span&gt;&lt;span style=&quot;color: #f7f1ff;&quot;&gt; &lt;/span&gt;&lt;span style=&quot;color: #5ad4e6;&quot;&gt;BYTES_PER_FRAME&lt;/span&gt;&lt;span style=&quot;color: #8b888f;&quot;&gt;;&lt;/span&gt;&lt;/div&gt;&lt;br&gt;&lt;div&gt;&lt;span style=&quot;color: #8b888f;&quot;&gt;&amp;nbsp; &amp;nbsp; &lt;/span&gt;&lt;span style=&quot;color: #69676c;font-style: italic;&quot;&gt;// fill with 0 if not enough&lt;/span&gt;&lt;/div&gt;&lt;div&gt;&lt;span style=&quot;color: #f7f1ff;&quot;&gt;&amp;nbsp; &amp;nbsp; &lt;/span&gt;&lt;span style=&quot;color: #fc618d;&quot;&gt;if&lt;/span&gt;&lt;span style=&quot;color: #f7f1ff;&quot;&gt; &lt;/span&gt;&lt;span style=&quot;color: #8b888f;&quot;&gt;(&lt;/span&gt;&lt;span style=&quot;color: #fd9353;font-style: italic;&quot;&gt;num_samples&lt;/span&gt;&lt;span style=&quot;color: #8b888f;&quot;&gt;)&lt;/span&gt;&lt;/div&gt;&lt;div&gt;&lt;span style=&quot;color: #f7f1ff;&quot;&gt;&amp;nbsp; &amp;nbsp; &lt;/span&gt;&lt;span style=&quot;color: #8b888f;&quot;&gt;{&lt;/span&gt;&lt;/div&gt;&lt;div&gt;&lt;span style=&quot;color: #f7f1ff;&quot;&gt;&amp;nbsp; &amp;nbsp; &amp;nbsp; &amp;nbsp; &lt;/span&gt;&lt;span style=&quot;color: #7bd88f;&quot;&gt;memset&lt;/span&gt;&lt;span style=&quot;color: #8b888f;&quot;&gt;(&lt;/span&gt;&lt;span style=&quot;color: #fd9353;font-style: italic;&quot;&gt;buffer&lt;/span&gt;&lt;span style=&quot;color: #8b888f;&quot;&gt;,&lt;/span&gt;&lt;span style=&quot;color: #f7f1ff;&quot;&gt; &lt;/span&gt;&lt;span style=&quot;color: #948ae3;&quot;&gt;0&lt;/span&gt;&lt;span style=&quot;color: #8b888f;&quot;&gt;,&lt;/span&gt;&lt;span style=&quot;color: #f7f1ff;&quot;&gt; &lt;/span&gt;&lt;span style=&quot;color: #fd9353;font-style: italic;&quot;&gt;num_samples&lt;/span&gt;&lt;span style=&quot;color: #f7f1ff;&quot;&gt; &lt;/span&gt;&lt;span style=&quot;color: #fc618d;&quot;&gt;*&lt;/span&gt;&lt;span style=&quot;color: #f7f1ff;&quot;&gt; &lt;/span&gt;&lt;span style=&quot;color: #5ad4e6;&quot;&gt;BYTES_PER_FRAME&lt;/span&gt;&lt;span style=&quot;color: #8b888f;&quot;&gt;);&lt;/span&gt;&lt;/div&gt;&lt;div&gt;&lt;span style=&quot;color: #f7f1ff;&quot;&gt;&amp;nbsp; &amp;nbsp; &amp;nbsp; &amp;nbsp; &lt;/span&gt;&lt;span style=&quot;color: #f7f1ff;&quot;&gt;audio_output_paused&lt;/span&gt;&lt;span style=&quot;color: #f7f1ff;&quot;&gt; &lt;/span&gt;&lt;span style=&quot;color: #fc618d;&quot;&gt;=&lt;/span&gt;&lt;span style=&quot;color: #f7f1ff;&quot;&gt; &lt;/span&gt;&lt;span style=&quot;color: #948ae3;&quot;&gt;1&lt;/span&gt;&lt;span style=&quot;color: #8b888f;&quot;&gt;;&lt;/span&gt;&lt;/div&gt;&lt;div&gt;&lt;span style=&quot;color: #f7f1ff;&quot;&gt;&amp;nbsp; &amp;nbsp; &lt;/span&gt;&lt;span style=&quot;color: #8b888f;&quot;&gt;}&lt;/span&gt;&lt;/div&gt;&lt;div&gt;&lt;span style=&quot;color: #8b888f;&quot;&gt;}&lt;/span&gt;&lt;/div&gt;&lt;/div&gt;" style="text;whiteSpace=wrap;html=1;fontSize=15;" parent="1" vertex="1">
                    <mxGeometry x="260" y="-910" width="530" height="570" as="geometry"/>
                </mxCell>
                <mxCell id="21" value="&lt;div style=&quot;color: rgb(247, 241, 255); background-color: rgb(34, 34, 34); font-family: &amp;quot;Ubuntu Mono&amp;quot;, Consolas, &amp;quot;Courier New&amp;quot;, monospace; font-weight: normal; font-size: 14px; line-height: 19px;&quot;&gt;&lt;div&gt;&lt;span style=&quot;color: #fc618d;font-style: italic;&quot;&gt;const&lt;/span&gt;&lt;span style=&quot;color: #f7f1ff;&quot;&gt; &lt;/span&gt;&lt;span style=&quot;color: #5ad4e6;font-style: italic;&quot;&gt;btstack_audio_sink_t&lt;/span&gt;&lt;span style=&quot;color: #f7f1ff;&quot;&gt; &lt;/span&gt;&lt;span style=&quot;color: #fc618d;&quot;&gt;*&lt;/span&gt;&lt;span style=&quot;color: #f7f1ff;&quot;&gt; &lt;/span&gt;&lt;span style=&quot;color: #f7f1ff;&quot;&gt;audio_sink&lt;/span&gt;&lt;span style=&quot;color: #f7f1ff;&quot;&gt; &lt;/span&gt;&lt;span style=&quot;color: #fc618d;&quot;&gt;=&lt;/span&gt;&lt;span style=&quot;color: #f7f1ff;&quot;&gt; &lt;/span&gt;&lt;span style=&quot;color: #7bd88f;&quot;&gt;btstack_audio_esp32_sink_get_instance&lt;/span&gt;&lt;span style=&quot;color: #8b888f;&quot;&gt;();&lt;/span&gt;&lt;/div&gt;&lt;div&gt;&lt;span style=&quot;color: #f7f1ff;&quot;&gt;&amp;nbsp; &amp;nbsp; &lt;/span&gt;&lt;span style=&quot;color: #fc618d;&quot;&gt;if&lt;/span&gt;&lt;span style=&quot;color: #f7f1ff;&quot;&gt; &lt;/span&gt;&lt;span style=&quot;color: #8b888f;&quot;&gt;(&lt;/span&gt;&lt;span style=&quot;color: #f7f1ff;&quot;&gt;audio_sink&lt;/span&gt;&lt;span style=&quot;color: #f7f1ff;&quot;&gt; &lt;/span&gt;&lt;span style=&quot;color: #fc618d;&quot;&gt;!=&lt;/span&gt;&lt;span style=&quot;color: #f7f1ff;&quot;&gt; &lt;/span&gt;&lt;span style=&quot;color: #5ad4e6;&quot;&gt;NULL&lt;/span&gt;&lt;span style=&quot;color: #8b888f;&quot;&gt;){&lt;/span&gt;&lt;/div&gt;&lt;div&gt;&lt;span style=&quot;color: #f7f1ff;&quot;&gt;&amp;nbsp; &amp;nbsp; &lt;/span&gt;&lt;span style=&quot;color: #f7f1ff;&quot;&gt;audio_sink&lt;/span&gt;&lt;span style=&quot;color: #8b888f;&quot;&gt;-&amp;gt;&lt;/span&gt;&lt;span style=&quot;color: #f7f1ff;&quot;&gt;init&lt;/span&gt;&lt;span style=&quot;color: #8b888f;&quot;&gt;(&lt;/span&gt;&lt;span style=&quot;color: #948ae3;&quot;&gt;1&lt;/span&gt;&lt;span style=&quot;color: #8b888f;&quot;&gt;,&lt;/span&gt;&lt;span style=&quot;color: #f7f1ff;&quot;&gt; &lt;/span&gt;&lt;span style=&quot;color: #fd9353;font-style: italic;&quot;&gt;sample_rate&lt;/span&gt;&lt;span style=&quot;color: #8b888f;&quot;&gt;,&lt;/span&gt;&lt;span style=&quot;color: #f7f1ff;&quot;&gt; &lt;/span&gt;&lt;span style=&quot;color: #fc618d;&quot;&gt;&amp;amp;&lt;/span&gt;&lt;span style=&quot;color: #7bd88f;&quot;&gt;audio_playback_callback&lt;/span&gt;&lt;span style=&quot;color: #8b888f;&quot;&gt;);&lt;/span&gt;&lt;/div&gt;&lt;div&gt;&lt;span style=&quot;color: #f7f1ff;&quot;&gt;&amp;nbsp; &amp;nbsp; &lt;/span&gt;&lt;span style=&quot;color: #f7f1ff;&quot;&gt;audio_sink&lt;/span&gt;&lt;span style=&quot;color: #8b888f;&quot;&gt;-&amp;gt;&lt;/span&gt;&lt;span style=&quot;color: #f7f1ff;&quot;&gt;start_stream&lt;/span&gt;&lt;span style=&quot;color: #8b888f;&quot;&gt;();&lt;/span&gt;&lt;/div&gt;&lt;br&gt;&lt;div&gt;&lt;span style=&quot;color: #f7f1ff;&quot;&gt;&amp;nbsp; &amp;nbsp; &lt;/span&gt;&lt;span style=&quot;color: #f7f1ff;&quot;&gt;audio_output_paused&lt;/span&gt;&lt;span style=&quot;color: #f7f1ff;&quot;&gt; &amp;nbsp;&lt;/span&gt;&lt;span style=&quot;color: #fc618d;&quot;&gt;=&lt;/span&gt;&lt;span style=&quot;color: #f7f1ff;&quot;&gt; &lt;/span&gt;&lt;span style=&quot;color: #948ae3;&quot;&gt;1&lt;/span&gt;&lt;span style=&quot;color: #8b888f;&quot;&gt;;&lt;/span&gt;&lt;/div&gt;&lt;div&gt;&lt;span style=&quot;color: #f7f1ff;&quot;&gt;&amp;nbsp; &amp;nbsp; &lt;/span&gt;&lt;span style=&quot;color: #8b888f;&quot;&gt;}&lt;/span&gt;&lt;/div&gt;&lt;/div&gt;" style="text;whiteSpace=wrap;html=1;fontSize=15;" parent="1" vertex="1">
                    <mxGeometry x="260" y="-250" width="580" height="150" as="geometry"/>
                </mxCell>
                <mxCell id="16" style="edgeStyle=orthogonalEdgeStyle;html=1;entryX=0.42;entryY=0.059;entryDx=0;entryDy=0;entryPerimeter=0;fontSize=15;" parent="1" source="15" target="9" edge="1">
                    <mxGeometry relative="1" as="geometry"/>
                </mxCell>
                <mxCell id="15" value="&lt;div style=&quot;color: rgb(247, 241, 255); background-color: rgb(34, 34, 34); font-family: &amp;quot;Ubuntu Mono&amp;quot;, Consolas, &amp;quot;Courier New&amp;quot;, monospace; font-weight: normal; font-size: 14px; line-height: 19px;&quot;&gt;&lt;div&gt;&lt;span style=&quot;color: #fc618d;font-style: italic;&quot;&gt;static&lt;/span&gt;&lt;span style=&quot;color: #f7f1ff;&quot;&gt; &lt;/span&gt;&lt;span style=&quot;color: #fc618d;font-style: italic;&quot;&gt;const&lt;/span&gt;&lt;span style=&quot;color: #f7f1ff;&quot;&gt; &lt;/span&gt;&lt;span style=&quot;color: #5ad4e6;font-style: italic;&quot;&gt;btstack_audio_sink_t&lt;/span&gt;&lt;span style=&quot;color: #f7f1ff;&quot;&gt; &lt;/span&gt;&lt;span style=&quot;color: #f7f1ff;&quot;&gt;btstack_audio_esp32_sink&lt;/span&gt;&lt;span style=&quot;color: #f7f1ff;&quot;&gt; &lt;/span&gt;&lt;span style=&quot;color: #fc618d;&quot;&gt;=&lt;/span&gt;&lt;span style=&quot;color: #f7f1ff;&quot;&gt; &lt;/span&gt;&lt;span style=&quot;color: #8b888f;&quot;&gt;{&lt;/span&gt;&lt;/div&gt;&lt;div&gt;&lt;span style=&quot;color: #f7f1ff;&quot;&gt;&amp;nbsp; &amp;nbsp; .&lt;/span&gt;&lt;span style=&quot;color: #f7f1ff;&quot;&gt;init&lt;/span&gt;&lt;span style=&quot;color: #f7f1ff;&quot;&gt; &amp;nbsp; &amp;nbsp; &amp;nbsp; &amp;nbsp; &amp;nbsp; &lt;/span&gt;&lt;span style=&quot;color: #fc618d;&quot;&gt;=&lt;/span&gt;&lt;span style=&quot;color: #f7f1ff;&quot;&gt; &lt;/span&gt;&lt;span style=&quot;color: #fc618d;&quot;&gt;&amp;amp;&lt;/span&gt;&lt;span style=&quot;color: #7bd88f;&quot;&gt;btstack_audio_esp32_sink_init&lt;/span&gt;&lt;span style=&quot;color: #8b888f;&quot;&gt;,&lt;/span&gt;&lt;/div&gt;&lt;/div&gt;" style="text;whiteSpace=wrap;html=1;fontSize=15;" parent="1" vertex="1">
                    <mxGeometry x="260" y="130" width="470" height="40" as="geometry"/>
                </mxCell>
                <mxCell id="18" style="edgeStyle=orthogonalEdgeStyle;html=1;entryX=0.702;entryY=0.25;entryDx=0;entryDy=0;entryPerimeter=0;fontSize=15;" parent="1" source="17" target="15" edge="1">
                    <mxGeometry relative="1" as="geometry"/>
                </mxCell>
                <mxCell id="17" value="&lt;div style=&quot;color: rgb(247, 241, 255); background-color: rgb(34, 34, 34); font-family: &amp;quot;Ubuntu Mono&amp;quot;, Consolas, &amp;quot;Courier New&amp;quot;, monospace; font-weight: normal; font-size: 14px; line-height: 19px;&quot;&gt;&lt;div&gt;&lt;span style=&quot;color: #fc618d;font-style: italic;&quot;&gt;const&lt;/span&gt;&lt;span style=&quot;color: #f7f1ff;&quot;&gt; &lt;/span&gt;&lt;span style=&quot;color: #5ad4e6;font-style: italic;&quot;&gt;btstack_audio_sink_t&lt;/span&gt;&lt;span style=&quot;color: #f7f1ff;&quot;&gt; &lt;/span&gt;&lt;span style=&quot;color: #fc618d;&quot;&gt;*&lt;/span&gt;&lt;span style=&quot;color: #f7f1ff;&quot;&gt; &lt;/span&gt;&lt;span style=&quot;color: #7bd88f;&quot;&gt;btstack_audio_esp32_sink_get_instance&lt;/span&gt;&lt;span style=&quot;color: #8b888f;&quot;&gt;(&lt;/span&gt;&lt;span style=&quot;color: #5ad4e6;font-style: italic;&quot;&gt;void&lt;/span&gt;&lt;span style=&quot;color: #8b888f;&quot;&gt;){&lt;/span&gt;&lt;/div&gt;&lt;div&gt;&lt;span style=&quot;color: #f7f1ff;&quot;&gt;&amp;nbsp; &amp;nbsp; &lt;/span&gt;&lt;span style=&quot;color: #fc618d;&quot;&gt;return&lt;/span&gt;&lt;span style=&quot;color: #f7f1ff;&quot;&gt; &lt;/span&gt;&lt;span style=&quot;color: #fc618d;&quot;&gt;&amp;amp;&lt;/span&gt;&lt;span style=&quot;color: #f7f1ff;&quot;&gt;btstack_audio_esp32_sink&lt;/span&gt;&lt;span style=&quot;color: #8b888f;&quot;&gt;;&lt;/span&gt;&lt;/div&gt;&lt;div&gt;&lt;span style=&quot;color: #8b888f;&quot;&gt;}&lt;/span&gt;&lt;/div&gt;&lt;/div&gt;" style="text;whiteSpace=wrap;html=1;fontSize=15;" parent="1" vertex="1">
                    <mxGeometry x="260" y="30" width="560" height="60" as="geometry"/>
                </mxCell>
                <mxCell id="20" style="edgeStyle=orthogonalEdgeStyle;html=1;exitX=0.5;exitY=1;exitDx=0;exitDy=0;entryX=0.501;entryY=0.333;entryDx=0;entryDy=0;entryPerimeter=0;fontSize=15;" parent="1" source="19" target="17" edge="1">
                    <mxGeometry relative="1" as="geometry"/>
                </mxCell>
                <mxCell id="19" value="&lt;div style=&quot;color: rgb(247, 241, 255); background-color: rgb(34, 34, 34); font-family: &amp;quot;Ubuntu Mono&amp;quot;, Consolas, &amp;quot;Courier New&amp;quot;, monospace; font-weight: normal; font-size: 14px; line-height: 19px;&quot;&gt;&lt;div&gt;&lt;span style=&quot;color: #fc618d;font-style: italic;&quot;&gt;const&lt;/span&gt;&lt;span style=&quot;color: #f7f1ff;&quot;&gt; &lt;/span&gt;&lt;span style=&quot;color: #5ad4e6;font-style: italic;&quot;&gt;btstack_audio_sink_t&lt;/span&gt;&lt;span style=&quot;color: #f7f1ff;&quot;&gt; &lt;/span&gt;&lt;span style=&quot;color: #fc618d;&quot;&gt;*&lt;/span&gt;&lt;span style=&quot;color: #f7f1ff;&quot;&gt; &amp;nbsp; &amp;nbsp;&lt;/span&gt;&lt;span style=&quot;color: #7bd88f;&quot;&gt;btstack_audio_esp32_sink_get_instance&lt;/span&gt;&lt;span style=&quot;color: #8b888f;&quot;&gt;(&lt;/span&gt;&lt;span style=&quot;color: #5ad4e6;font-style: italic;&quot;&gt;void&lt;/span&gt;&lt;span style=&quot;color: #8b888f;&quot;&gt;);&lt;/span&gt;&lt;/div&gt;&lt;/div&gt;" style="text;whiteSpace=wrap;html=1;fontSize=15;" parent="1" vertex="1">
                    <mxGeometry x="260" y="-20" width="560" height="30" as="geometry"/>
                </mxCell>
                <mxCell id="28" style="edgeStyle=orthogonalEdgeStyle;html=1;fontSize=15;exitX=0.569;exitY=0.4;exitDx=0;exitDy=0;exitPerimeter=0;" parent="1" source="21" edge="1">
                    <mxGeometry relative="1" as="geometry">
                        <mxPoint x="299" y="361" as="targetPoint"/>
                        <mxPoint x="590.02" y="-190" as="sourcePoint"/>
                        <Array as="points">
                            <mxPoint x="590" y="-80"/>
                            <mxPoint x="220" y="-80"/>
                            <mxPoint x="220" y="361"/>
                        </Array>
                    </mxGeometry>
                </mxCell>
                <mxCell id="30" style="edgeStyle=orthogonalEdgeStyle;html=1;exitX=0.5;exitY=0;exitDx=0;exitDy=0;fontSize=15;" parent="1" source="19" edge="1">
                    <mxGeometry relative="1" as="geometry">
                        <mxPoint x="660" y="-240" as="targetPoint"/>
                        <mxPoint x="540" y="-20" as="sourcePoint"/>
                        <Array as="points">
                            <mxPoint x="540" y="-40"/>
                            <mxPoint x="880" y="-40"/>
                            <mxPoint x="880" y="-290"/>
                            <mxPoint x="660" y="-290"/>
                        </Array>
                    </mxGeometry>
                </mxCell>
                <mxCell id="33" style="edgeStyle=orthogonalEdgeStyle;html=1;exitX=0.25;exitY=0;exitDx=0;exitDy=0;fontSize=15;entryX=0.724;entryY=0.333;entryDx=0;entryDy=0;entryPerimeter=0;" parent="1" source="32" target="21" edge="1">
                    <mxGeometry relative="1" as="geometry">
                        <mxPoint x="870" y="-180" as="targetPoint"/>
                        <Array as="points">
                            <mxPoint x="400" y="-910"/>
                            <mxPoint x="400" y="-920"/>
                            <mxPoint x="930" y="-920"/>
                            <mxPoint x="930" y="-180"/>
                            <mxPoint x="680" y="-180"/>
                        </Array>
                    </mxGeometry>
                </mxCell>
                <mxCell id="40" value="Это функция искома: тут с кольцевого передается в просто буфер" style="edgeLabel;html=1;align=center;verticalAlign=middle;resizable=0;points=[];fontSize=21;" parent="33" vertex="1" connectable="0">
                    <mxGeometry x="-0.8796" y="1" relative="1" as="geometry">
                        <mxPoint x="93" y="-29" as="offset"/>
                    </mxGeometry>
                </mxCell>
                <mxCell id="34" style="edgeStyle=orthogonalEdgeStyle;html=1;exitX=0.962;exitY=0.596;exitDx=0;exitDy=0;fontSize=15;exitPerimeter=0;" parent="1" source="32" edge="1">
                    <mxGeometry relative="1" as="geometry">
                        <mxPoint x="500" y="260" as="targetPoint"/>
                        <Array as="points">
                            <mxPoint x="840" y="-570"/>
                            <mxPoint x="840" y="-320"/>
                            <mxPoint x="160" y="-320"/>
                            <mxPoint x="160" y="240"/>
                            <mxPoint x="500" y="240"/>
                        </Array>
                    </mxGeometry>
                </mxCell>
                <mxCell id="44" style="edgeStyle=orthogonalEdgeStyle;html=1;strokeWidth=4;fontSize=35;entryX=0;entryY=0.5;entryDx=0;entryDy=0;exitX=0.949;exitY=0.886;exitDx=0;exitDy=0;exitPerimeter=0;" parent="1" source="59" target="37" edge="1">
                    <mxGeometry relative="1" as="geometry">
                        <mxPoint x="-770" y="-605" as="targetPoint"/>
                        <mxPoint x="-839" y="-471" as="sourcePoint"/>
                        <Array as="points">
                            <mxPoint x="-690" y="-500"/>
                            <mxPoint x="-690" y="-575"/>
                        </Array>
                    </mxGeometry>
                </mxCell>
                <mxCell id="46" value="IN" style="edgeLabel;html=1;align=center;verticalAlign=middle;resizable=0;points=[];fontSize=35;" parent="44" vertex="1" connectable="0">
                    <mxGeometry x="0.186" y="-5" relative="1" as="geometry">
                        <mxPoint x="-207" y="225" as="offset"/>
                    </mxGeometry>
                </mxCell>
                <mxCell id="37" value="&lt;font style=&quot;font-size: 21px;&quot;&gt;&lt;b&gt;AUDIO_OUTPUT_BUFFER&lt;/b&gt;&lt;/font&gt;" style="ellipse;whiteSpace=wrap;html=1;aspect=fixed;fontSize=15;" parent="1" vertex="1">
                    <mxGeometry x="-483.6" y="-730" width="310" height="310" as="geometry"/>
                </mxCell>
                <mxCell id="49" style="edgeStyle=orthogonalEdgeStyle;html=1;strokeWidth=1;fontSize=35;exitX=0.679;exitY=0.938;exitDx=0;exitDy=0;exitPerimeter=0;" parent="1" source="9" edge="1">
                    <mxGeometry relative="1" as="geometry">
                        <mxPoint x="210" y="570" as="targetPoint"/>
                        <mxPoint x="640" y="380" as="sourcePoint"/>
                        <Array as="points">
                            <mxPoint x="640" y="470"/>
                            <mxPoint x="160" y="470"/>
                            <mxPoint x="160" y="570"/>
                        </Array>
                    </mxGeometry>
                </mxCell>
                <mxCell id="50" style="edgeStyle=orthogonalEdgeStyle;html=1;exitX=0.561;exitY=0.5;exitDx=0;exitDy=0;entryX=0.341;entryY=0.667;entryDx=0;entryDy=0;entryPerimeter=0;strokeWidth=2;fontSize=35;exitPerimeter=0;" parent="1" source="47" target="47" edge="1">
                    <mxGeometry relative="1" as="geometry"/>
                </mxCell>
                <mxCell id="35" style="edgeStyle=orthogonalEdgeStyle;html=1;fontSize=15;strokeWidth=4;fillColor=#f0a30a;strokeColor=#BD7000;" parent="1" source="32" edge="1">
                    <mxGeometry relative="1" as="geometry">
                        <mxPoint x="670" y="550" as="targetPoint"/>
                        <mxPoint x="657" y="-570" as="sourcePoint"/>
                        <Array as="points">
                            <mxPoint x="1060" y="-570"/>
                            <mxPoint x="1060" y="460"/>
                            <mxPoint x="670" y="460"/>
                        </Array>
                    </mxGeometry>
                </mxCell>
                <mxCell id="36" value="По своенй сути, в пины передается буфер, &lt;br&gt;который попадается в аргументы&amp;nbsp;&lt;br&gt;&lt;span style=&quot;color: rgb(123, 216, 143); font-family: &amp;quot;Ubuntu Mono&amp;quot;, Consolas, &amp;quot;Courier New&amp;quot;, monospace; font-size: 14px; text-align: left; background-color: rgb(34, 34, 34);&quot;&gt;audio_playback_callback&lt;/span&gt;&lt;br&gt;&amp;nbsp;" style="edgeLabel;html=1;align=center;verticalAlign=middle;resizable=0;points=[];fontSize=15;" parent="35" vertex="1" connectable="0">
                    <mxGeometry x="-0.0974" y="-2" relative="1" as="geometry">
                        <mxPoint as="offset"/>
                    </mxGeometry>
                </mxCell>
                <mxCell id="51" value="&lt;div style=&quot;color: rgb(247, 241, 255); background-color: rgb(34, 34, 34); font-family: &amp;quot;Ubuntu Mono&amp;quot;, Consolas, &amp;quot;Courier New&amp;quot;, monospace; font-weight: normal; font-size: 14px; line-height: 19px;&quot;&gt;&lt;div&gt;&lt;span style=&quot;color: #fc618d;font-style: italic;&quot;&gt;static&lt;/span&gt;&lt;span style=&quot;color: #f7f1ff;&quot;&gt; &lt;/span&gt;&lt;span style=&quot;color: #5ad4e6;font-style: italic;&quot;&gt;void&lt;/span&gt;&lt;span style=&quot;color: #f7f1ff;&quot;&gt; &lt;/span&gt;&lt;span style=&quot;color: #7bd88f;&quot;&gt;btstack_audio_esp32_driver_timer_handler&lt;/span&gt;&lt;span style=&quot;color: #8b888f;&quot;&gt;(&lt;/span&gt;&lt;span style=&quot;color: #5ad4e6;font-style: italic;&quot;&gt;btstack_timer_source_t&lt;/span&gt;&lt;span style=&quot;color: #f7f1ff;&quot;&gt; &lt;/span&gt;&lt;span style=&quot;color: #fc618d;&quot;&gt;*&lt;/span&gt;&lt;span style=&quot;color: #f7f1ff;&quot;&gt; &lt;/span&gt;&lt;span style=&quot;color: #fd9353;font-style: italic;&quot;&gt;ts&lt;/span&gt;&lt;span style=&quot;color: #8b888f;&quot;&gt;){&lt;/span&gt;&lt;/div&gt;&lt;div&gt;&lt;span style=&quot;color: #8b888f;&quot;&gt;&amp;nbsp; &amp;nbsp; &lt;/span&gt;&lt;span style=&quot;color: #69676c;font-style: italic;&quot;&gt;// read max 2 events from i2s event queue&lt;/span&gt;&lt;/div&gt;&lt;div&gt;&lt;span style=&quot;color: #f7f1ff;&quot;&gt;&amp;nbsp; &amp;nbsp; &lt;/span&gt;&lt;span style=&quot;color: #5ad4e6;font-style: italic;&quot;&gt;i2s_event_t&lt;/span&gt;&lt;span style=&quot;color: #f7f1ff;&quot;&gt; &lt;/span&gt;&lt;span style=&quot;color: #f7f1ff;&quot;&gt;i2s_event&lt;/span&gt;&lt;span style=&quot;color: #8b888f;&quot;&gt;;&lt;/span&gt;&lt;/div&gt;&lt;div&gt;&lt;span style=&quot;color: #f7f1ff;&quot;&gt;&amp;nbsp; &amp;nbsp; &lt;/span&gt;&lt;span style=&quot;color: #5ad4e6;font-style: italic;&quot;&gt;int&lt;/span&gt;&lt;span style=&quot;color: #f7f1ff;&quot;&gt; &lt;/span&gt;&lt;span style=&quot;color: #f7f1ff;&quot;&gt;i&lt;/span&gt;&lt;span style=&quot;color: #8b888f;&quot;&gt;;&lt;/span&gt;&lt;/div&gt;&lt;div&gt;&lt;span style=&quot;color: #f7f1ff;&quot;&gt;&amp;nbsp; &amp;nbsp; &lt;/span&gt;&lt;span style=&quot;color: #fc618d;&quot;&gt;for&lt;/span&gt;&lt;span style=&quot;color: #f7f1ff;&quot;&gt; &lt;/span&gt;&lt;span style=&quot;color: #8b888f;&quot;&gt;(&lt;/span&gt;&lt;span style=&quot;color: #f7f1ff;&quot;&gt;i&lt;/span&gt;&lt;span style=&quot;color: #fc618d;&quot;&gt;=&lt;/span&gt;&lt;span style=&quot;color: #948ae3;&quot;&gt;0&lt;/span&gt;&lt;span style=&quot;color: #8b888f;&quot;&gt;;&lt;/span&gt;&lt;span style=&quot;color: #f7f1ff;&quot;&gt;i&lt;/span&gt;&lt;span style=&quot;color: #fc618d;&quot;&gt;&amp;lt;&lt;/span&gt;&lt;span style=&quot;color: #948ae3;&quot;&gt;2&lt;/span&gt;&lt;span style=&quot;color: #8b888f;&quot;&gt;;&lt;/span&gt;&lt;span style=&quot;color: #f7f1ff;&quot;&gt;i&lt;/span&gt;&lt;span style=&quot;color: #fc618d;&quot;&gt;++&lt;/span&gt;&lt;span style=&quot;color: #8b888f;&quot;&gt;){&lt;/span&gt;&lt;/div&gt;&lt;div&gt;&lt;span style=&quot;color: #f7f1ff;&quot;&gt;&amp;nbsp; &amp;nbsp; &amp;nbsp; &amp;nbsp; &lt;/span&gt;&lt;span style=&quot;color: #fc618d;&quot;&gt;if&lt;/span&gt;&lt;span style=&quot;color: #8b888f;&quot;&gt;(&lt;/span&gt;&lt;span style=&quot;color: #f7f1ff;&quot;&gt; &lt;/span&gt;&lt;span style=&quot;color: #7bd88f;&quot;&gt;xQueueReceive&lt;/span&gt;&lt;span style=&quot;color: #8b888f;&quot;&gt;(&lt;/span&gt;&lt;span style=&quot;color: #f7f1ff;&quot;&gt; &lt;/span&gt;&lt;span style=&quot;color: #f7f1ff;&quot;&gt;btstack_audio_esp32_i2s_event_queue&lt;/span&gt;&lt;span style=&quot;color: #8b888f;&quot;&gt;,&lt;/span&gt;&lt;span style=&quot;color: #f7f1ff;&quot;&gt; &lt;/span&gt;&lt;span style=&quot;color: #fc618d;&quot;&gt;&amp;amp;&lt;/span&gt;&lt;span style=&quot;color: #f7f1ff;&quot;&gt;i2s_event&lt;/span&gt;&lt;span style=&quot;color: #8b888f;&quot;&gt;,&lt;/span&gt;&lt;span style=&quot;color: #f7f1ff;&quot;&gt; &lt;/span&gt;&lt;span style=&quot;color: #948ae3;&quot;&gt;0&lt;/span&gt;&lt;span style=&quot;color: #8b888f;&quot;&gt;)&lt;/span&gt;&lt;span style=&quot;color: #f7f1ff;&quot;&gt; &lt;/span&gt;&lt;span style=&quot;color: #fc618d;&quot;&gt;==&lt;/span&gt;&lt;span style=&quot;color: #f7f1ff;&quot;&gt; &lt;/span&gt;&lt;span style=&quot;color: #5ad4e6;&quot;&gt;false&lt;/span&gt;&lt;span style=&quot;color: #8b888f;&quot;&gt;)&lt;/span&gt;&lt;span style=&quot;color: #f7f1ff;&quot;&gt; &lt;/span&gt;&lt;span style=&quot;color: #fc618d;&quot;&gt;break&lt;/span&gt;&lt;span style=&quot;color: #8b888f;&quot;&gt;;&lt;/span&gt;&lt;/div&gt;&lt;div&gt;&lt;span style=&quot;color: #f7f1ff;&quot;&gt;&amp;nbsp; &amp;nbsp; &amp;nbsp; &amp;nbsp; &lt;/span&gt;&lt;span style=&quot;color: #fc618d;&quot;&gt;switch&lt;/span&gt;&lt;span style=&quot;color: #f7f1ff;&quot;&gt; &lt;/span&gt;&lt;span style=&quot;color: #8b888f;&quot;&gt;(&lt;/span&gt;&lt;span style=&quot;color: #f7f1ff;&quot;&gt;i2s_event&lt;/span&gt;&lt;span style=&quot;color: #8b888f;&quot;&gt;.&lt;/span&gt;&lt;span style=&quot;color: #f7f1ff;&quot;&gt;type&lt;/span&gt;&lt;span style=&quot;color: #8b888f;&quot;&gt;){&lt;/span&gt;&lt;/div&gt;&lt;div&gt;&lt;span style=&quot;color: #f7f1ff;&quot;&gt;&amp;nbsp; &amp;nbsp; &amp;nbsp; &amp;nbsp; &amp;nbsp; &amp;nbsp; &lt;/span&gt;&lt;span style=&quot;color: #fc618d;&quot;&gt;case&lt;/span&gt;&lt;span style=&quot;color: #f7f1ff;&quot;&gt; I2S_EVENT_TX_DONE&lt;/span&gt;&lt;span style=&quot;color: #8b888f;&quot;&gt;:&lt;/span&gt;&lt;/div&gt;&lt;div&gt;&lt;span style=&quot;color: #f7f1ff;&quot;&gt;&amp;nbsp; &amp;nbsp; &amp;nbsp; &amp;nbsp; &amp;nbsp; &amp;nbsp; &amp;nbsp; &amp;nbsp; &lt;/span&gt;&lt;span style=&quot;color: #5ad4e6;&quot;&gt;log_debug&lt;/span&gt;&lt;span style=&quot;color: #8b888f;&quot;&gt;(&lt;/span&gt;&lt;span style=&quot;color: #8b888f;&quot;&gt;&quot;&lt;/span&gt;&lt;span style=&quot;color: #fce566;&quot;&gt;I2S_EVENT_TX_DONE&lt;/span&gt;&lt;span style=&quot;color: #8b888f;&quot;&gt;&quot;&lt;/span&gt;&lt;span style=&quot;color: #8b888f;&quot;&gt;);&lt;/span&gt;&lt;/div&gt;&lt;div&gt;&lt;span style=&quot;color: #f7f1ff;&quot;&gt;&amp;nbsp; &amp;nbsp; &amp;nbsp; &amp;nbsp; &amp;nbsp; &amp;nbsp; &amp;nbsp; &amp;nbsp; &lt;/span&gt;&lt;span style=&quot;color: #7bd88f;&quot;&gt;btstack_audio_esp32_sink_fill_buffer&lt;/span&gt;&lt;span style=&quot;color: #8b888f;&quot;&gt;();&lt;/span&gt;&lt;/div&gt;&lt;div&gt;&lt;span style=&quot;color: #f7f1ff;&quot;&gt;&amp;nbsp; &amp;nbsp; &amp;nbsp; &amp;nbsp; &amp;nbsp; &amp;nbsp; &amp;nbsp; &amp;nbsp; &lt;/span&gt;&lt;span style=&quot;color: #fc618d;&quot;&gt;break&lt;/span&gt;&lt;span style=&quot;color: #8b888f;&quot;&gt;;&lt;/span&gt;&lt;/div&gt;&lt;div&gt;&lt;span style=&quot;color: #f7f1ff;&quot;&gt;&amp;nbsp; &amp;nbsp; &amp;nbsp; &amp;nbsp; &amp;nbsp; &amp;nbsp; &lt;/span&gt;&lt;span style=&quot;color: #fc618d;&quot;&gt;case&lt;/span&gt;&lt;span style=&quot;color: #f7f1ff;&quot;&gt; I2S_EVENT_RX_DONE&lt;/span&gt;&lt;span style=&quot;color: #8b888f;&quot;&gt;:&lt;/span&gt;&lt;/div&gt;&lt;div&gt;&lt;span style=&quot;color: #f7f1ff;&quot;&gt;&amp;nbsp; &amp;nbsp; &amp;nbsp; &amp;nbsp; &amp;nbsp; &amp;nbsp; &amp;nbsp; &amp;nbsp; &lt;/span&gt;&lt;span style=&quot;color: #5ad4e6;&quot;&gt;log_debug&lt;/span&gt;&lt;span style=&quot;color: #8b888f;&quot;&gt;(&lt;/span&gt;&lt;span style=&quot;color: #8b888f;&quot;&gt;&quot;&lt;/span&gt;&lt;span style=&quot;color: #fce566;&quot;&gt;I2S_EVENT_RX_DONE&lt;/span&gt;&lt;span style=&quot;color: #8b888f;&quot;&gt;&quot;&lt;/span&gt;&lt;span style=&quot;color: #8b888f;&quot;&gt;);&lt;/span&gt;&lt;/div&gt;&lt;div&gt;&lt;span style=&quot;color: #f7f1ff;&quot;&gt;&amp;nbsp; &amp;nbsp; &amp;nbsp; &amp;nbsp; &amp;nbsp; &amp;nbsp; &amp;nbsp; &amp;nbsp; &lt;/span&gt;&lt;span style=&quot;color: #7bd88f;&quot;&gt;btstack_audio_esp32_source_process_buffer&lt;/span&gt;&lt;span style=&quot;color: #8b888f;&quot;&gt;();&lt;/span&gt;&lt;/div&gt;&lt;div&gt;&lt;span style=&quot;color: #f7f1ff;&quot;&gt;&amp;nbsp; &amp;nbsp; &amp;nbsp; &amp;nbsp; &amp;nbsp; &amp;nbsp; &amp;nbsp; &amp;nbsp; &lt;/span&gt;&lt;span style=&quot;color: #fc618d;&quot;&gt;break&lt;/span&gt;&lt;span style=&quot;color: #8b888f;&quot;&gt;;&lt;/span&gt;&lt;/div&gt;&lt;div&gt;&lt;span style=&quot;color: #f7f1ff;&quot;&gt;&amp;nbsp; &amp;nbsp; &amp;nbsp; &amp;nbsp; &amp;nbsp; &amp;nbsp; &lt;/span&gt;&lt;span style=&quot;color: #fc618d;&quot;&gt;default&lt;/span&gt;&lt;span style=&quot;color: #8b888f;&quot;&gt;:&lt;/span&gt;&lt;/div&gt;&lt;div&gt;&lt;span style=&quot;color: #f7f1ff;&quot;&gt;&amp;nbsp; &amp;nbsp; &amp;nbsp; &amp;nbsp; &amp;nbsp; &amp;nbsp; &amp;nbsp; &amp;nbsp; &lt;/span&gt;&lt;span style=&quot;color: #fc618d;&quot;&gt;break&lt;/span&gt;&lt;span style=&quot;color: #8b888f;&quot;&gt;;&lt;/span&gt;&lt;/div&gt;&lt;div&gt;&lt;span style=&quot;color: #f7f1ff;&quot;&gt;&amp;nbsp; &amp;nbsp; &amp;nbsp; &amp;nbsp; &lt;/span&gt;&lt;span style=&quot;color: #8b888f;&quot;&gt;}&lt;/span&gt;&lt;/div&gt;&lt;div&gt;&lt;span style=&quot;color: #f7f1ff;&quot;&gt;&amp;nbsp; &amp;nbsp; &lt;/span&gt;&lt;span style=&quot;color: #8b888f;&quot;&gt;}&lt;/span&gt;&lt;/div&gt;&lt;br&gt;&lt;div&gt;&lt;span style=&quot;color: #8b888f;&quot;&gt;&amp;nbsp; &amp;nbsp; &lt;/span&gt;&lt;span style=&quot;color: #69676c;font-style: italic;&quot;&gt;// re-set timer&lt;/span&gt;&lt;/div&gt;&lt;div&gt;&lt;span style=&quot;color: #f7f1ff;&quot;&gt;&amp;nbsp; &amp;nbsp; &lt;/span&gt;&lt;span style=&quot;color: #7bd88f;&quot;&gt;btstack_run_loop_set_timer&lt;/span&gt;&lt;span style=&quot;color: #8b888f;&quot;&gt;(&lt;/span&gt;&lt;span style=&quot;color: #fd9353;font-style: italic;&quot;&gt;ts&lt;/span&gt;&lt;span style=&quot;color: #8b888f;&quot;&gt;,&lt;/span&gt;&lt;span style=&quot;color: #f7f1ff;&quot;&gt; &lt;/span&gt;&lt;span style=&quot;color: #5ad4e6;&quot;&gt;DRIVER_POLL_INTERVAL_MS&lt;/span&gt;&lt;span style=&quot;color: #8b888f;&quot;&gt;);&lt;/span&gt;&lt;/div&gt;&lt;div&gt;&lt;span style=&quot;color: #f7f1ff;&quot;&gt;&amp;nbsp; &amp;nbsp; &lt;/span&gt;&lt;span style=&quot;color: #7bd88f;&quot;&gt;btstack_run_loop_add_timer&lt;/span&gt;&lt;span style=&quot;color: #8b888f;&quot;&gt;(&lt;/span&gt;&lt;span style=&quot;color: #fd9353;font-style: italic;&quot;&gt;ts&lt;/span&gt;&lt;span style=&quot;color: #8b888f;&quot;&gt;);&lt;/span&gt;&lt;/div&gt;&lt;div&gt;&lt;span style=&quot;color: #8b888f;&quot;&gt;}&lt;/span&gt;&lt;/div&gt;&lt;/div&gt;" style="text;whiteSpace=wrap;html=1;fontSize=35;" parent="1" vertex="1">
                    <mxGeometry x="-480" y="-120" width="560" height="500" as="geometry"/>
                </mxCell>
                <mxCell id="52" style="edgeStyle=orthogonalEdgeStyle;html=1;strokeWidth=3;fontSize=35;entryX=0.122;entryY=0.167;entryDx=0;entryDy=0;entryPerimeter=0;" parent="1" target="47" edge="1">
                    <mxGeometry relative="1" as="geometry">
                        <mxPoint x="70" y="531" as="targetPoint"/>
                        <mxPoint x="-150" y="-80" as="sourcePoint"/>
                        <Array as="points">
                            <mxPoint x="60" y="-80"/>
                            <mxPoint x="60" y="531"/>
                        </Array>
                    </mxGeometry>
                </mxCell>
                <mxCell id="53" value="&lt;font style=&quot;font-size: 28px;&quot;&gt;Если один буфер был записан/считан,&lt;br&gt;&amp;nbsp;вызывает функцию записи/чтения следующего буфера&lt;/font&gt;" style="text;html=1;align=center;verticalAlign=middle;resizable=0;points=[];autosize=1;strokeColor=none;fillColor=none;fontSize=35;" parent="1" vertex="1">
                    <mxGeometry x="-640" y="-390" width="750" height="100" as="geometry"/>
                </mxCell>
                <mxCell id="74" style="edgeStyle=orthogonalEdgeStyle;html=1;exitX=0.5;exitY=1;exitDx=0;exitDy=0;strokeWidth=1;fontSize=37;entryX=0.226;entryY=0.5;entryDx=0;entryDy=0;entryPerimeter=0;" parent="1" source="67" target="64" edge="1">
                    <mxGeometry relative="1" as="geometry">
                        <mxPoint x="-1292.6" y="-1215" as="targetPoint"/>
                        <Array as="points">
                            <mxPoint x="-1077.6" y="-1345"/>
                            <mxPoint x="-1302.6" y="-1345"/>
                            <mxPoint x="-1302.6" y="-1215"/>
                        </Array>
                    </mxGeometry>
                </mxCell>
                <mxCell id="77" style="edgeStyle=orthogonalEdgeStyle;html=1;strokeWidth=1;fontSize=37;exitX=0.6;exitY=0.667;exitDx=0;exitDy=0;exitPerimeter=0;" parent="1" source="67" edge="1">
                    <mxGeometry relative="1" as="geometry">
                        <mxPoint x="-922.5999999999999" y="-1075" as="targetPoint"/>
                        <mxPoint x="-1042.6" y="-1395" as="sourcePoint"/>
                        <Array as="points">
                            <mxPoint x="-1042.6" y="-1345"/>
                            <mxPoint x="-882.5999999999999" y="-1345"/>
                            <mxPoint x="-882.5999999999999" y="-1105"/>
                            <mxPoint x="-922.5999999999999" y="-1105"/>
                        </Array>
                    </mxGeometry>
                </mxCell>
                <mxCell id="69" style="edgeStyle=orthogonalEdgeStyle;html=1;exitX=0.571;exitY=0.222;exitDx=0;exitDy=0;entryX=0.571;entryY=0.556;entryDx=0;entryDy=0;entryPerimeter=0;strokeWidth=1;fontSize=37;exitPerimeter=0;" parent="1" source="67" target="67" edge="1">
                    <mxGeometry relative="1" as="geometry"/>
                </mxCell>
                <mxCell id="80" style="edgeStyle=orthogonalEdgeStyle;html=1;exitX=0.5;exitY=1;exitDx=0;exitDy=0;entryX=0.896;entryY=0.222;entryDx=0;entryDy=0;entryPerimeter=0;strokeWidth=1;fontSize=37;" parent="1" source="72" target="67" edge="1">
                    <mxGeometry relative="1" as="geometry">
                        <mxPoint x="-932.6400000000003" y="-1515.0099999999998" as="targetPoint"/>
                        <Array as="points">
                            <mxPoint x="-2098" y="-1515"/>
                            <mxPoint x="-939" y="-1515"/>
                        </Array>
                    </mxGeometry>
                </mxCell>
                <mxCell id="118" style="edgeStyle=orthogonalEdgeStyle;html=1;exitX=0.346;exitY=0.846;exitDx=0;exitDy=0;entryX=0.61;entryY=0.222;entryDx=0;entryDy=0;entryPerimeter=0;exitPerimeter=0;" parent="1" source="72" target="67" edge="1">
                    <mxGeometry relative="1" as="geometry">
                        <Array as="points">
                            <mxPoint x="-2179" y="-1495"/>
                            <mxPoint x="-1039" y="-1495"/>
                        </Array>
                    </mxGeometry>
                </mxCell>
                <mxCell id="72" value="&lt;div style=&quot;color: rgb(247, 241, 255); background-color: rgb(34, 34, 34); font-family: &amp;quot;Ubuntu Mono&amp;quot;, Consolas, &amp;quot;Courier New&amp;quot;, monospace; font-weight: normal; font-size: 14px; line-height: 19px;&quot;&gt;&lt;div&gt;&lt;span style=&quot;color: #fc618d;&quot;&gt;case&lt;/span&gt;&lt;span style=&quot;color: #f7f1ff;&quot;&gt; HCI_SCO_DATA_PACKET&lt;/span&gt;&lt;span style=&quot;color: #8b888f;&quot;&gt;:&lt;/span&gt;&lt;/div&gt;&lt;div&gt;&lt;span style=&quot;color: #f7f1ff;&quot;&gt;&amp;nbsp; &amp;nbsp; &amp;nbsp; &amp;nbsp; &amp;nbsp; &amp;nbsp; &lt;/span&gt;&lt;span style=&quot;color: #fc618d;&quot;&gt;if&lt;/span&gt;&lt;span style=&quot;color: #f7f1ff;&quot;&gt; &lt;/span&gt;&lt;span style=&quot;color: #8b888f;&quot;&gt;(&lt;/span&gt;&lt;span style=&quot;color: #7bd88f;&quot;&gt;READ_SCO_CONNECTION_HANDLE&lt;/span&gt;&lt;span style=&quot;color: #8b888f;&quot;&gt;(&lt;/span&gt;&lt;span style=&quot;color: #f7f1ff;&quot;&gt;event&lt;/span&gt;&lt;span style=&quot;color: #8b888f;&quot;&gt;)&lt;/span&gt;&lt;span style=&quot;color: #f7f1ff;&quot;&gt; &lt;/span&gt;&lt;span style=&quot;color: #fc618d;&quot;&gt;!=&lt;/span&gt;&lt;span style=&quot;color: #f7f1ff;&quot;&gt; sco_handle&lt;/span&gt;&lt;span style=&quot;color: #8b888f;&quot;&gt;)&lt;/span&gt;&lt;span style=&quot;color: #f7f1ff;&quot;&gt; &lt;/span&gt;&lt;span style=&quot;color: #fc618d;&quot;&gt;break&lt;/span&gt;&lt;span style=&quot;color: #8b888f;&quot;&gt;;&lt;/span&gt;&lt;/div&gt;&lt;div&gt;&lt;span style=&quot;color: #f7f1ff;&quot;&gt;&amp;nbsp; &amp;nbsp; &amp;nbsp; &amp;nbsp; &amp;nbsp; &amp;nbsp; &lt;/span&gt;&lt;span style=&quot;color: #7bd88f;&quot;&gt;sco_receive&lt;/span&gt;&lt;span style=&quot;color: #8b888f;&quot;&gt;(&lt;/span&gt;&lt;span style=&quot;color: #f7f1ff;&quot;&gt;event&lt;/span&gt;&lt;span style=&quot;color: #8b888f;&quot;&gt;,&lt;/span&gt;&lt;span style=&quot;color: #f7f1ff;&quot;&gt; event_size&lt;/span&gt;&lt;span style=&quot;color: #8b888f;&quot;&gt;);&lt;/span&gt;&lt;/div&gt;&lt;/div&gt;" style="text;whiteSpace=wrap;html=1;fontSize=37;" parent="1" vertex="1">
                    <mxGeometry x="-1993.6" y="-1470" width="530" height="65" as="geometry"/>
                </mxCell>
                <mxCell id="76" style="edgeStyle=orthogonalEdgeStyle;html=1;strokeWidth=1;fontSize=37;exitX=0.839;exitY=0.438;exitDx=0;exitDy=0;exitPerimeter=0;" parent="1" source="64" edge="1">
                    <mxGeometry relative="1" as="geometry">
                        <mxPoint x="-1122.6" y="-1065" as="targetPoint"/>
                        <mxPoint x="-992.51" y="-1224.92" as="sourcePoint"/>
                        <Array as="points">
                            <mxPoint x="-932.5999999999999" y="-1225"/>
                            <mxPoint x="-932.5999999999999" y="-1110"/>
                            <mxPoint x="-1122.6" y="-1110"/>
                        </Array>
                    </mxGeometry>
                </mxCell>
                <mxCell id="87" style="edgeStyle=orthogonalEdgeStyle;html=1;exitX=0.733;exitY=0.8;exitDx=0;exitDy=0;strokeWidth=1;fontSize=37;exitPerimeter=0;" parent="1" source="84" edge="1">
                    <mxGeometry relative="1" as="geometry">
                        <mxPoint x="-1883.6" y="-1460" as="targetPoint"/>
                        <Array as="points"/>
                    </mxGeometry>
                </mxCell>
                <mxCell id="86" style="edgeStyle=orthogonalEdgeStyle;html=1;exitX=0.137;exitY=0.998;exitDx=0;exitDy=0;strokeWidth=1;fontSize=37;exitPerimeter=0;" parent="1" source="84" edge="1">
                    <mxGeometry relative="1" as="geometry">
                        <mxPoint x="-1973.6" y="-1460" as="targetPoint"/>
                        <Array as="points">
                            <mxPoint x="-1972.6" y="-1500"/>
                            <mxPoint x="-1973.6" y="-1500"/>
                        </Array>
                    </mxGeometry>
                </mxCell>
                <mxCell id="89" style="edgeStyle=orthogonalEdgeStyle;html=1;exitX=0.338;exitY=0.667;exitDx=0;exitDy=0;entryX=0.669;entryY=0.6;entryDx=0;entryDy=0;entryPerimeter=0;strokeWidth=1;fontSize=37;exitPerimeter=0;" parent="1" target="84" edge="1">
                    <mxGeometry relative="1" as="geometry">
                        <mxPoint x="-1838.7600000000002" y="-1579.9900000000007" as="sourcePoint"/>
                    </mxGeometry>
                </mxCell>
                <mxCell id="90" style="edgeStyle=orthogonalEdgeStyle;html=1;exitX=0.75;exitY=0.667;exitDx=0;exitDy=0;strokeWidth=1;fontSize=37;exitPerimeter=0;" parent="1" edge="1">
                    <mxGeometry relative="1" as="geometry">
                        <mxPoint x="-1813.6" y="-1420" as="targetPoint"/>
                        <Array as="points">
                            <mxPoint x="-1573.6" y="-1540"/>
                            <mxPoint x="-1813.6" y="-1540"/>
                        </Array>
                        <mxPoint x="-1558.6000000000004" y="-1579.9900000000007" as="sourcePoint"/>
                    </mxGeometry>
                </mxCell>
                <mxCell id="91" style="edgeStyle=orthogonalEdgeStyle;html=1;exitX=0.941;exitY=0.667;exitDx=0;exitDy=0;entryX=0.491;entryY=0.769;entryDx=0;entryDy=0;entryPerimeter=0;strokeWidth=1;fontSize=37;exitPerimeter=0;" parent="1" target="72" edge="1">
                    <mxGeometry relative="1" as="geometry">
                        <Array as="points">
                            <mxPoint x="-1443.6" y="-1500"/>
                            <mxPoint x="-1733.6" y="-1500"/>
                        </Array>
                        <mxPoint x="-1428.7200000000012" y="-1579.9900000000007" as="sourcePoint"/>
                    </mxGeometry>
                </mxCell>
                <mxCell id="88" value="&lt;div style=&quot;color: rgb(247, 241, 255); background-color: rgb(34, 34, 34); font-family: &amp;quot;Ubuntu Mono&amp;quot;, Consolas, &amp;quot;Courier New&amp;quot;, monospace; font-weight: normal; font-size: 14px; line-height: 19px;&quot;&gt;&lt;div&gt;&lt;span style=&quot;color: #5ad4e6;font-style: italic;&quot;&gt;void&lt;/span&gt;&lt;span style=&quot;color: #f7f1ff;&quot;&gt; &lt;/span&gt;&lt;span style=&quot;color: #7bd88f;&quot;&gt;packet_handler&lt;/span&gt;&lt;span style=&quot;color: #8b888f;&quot;&gt;(&lt;/span&gt;&lt;span style=&quot;color: #5ad4e6;font-style: italic;&quot;&gt;uint8_t&lt;/span&gt;&lt;span style=&quot;color: #f7f1ff;&quot;&gt; &lt;/span&gt;&lt;span style=&quot;color: #fd9353;font-style: italic;&quot;&gt;packet_type&lt;/span&gt;&lt;span style=&quot;color: #8b888f;&quot;&gt;,&lt;/span&gt;&lt;span style=&quot;color: #f7f1ff;&quot;&gt; &lt;/span&gt;&lt;span style=&quot;color: #5ad4e6;font-style: italic;&quot;&gt;uint16_t&lt;/span&gt;&lt;span style=&quot;color: #f7f1ff;&quot;&gt; &lt;/span&gt;&lt;span style=&quot;color: #fd9353;font-style: italic;&quot;&gt;channel&lt;/span&gt;&lt;span style=&quot;color: #8b888f;&quot;&gt;,&lt;/span&gt;&lt;span style=&quot;color: #f7f1ff;&quot;&gt; &lt;/span&gt;&lt;span style=&quot;color: #5ad4e6;font-style: italic;&quot;&gt;uint8_t&lt;/span&gt;&lt;span style=&quot;color: #f7f1ff;&quot;&gt; &lt;/span&gt;&lt;span style=&quot;color: #fc618d;&quot;&gt;*&lt;/span&gt;&lt;span style=&quot;color: #f7f1ff;&quot;&gt; &lt;/span&gt;&lt;span style=&quot;color: #fd9353;font-style: italic;&quot;&gt;event&lt;/span&gt;&lt;span style=&quot;color: #8b888f;&quot;&gt;,&lt;/span&gt;&lt;span style=&quot;color: #f7f1ff;&quot;&gt; &lt;/span&gt;&lt;span style=&quot;color: #5ad4e6;font-style: italic;&quot;&gt;uint16_t&lt;/span&gt;&lt;span style=&quot;color: #f7f1ff;&quot;&gt; &lt;/span&gt;&lt;span style=&quot;color: #fd9353;font-style: italic;&quot;&gt;event_size&lt;/span&gt;&lt;span style=&quot;color: #8b888f;&quot;&gt;)&lt;/span&gt;&lt;/div&gt;&lt;/div&gt;" style="text;whiteSpace=wrap;html=1;fontSize=37;" parent="1" vertex="1">
                    <mxGeometry x="-328.5999999999999" y="-1195" width="680" height="30" as="geometry"/>
                </mxCell>
                <mxCell id="96" style="edgeStyle=orthogonalEdgeStyle;html=1;exitX=1;exitY=0.25;exitDx=0;exitDy=0;strokeWidth=1;fontSize=37;entryX=0.125;entryY=0.667;entryDx=0;entryDy=0;entryPerimeter=0;" parent="1" source="94" target="88" edge="1">
                    <mxGeometry relative="1" as="geometry">
                        <mxPoint x="126.40000000000006" y="-1215" as="targetPoint"/>
                        <Array as="points">
                            <mxPoint x="-244.00000000000003" y="-1330"/>
                        </Array>
                    </mxGeometry>
                </mxCell>
                <mxCell id="99" style="edgeStyle=orthogonalEdgeStyle;html=1;entryX=0.5;entryY=0;entryDx=0;entryDy=0;" parent="1" source="97" target="98" edge="1">
                    <mxGeometry relative="1" as="geometry">
                        <mxPoint x="-1730" y="-1145" as="targetPoint"/>
                    </mxGeometry>
                </mxCell>
                <mxCell id="100" value="Приводит к" style="edgeLabel;html=1;align=center;verticalAlign=middle;resizable=0;points=[];" parent="99" vertex="1" connectable="0">
                    <mxGeometry x="-0.2952" y="-1" relative="1" as="geometry">
                        <mxPoint x="1" y="9" as="offset"/>
                    </mxGeometry>
                </mxCell>
                <mxCell id="97" value="&lt;div style=&quot;color: rgb(255, 241, 243); background-color: rgb(44, 37, 37); font-family: &amp;quot;Ubuntu Mono&amp;quot;, Consolas, &amp;quot;Courier New&amp;quot;, monospace; font-weight: normal; font-size: 14px; line-height: 19px;&quot;&gt;&lt;div&gt;&lt;span style=&quot;color: #fff1f3;&quot;&gt;&amp;nbsp; &amp;nbsp;&lt;/span&gt;&lt;span style=&quot;color: #fd6883;&quot;&gt;case&lt;/span&gt;&lt;span style=&quot;color: #fff1f3;&quot;&gt; &lt;/span&gt;&lt;span style=&quot;color: #948a8b;&quot;&gt;'&lt;/span&gt;&lt;span style=&quot;color: #f9cc6c;&quot;&gt;4&lt;/span&gt;&lt;span style=&quot;color: #948a8b;&quot;&gt;'&lt;/span&gt;&lt;span style=&quot;color: #948a8b;&quot;&gt;:&lt;/span&gt;&lt;/div&gt;&lt;div&gt;&lt;span style=&quot;color: #fff1f3;&quot;&gt;&amp;nbsp; &amp;nbsp; &amp;nbsp; &amp;nbsp; &amp;nbsp; &amp;nbsp; &lt;/span&gt;&lt;span style=&quot;color: #85dacc;&quot;&gt;log_info&lt;/span&gt;&lt;span style=&quot;color: #948a8b;&quot;&gt;(&lt;/span&gt;&lt;span style=&quot;color: #948a8b;&quot;&gt;&quot;&lt;/span&gt;&lt;span style=&quot;color: #f9cc6c;&quot;&gt;USER:&lt;/span&gt;&lt;span style=&quot;color: #a8a9eb;&quot;&gt;\'&lt;/span&gt;&lt;span style=&quot;color: #f38d70;&quot;&gt;%c&lt;/span&gt;&lt;span style=&quot;color: #a8a9eb;&quot;&gt;\'&lt;/span&gt;&lt;span style=&quot;color: #948a8b;&quot;&gt;&quot;&lt;/span&gt;&lt;span style=&quot;color: #948a8b;&quot;&gt;,&lt;/span&gt;&lt;span style=&quot;color: #fff1f3;&quot;&gt; &lt;/span&gt;&lt;span style=&quot;color: #f38d70;font-style: italic;&quot;&gt;cmd&lt;/span&gt;&lt;span style=&quot;color: #948a8b;&quot;&gt;);&lt;/span&gt;&lt;/div&gt;&lt;div&gt;&lt;span style=&quot;color: #fff1f3;&quot;&gt;&amp;nbsp; &amp;nbsp; &amp;nbsp; &amp;nbsp; &amp;nbsp; &amp;nbsp; &lt;/span&gt;&lt;span style=&quot;color: #adda78;&quot;&gt;printf&lt;/span&gt;&lt;span style=&quot;color: #948a8b;&quot;&gt;(&lt;/span&gt;&lt;span style=&quot;color: #948a8b;&quot;&gt;&quot;&lt;/span&gt;&lt;span style=&quot;color: #f9cc6c;&quot;&gt;Establish Audio connection &lt;/span&gt;&lt;span style=&quot;color: #f38d70;&quot;&gt;%s&lt;/span&gt;&lt;span style=&quot;color: #f9cc6c;&quot;&gt;...&lt;/span&gt;&lt;span style=&quot;color: #a8a9eb;&quot;&gt;\n&lt;/span&gt;&lt;span style=&quot;color: #948a8b;&quot;&gt;&quot;&lt;/span&gt;&lt;span style=&quot;color: #948a8b;&quot;&gt;,&lt;/span&gt;&lt;span style=&quot;color: #fff1f3;&quot;&gt; &lt;/span&gt;&lt;span style=&quot;color: #adda78;&quot;&gt;bd_addr_to_str&lt;/span&gt;&lt;span style=&quot;color: #948a8b;&quot;&gt;(&lt;/span&gt;&lt;span style=&quot;color: #fff1f3;&quot;&gt;device_addr&lt;/span&gt;&lt;span style=&quot;color: #948a8b;&quot;&gt;));&lt;/span&gt;&lt;/div&gt;&lt;div&gt;&lt;span style=&quot;color: #fff1f3;&quot;&gt;&amp;nbsp; &amp;nbsp; &amp;nbsp; &amp;nbsp; &amp;nbsp; &amp;nbsp; &lt;/span&gt;&lt;span style=&quot;color: #fff1f3;&quot;&gt;status&lt;/span&gt;&lt;span style=&quot;color: #fff1f3;&quot;&gt; &lt;/span&gt;&lt;span style=&quot;color: #fd6883;&quot;&gt;=&lt;/span&gt;&lt;span style=&quot;color: #fff1f3;&quot;&gt; &lt;/span&gt;&lt;span style=&quot;color: #adda78;&quot;&gt;hfp_ag_establish_audio_connection&lt;/span&gt;&lt;span style=&quot;color: #948a8b;&quot;&gt;(&lt;/span&gt;&lt;span style=&quot;color: #fff1f3;&quot;&gt;acl_handle&lt;/span&gt;&lt;span style=&quot;color: #948a8b;&quot;&gt;);&lt;/span&gt;&lt;/div&gt;&lt;div&gt;&lt;span style=&quot;color: #fff1f3;&quot;&gt;&amp;nbsp; &amp;nbsp; &amp;nbsp; &amp;nbsp; &amp;nbsp; &amp;nbsp; &lt;/span&gt;&lt;span style=&quot;color: #fd6883;&quot;&gt;break&lt;/span&gt;&lt;span style=&quot;color: #948a8b;&quot;&gt;;&lt;/span&gt;&lt;/div&gt;&lt;/div&gt;" style="text;whiteSpace=wrap;html=1;" parent="1" vertex="1">
                    <mxGeometry x="-2020" y="-1295" width="610" height="100" as="geometry"/>
                </mxCell>
                <mxCell id="102" style="edgeStyle=orthogonalEdgeStyle;html=1;" parent="1" source="98" target="101" edge="1">
                    <mxGeometry relative="1" as="geometry"/>
                </mxCell>
                <mxCell id="98" value="&lt;div style=&quot;color: rgb(255, 241, 243); background-color: rgb(44, 37, 37); font-family: &amp;quot;Ubuntu Mono&amp;quot;, Consolas, &amp;quot;Courier New&amp;quot;, monospace; font-weight: normal; font-size: 14px; line-height: 19px;&quot;&gt;&lt;div&gt;&lt;span style=&quot;color: #fff1f3;&quot;&gt;&amp;nbsp;&lt;/span&gt;&lt;span style=&quot;color: #fd6883;&quot;&gt;case&lt;/span&gt;&lt;span style=&quot;color: #fff1f3;&quot;&gt; &lt;/span&gt;&lt;span style=&quot;color: #85dacc;&quot;&gt;HFP_SUBEVENT_AUDIO_CONNECTION_ESTABLISHED&lt;/span&gt;&lt;span style=&quot;color: #948a8b;&quot;&gt;:&lt;/span&gt;&lt;/div&gt;&lt;/div&gt;" style="text;whiteSpace=wrap;html=1;" parent="1" vertex="1">
                    <mxGeometry x="-1885" y="-1135" width="340" height="30" as="geometry"/>
                </mxCell>
                <mxCell id="104" style="edgeStyle=orthogonalEdgeStyle;html=1;exitX=0.5;exitY=1;exitDx=0;exitDy=0;entryX=0.5;entryY=0;entryDx=0;entryDy=0;" parent="1" source="101" target="103" edge="1">
                    <mxGeometry relative="1" as="geometry"/>
                </mxCell>
                <mxCell id="106" style="edgeStyle=orthogonalEdgeStyle;html=1;exitX=0;exitY=0.25;exitDx=0;exitDy=0;entryX=0;entryY=0.25;entryDx=0;entryDy=0;" parent="1" source="101" target="105" edge="1">
                    <mxGeometry relative="1" as="geometry">
                        <Array as="points">
                            <mxPoint x="-1970" y="-1053"/>
                            <mxPoint x="-1970" y="-760"/>
                        </Array>
                    </mxGeometry>
                </mxCell>
                <mxCell id="101" value="&lt;div style=&quot;color: rgb(255, 241, 243); background-color: rgb(44, 37, 37); font-family: &amp;quot;Ubuntu Mono&amp;quot;, Consolas, &amp;quot;Courier New&amp;quot;, monospace; font-weight: normal; font-size: 14px; line-height: 19px;&quot;&gt;&lt;div&gt;&lt;span style=&quot;color: #adda78;&quot;&gt;sco_set_codec&lt;/span&gt;&lt;span style=&quot;color: #948a8b;&quot;&gt;(&lt;/span&gt;&lt;span style=&quot;color: #fff1f3;&quot;&gt;negotiated_codec&lt;/span&gt;&lt;span style=&quot;color: #948a8b;&quot;&gt;);&lt;/span&gt;&lt;/div&gt;&lt;div&gt;&lt;span style=&quot;color: #adda78;&quot;&gt;hci_request_sco_can_send_now_event&lt;/span&gt;&lt;span style=&quot;color: #948a8b;&quot;&gt;();&lt;/span&gt;&lt;/div&gt;&lt;/div&gt;" style="text;whiteSpace=wrap;html=1;" parent="1" vertex="1">
                    <mxGeometry x="-1845" y="-1065" width="260" height="50" as="geometry"/>
                </mxCell>
                <mxCell id="103" value="&lt;div style=&quot;color: rgb(255, 241, 243); background-color: rgb(44, 37, 37); font-family: &amp;quot;Ubuntu Mono&amp;quot;, Consolas, &amp;quot;Courier New&amp;quot;, monospace; font-weight: normal; font-size: 14px; line-height: 19px;&quot;&gt;&lt;div&gt;&lt;span style=&quot;color: #85dacc;font-style: italic;&quot;&gt;void&lt;/span&gt;&lt;span style=&quot;color: #fff1f3;&quot;&gt; &lt;/span&gt;&lt;span style=&quot;color: #adda78;&quot;&gt;hci_request_sco_can_send_now_event&lt;/span&gt;&lt;span style=&quot;color: #948a8b;&quot;&gt;(&lt;/span&gt;&lt;span style=&quot;color: #85dacc;font-style: italic;&quot;&gt;void&lt;/span&gt;&lt;span style=&quot;color: #948a8b;&quot;&gt;){&lt;/span&gt;&lt;/div&gt;&lt;div&gt;&lt;span style=&quot;color: #fff1f3;&quot;&gt;&amp;nbsp; &amp;nbsp; &lt;/span&gt;&lt;span style=&quot;color: #fff1f3;&quot;&gt;hci_stack&lt;/span&gt;&lt;span style=&quot;color: #948a8b;&quot;&gt;-&amp;gt;&lt;/span&gt;&lt;span style=&quot;color: #fff1f3;&quot;&gt;sco_waiting_for_can_send_now&lt;/span&gt;&lt;span style=&quot;color: #fff1f3;&quot;&gt; &lt;/span&gt;&lt;span style=&quot;color: #fd6883;&quot;&gt;=&lt;/span&gt;&lt;span style=&quot;color: #fff1f3;&quot;&gt; &lt;/span&gt;&lt;span style=&quot;color: #a8a9eb;&quot;&gt;1&lt;/span&gt;&lt;span style=&quot;color: #948a8b;&quot;&gt;;&lt;/span&gt;&lt;/div&gt;&lt;div&gt;&lt;span style=&quot;color: #fff1f3;&quot;&gt;&amp;nbsp; &amp;nbsp; &lt;/span&gt;&lt;span style=&quot;color: #adda78;&quot;&gt;hci_notify_if_sco_can_send_now&lt;/span&gt;&lt;span style=&quot;color: #948a8b;&quot;&gt;();&lt;/span&gt;&lt;/div&gt;&lt;div&gt;&lt;span style=&quot;color: #948a8b;&quot;&gt;}&lt;/span&gt;&lt;/div&gt;&lt;/div&gt;" style="text;whiteSpace=wrap;html=1;" parent="1" vertex="1">
                    <mxGeometry x="-1810" y="-985" width="340" height="80" as="geometry"/>
                </mxCell>
                <mxCell id="105" value="&lt;div style=&quot;color: rgb(255, 241, 243); background-color: rgb(44, 37, 37); font-family: &amp;quot;Ubuntu Mono&amp;quot;, Consolas, &amp;quot;Courier New&amp;quot;, monospace; font-weight: normal; font-size: 14px; line-height: 19px;&quot;&gt;&lt;div&gt;&lt;span style=&quot;color: #85dacc;font-style: italic;&quot;&gt;void&lt;/span&gt;&lt;span style=&quot;color: #fff1f3;&quot;&gt; &lt;/span&gt;&lt;span style=&quot;color: #adda78;&quot;&gt;sco_set_codec&lt;/span&gt;&lt;span style=&quot;color: #948a8b;&quot;&gt;(&lt;/span&gt;&lt;span style=&quot;color: #85dacc;font-style: italic;&quot;&gt;uint8_t&lt;/span&gt;&lt;span style=&quot;color: #fff1f3;&quot;&gt; &lt;/span&gt;&lt;span style=&quot;color: #f38d70;font-style: italic;&quot;&gt;negotiated_codec&lt;/span&gt;&lt;span style=&quot;color: #948a8b;&quot;&gt;)&lt;/span&gt;&lt;/div&gt;&lt;div&gt;&lt;span style=&quot;color: #948a8b;&quot;&gt;{&lt;/span&gt;&lt;/div&gt;&lt;div&gt;&lt;span style=&quot;color: #fff1f3;&quot;&gt;&amp;nbsp; &amp;nbsp; &lt;/span&gt;&lt;span style=&quot;color: #fd6883;&quot;&gt;switch&lt;/span&gt;&lt;span style=&quot;color: #fff1f3;&quot;&gt; &lt;/span&gt;&lt;span style=&quot;color: #948a8b;&quot;&gt;(&lt;/span&gt;&lt;span style=&quot;color: #f38d70;font-style: italic;&quot;&gt;negotiated_codec&lt;/span&gt;&lt;span style=&quot;color: #948a8b;&quot;&gt;){&lt;/span&gt;&lt;/div&gt;&lt;div&gt;&lt;span style=&quot;color: #fff1f3;&quot;&gt;&amp;nbsp; &amp;nbsp; &amp;nbsp; &amp;nbsp; &lt;/span&gt;&lt;span style=&quot;color: #fd6883;&quot;&gt;case&lt;/span&gt;&lt;span style=&quot;color: #fff1f3;&quot;&gt; &lt;/span&gt;&lt;span style=&quot;color: #85dacc;&quot;&gt;HFP_CODEC_CVSD&lt;/span&gt;&lt;span style=&quot;color: #948a8b;&quot;&gt;:&lt;/span&gt;&lt;/div&gt;&lt;div&gt;&lt;span style=&quot;color: #fff1f3;&quot;&gt;&amp;nbsp; &amp;nbsp; &amp;nbsp; &amp;nbsp; &amp;nbsp; &amp;nbsp; &lt;/span&gt;&lt;span style=&quot;color: #fff1f3;&quot;&gt;codec_current&lt;/span&gt;&lt;span style=&quot;color: #fff1f3;&quot;&gt; &lt;/span&gt;&lt;span style=&quot;color: #fd6883;&quot;&gt;=&lt;/span&gt;&lt;span style=&quot;color: #fff1f3;&quot;&gt; &lt;/span&gt;&lt;span style=&quot;color: #fd6883;&quot;&gt;&amp;amp;&lt;/span&gt;&lt;span style=&quot;color: #fff1f3;&quot;&gt;codec_cvsd&lt;/span&gt;&lt;span style=&quot;color: #948a8b;&quot;&gt;;&lt;/span&gt;&lt;/div&gt;&lt;div&gt;&lt;span style=&quot;color: #fff1f3;&quot;&gt;&amp;nbsp; &amp;nbsp; &amp;nbsp; &amp;nbsp; &amp;nbsp; &amp;nbsp; &lt;/span&gt;&lt;span style=&quot;color: #fd6883;&quot;&gt;break&lt;/span&gt;&lt;span style=&quot;color: #948a8b;&quot;&gt;;&lt;/span&gt;&lt;/div&gt;&lt;div&gt;&lt;span style=&quot;color: #fff1f3;&quot;&gt;&amp;nbsp; &amp;nbsp; &amp;nbsp; &amp;nbsp; &lt;/span&gt;&lt;span style=&quot;color: #fd6883;&quot;&gt;default&lt;/span&gt;&lt;span style=&quot;color: #948a8b;&quot;&gt;:&lt;/span&gt;&lt;/div&gt;&lt;div&gt;&lt;span style=&quot;color: #fff1f3;&quot;&gt;&amp;nbsp; &amp;nbsp; &amp;nbsp; &amp;nbsp; &amp;nbsp; &amp;nbsp; &lt;/span&gt;&lt;span style=&quot;color: #adda78;&quot;&gt;printf&lt;/span&gt;&lt;span style=&quot;color: #948a8b;&quot;&gt;(&lt;/span&gt;&lt;span style=&quot;color: #948a8b;&quot;&gt;&quot;&lt;/span&gt;&lt;span style=&quot;color: #f9cc6c;&quot;&gt;SCO_UTIL ERROR: CSVD CODEC NOT SET.&lt;/span&gt;&lt;span style=&quot;color: #948a8b;&quot;&gt;&quot;&lt;/span&gt;&lt;span style=&quot;color: #948a8b;&quot;&gt;);&lt;/span&gt;&lt;/div&gt;&lt;div&gt;&lt;span style=&quot;color: #fff1f3;&quot;&gt;&amp;nbsp; &amp;nbsp; &amp;nbsp; &amp;nbsp; &amp;nbsp; &amp;nbsp; &lt;/span&gt;&lt;span style=&quot;color: #85dacc;&quot;&gt;btstack_assert&lt;/span&gt;&lt;span style=&quot;color: #948a8b;&quot;&gt;(&lt;/span&gt;&lt;span style=&quot;color: #85dacc;&quot;&gt;false&lt;/span&gt;&lt;span style=&quot;color: #948a8b;&quot;&gt;);&lt;/span&gt;&lt;/div&gt;&lt;div&gt;&lt;span style=&quot;color: #fff1f3;&quot;&gt;&amp;nbsp; &amp;nbsp; &amp;nbsp; &amp;nbsp; &amp;nbsp; &amp;nbsp; &lt;/span&gt;&lt;span style=&quot;color: #fd6883;&quot;&gt;break&lt;/span&gt;&lt;span style=&quot;color: #948a8b;&quot;&gt;;&lt;/span&gt;&lt;/div&gt;&lt;div&gt;&lt;span style=&quot;color: #fff1f3;&quot;&gt;&amp;nbsp; &amp;nbsp; &lt;/span&gt;&lt;span style=&quot;color: #948a8b;&quot;&gt;}&lt;/span&gt;&lt;/div&gt;&lt;br&gt;&lt;div&gt;&lt;span style=&quot;color: #fff1f3;&quot;&gt;&amp;nbsp; &amp;nbsp; &lt;/span&gt;&lt;span style=&quot;color: #fff1f3;&quot;&gt;codec_current&lt;/span&gt;&lt;span style=&quot;color: #948a8b;&quot;&gt;-&amp;gt;&lt;/span&gt;&lt;span style=&quot;color: #fff1f3;&quot;&gt;init&lt;/span&gt;&lt;span style=&quot;color: #948a8b;&quot;&gt;();&lt;/span&gt;&lt;/div&gt;&lt;br&gt;&lt;div&gt;&lt;span style=&quot;color: #fff1f3;&quot;&gt;&amp;nbsp; &amp;nbsp; &lt;/span&gt;&lt;span style=&quot;color: #adda78;&quot;&gt;audio_initialize&lt;/span&gt;&lt;span style=&quot;color: #948a8b;&quot;&gt;(&lt;/span&gt;&lt;span style=&quot;color: #fff1f3;&quot;&gt;codec_current&lt;/span&gt;&lt;span style=&quot;color: #948a8b;&quot;&gt;-&amp;gt;&lt;/span&gt;&lt;span style=&quot;color: #fff1f3;&quot;&gt;sample_rate&lt;/span&gt;&lt;span style=&quot;color: #948a8b;&quot;&gt;);&lt;/span&gt;&lt;/div&gt;&lt;br&gt;&lt;div&gt;&lt;span style=&quot;color: #fff1f3;&quot;&gt;&amp;nbsp; &amp;nbsp; &lt;/span&gt;&lt;span style=&quot;color: #fff1f3;&quot;&gt;audio_prebuffer_bytes&lt;/span&gt;&lt;span style=&quot;color: #fff1f3;&quot;&gt; &lt;/span&gt;&lt;span style=&quot;color: #fd6883;&quot;&gt;=&lt;/span&gt;&lt;span style=&quot;color: #fff1f3;&quot;&gt; &lt;/span&gt;&lt;span style=&quot;color: #85dacc;&quot;&gt;SCO_PREBUFFER_MS&lt;/span&gt;&lt;span style=&quot;color: #fff1f3;&quot;&gt; &lt;/span&gt;&lt;span style=&quot;color: #fd6883;&quot;&gt;*&lt;/span&gt;&lt;span style=&quot;color: #fff1f3;&quot;&gt; &lt;/span&gt;&lt;span style=&quot;color: #948a8b;&quot;&gt;(&lt;/span&gt;&lt;span style=&quot;color: #fff1f3;&quot;&gt;codec_current&lt;/span&gt;&lt;span style=&quot;color: #948a8b;&quot;&gt;-&amp;gt;&lt;/span&gt;&lt;span style=&quot;color: #fff1f3;&quot;&gt;sample_rate&lt;/span&gt;&lt;span style=&quot;color: #fd6883;&quot;&gt;/&lt;/span&gt;&lt;span style=&quot;color: #a8a9eb;&quot;&gt;1000&lt;/span&gt;&lt;span style=&quot;color: #948a8b;&quot;&gt;)&lt;/span&gt;&lt;span style=&quot;color: #fff1f3;&quot;&gt; &lt;/span&gt;&lt;span style=&quot;color: #fd6883;&quot;&gt;*&lt;/span&gt;&lt;span style=&quot;color: #fff1f3;&quot;&gt; &lt;/span&gt;&lt;span style=&quot;color: #85dacc;&quot;&gt;BYTES_PER_FRAME&lt;/span&gt;&lt;span style=&quot;color: #948a8b;&quot;&gt;;&lt;/span&gt;&lt;/div&gt;&lt;div&gt;&lt;span style=&quot;color: #948a8b;&quot;&gt;}&lt;/span&gt;&lt;/div&gt;&lt;/div&gt;" style="text;whiteSpace=wrap;html=1;" parent="1" vertex="1">
                    <mxGeometry x="-1930" y="-855" width="370" height="380" as="geometry"/>
                </mxCell>
                <mxCell id="107" value="Establish Audio connection A1:2A:A9:B0:AD:31...&#10;[00:00:26.433] LOG -- hfp.c.262: HFP_TX&#10;+BCS:1&#10;&#10;&#10;[00:00:26.435] ACL =&gt; 81 00 13 00 0F 00 41 00 23 EF 14 00 0D 0A 2B 42 43 53 3A 31 0D 0A 5A&#10;[00:00:26.440] EVT &lt;= 6E 00&#10;[00:00:26.441] EVT &lt;= 79 02 42 00&#10;[00:00:26.442] EVT &lt;= 89 02 01 00 &#10;[00:00:26.450] EVT &lt;= 79 02 42 00&#10;[00:00:26.461] EVT &lt;= 13 05 01 81 00 01 00&#10;[00:00:26.464] ACL &lt;= 81 20 11 00 0D 00 42 00 21 EF 13 41 54 2B 42 43 53 3D 31 0D 80&#10;[00:00:26.468] LOG -- hfp.c.2106: HFP_AG_RX: 'AT+BCS=1\r'&#10;[00:00:26.469] LOG -- hfp.c.1380: command string 'AT+BCS=', handsfree 0 -&gt; cmd id 29&#10;[00:00:26.474] LOG -- hfp.c.1656: hfp parse HFP_CMD_HF_CONFIRMED_CODEC 1&#10;&#10;&#10;[00:00:26.476] LOG -- hfp_ag.c.649: hfp: codec confirmed: CVSD&#10;[00:00:26.484] LOG -- hfp.c.262: HFP_TX&#10;OK&#10;&#10;&#10;[00:00:26.486] ACL =&gt; 81 00 0F 00 0B 00 41 00 23 EF 0C 00 0D 0A 4F 4B 0D 0A 5A &#10;[00:00:26.495] LOG -- hfp.c.2079: hfp_init_link_settings: 5&#10;[00:00:26.504] EVT &lt;= 13 05 01 81 00 01 00&#10;[00:00:26.506] LOG -- hfp_ag.c.2302: hfp_ag_run_for_context: request can send for 0x01&#10;[00:00:26.514] EVT &lt;= 6E 00&#10;[00:00:26.515] EVT &lt;= 79 02 42 00&#10;[00:00:26.516] ACL =&gt; 81 00 09 00 05 00 41 00 23 FF 01 0A 46 &#10;[00:00:26.525] LOG -- hfp_ag.c.2302: hfp_ag_run_for_context: request can send for 0x01&#10;[00:00:26.535] EVT &lt;= 6E 00&#10;[00:00:26.536] EVT &lt;= 79 02 42 00&#10;[00:00:26.537] EVT &lt;= 89 02 01 00 &#10;[00:00:26.539] LOG -- hfp.c.1909: hfp_setup_synchronous_connection using setting nr 5&#10;[00:00:26.546] LOG -- hci.c.316: create_connection_for_addr A1:2A:A9:B0:AD:31, type fc&#10;[00:00:26.555] CMD =&gt; 28 04 11 81 00 40 1F 00 00 40 1F 00 00 0C 00 60 00 02 80 03&#10;[00:00:26.566] LOG -- hfp_ag.c.2302: hfp_ag_run_for_context: request can send for 0x01&#10;[00:00:26.568] EVT &lt;= 13 05 01 81 00 01 00 &#10;[00:00:26.576] LOG -- hfp_ag.c.2302: hfp_ag_run_for_context: request can send for 0x01&#10;[00:00:26.585] EVT &lt;= 0F 04 00 05 28 04&#10;[00:00:26.587] LOG -- hfp_ag.c.2302: hfp_ag_run_for_context: request can send for 0x01&#10;[00:00:26.596] EVT &lt;= 6E 00&#10;[00:00:26.596] EVT &lt;= 79 02 42 00&#10;[00:00:26.597] EVT &lt;= 89 02 01 00 &#10;[00:00:26.606] EVT &lt;= 79 02 42 00&#10;[00:00:26.607] CMD =&gt; 35 0C 05 01 81 00 01 00&#10;[00:00:26.608] EVT &lt;= 6E 00&#10;[00:00:26.635] EVT &lt;= 2C 11 00 81 01 31 AD B0 A9 2A A1 02 0C 02 3C 00 3C 00 02 &#10;[00:00:26.639] LOG -- hci.c.3614: Synchronous Connection Complete for 0x3ffd47d0 (status=0) A1:2A:A9:B0:AD:31[00:00:26.642] LOG -- hfp.c.941: eSCO Connection established.&#10;&#10;&#10;[00:00:26.645] LOG -- hfp.c.951: sco_handle 0x181, address A1:2A:A9:B0:AD:31, transmission_interval 12 slots, retransmission_interval 2 slots,  rx_packet_length 60 bytes, tx_packet_length 60 bytes, air_mode 0x 2 (0x02 &#10;== CVSD)&#10;&#10;&#10;Audio connection established with SCO handle 0x0181.&#10;Using CVSD codec.&#10;SCO Demo: Init CVSD&#10;[00:00:26.675] LOG -- ./components/audio_driver/audio_driver.c.232: i2s init mode 0x05, samplerate 8000, samples per DMA buffer: 80&#10;I (26685) I2S: queue free spaces: 2&#10;I (26687) I2S: APLL expected frequency is 6144000 Hz, real frequency is 6143998 Hz&#10;I (26695) I2S: DMA Malloc info, datalen=blocksize=320, dma_buf_count=2&#10;I (26705) I2S: I2S0, MCLK output by GPIO0&#10;[00:00:26.707] LOG -- ./components/audio_driver/audio_driver.c.142: i2s stream start&#10;I (26716) I2S: DMA queue destroyed&#10;[00:00:26.717] LOG -- ./components/audio_driver/audio_driver.c.232: i2s init mode 0x0d, samplerate 8000, samples per DMA buffer: 80&#10;I (26727) I2S: queue free spaces: 2&#10;I (26736) I2S: APLL expected frequency is 6144000 Hz, real frequency is 6143998 Hz&#10;I (26745) I2S: DMA Malloc info, datalen=blocksize=320, dma_buf_count=2&#10;I (26747) I2S: DMA Malloc info, datalen=blocksize=320, dma_buf_count=2&#10;I (26756) I2S: I2S0, MCLK output by GPIO0&#10;[00:00:26.766] EVT &lt;= 6F 00" style="text;whiteSpace=wrap;html=1;" parent="1" vertex="1">
                    <mxGeometry x="-3120" y="-1790" width="520" height="1130" as="geometry"/>
                </mxCell>
                <mxCell id="115" value="hfp_ag_register не имеет случает для эммитирования HCI_SCO_DATA_PACKET" style="text;html=1;align=center;verticalAlign=middle;resizable=0;points=[];autosize=1;strokeColor=none;fillColor=none;" parent="1" vertex="1">
                    <mxGeometry x="-722.5" y="-1395" width="470" height="30" as="geometry"/>
                </mxCell>
                <mxCell id="122" value="что передают в sco_packet_handler, тот пакет и передается" style="text;html=1;align=center;verticalAlign=middle;resizable=0;points=[];autosize=1;strokeColor=none;fillColor=none;" parent="1" vertex="1">
                    <mxGeometry x="-635" y="-1425" width="350" height="30" as="geometry"/>
                </mxCell>
                <mxCell id="123" value="&lt;div style=&quot;color: rgb(255, 241, 243); background-color: rgb(44, 37, 37); font-family: &amp;quot;Ubuntu Mono&amp;quot;, Consolas, &amp;quot;Courier New&amp;quot;, monospace; font-weight: normal; font-size: 14px; line-height: 19px;&quot;&gt;&lt;div&gt;&lt;span style=&quot;color: rgb(253, 104, 131); font-style: italic;&quot;&gt;static&lt;/span&gt;&amp;nbsp;&lt;span style=&quot;color: rgb(133, 218, 204); font-style: italic;&quot;&gt;void&lt;/span&gt;&amp;nbsp;&lt;span style=&quot;color: rgb(173, 218, 120);&quot;&gt;sco_handler&lt;/span&gt;&lt;span style=&quot;color: rgb(148, 138, 139);&quot;&gt;(&lt;/span&gt;&lt;span style=&quot;color: rgb(133, 218, 204); font-style: italic;&quot;&gt;uint8_t&lt;/span&gt;&amp;nbsp;&lt;span style=&quot;color: rgb(253, 104, 131);&quot;&gt;*&lt;/span&gt;&amp;nbsp;&lt;span style=&quot;color: rgb(243, 141, 112); font-style: italic;&quot;&gt;packet&lt;/span&gt;&lt;span style=&quot;color: rgb(148, 138, 139);&quot;&gt;,&lt;/span&gt;&amp;nbsp;&lt;span style=&quot;color: rgb(133, 218, 204); font-style: italic;&quot;&gt;uint16_t&lt;/span&gt;&amp;nbsp;&lt;span style=&quot;color: rgb(243, 141, 112); font-style: italic;&quot;&gt;size&lt;/span&gt;&lt;span style=&quot;color: rgb(148, 138, 139);&quot;&gt;){&lt;/span&gt;&lt;/div&gt;&lt;div&gt;&lt;span style=&quot;color: rgb(148, 138, 139);&quot;&gt;&amp;nbsp; &amp;nbsp;&amp;nbsp;&lt;/span&gt;&lt;span style=&quot;color: rgb(114, 105, 106); font-style: italic;&quot;&gt;// deliver to app&lt;/span&gt;&lt;/div&gt;&lt;div&gt;&amp;nbsp; &amp;nbsp;&amp;nbsp;&lt;span style=&quot;color: rgb(253, 104, 131);&quot;&gt;if&lt;/span&gt;&amp;nbsp;&lt;span style=&quot;color: rgb(148, 138, 139);&quot;&gt;(&lt;/span&gt;hci_stack&lt;span style=&quot;color: rgb(148, 138, 139);&quot;&gt;-&amp;gt;&lt;/span&gt;sco_packet_handler&lt;span style=&quot;color: rgb(148, 138, 139);&quot;&gt;)&lt;/span&gt;&amp;nbsp;&lt;span style=&quot;color: rgb(148, 138, 139);&quot;&gt;{&lt;/span&gt;&lt;/div&gt;&lt;div&gt;&amp;nbsp; &amp;nbsp; &amp;nbsp; &amp;nbsp;&amp;nbsp;hci_stack&lt;span style=&quot;color: rgb(148, 138, 139);&quot;&gt;-&amp;gt;&lt;/span&gt;sco_packet_handler&lt;span style=&quot;color: rgb(148, 138, 139);&quot;&gt;(&lt;/span&gt;&lt;span style=&quot;color: rgb(133, 218, 204);&quot;&gt;HCI_SCO_DATA_PACKET&lt;/span&gt;&lt;span style=&quot;color: rgb(148, 138, 139);&quot;&gt;,&lt;/span&gt;&amp;nbsp;&lt;span style=&quot;color: rgb(168, 169, 235);&quot;&gt;0&lt;/span&gt;&lt;span style=&quot;color: rgb(148, 138, 139);&quot;&gt;,&lt;/span&gt;&amp;nbsp;&lt;span style=&quot;color: rgb(243, 141, 112); font-style: italic;&quot;&gt;packet&lt;/span&gt;&lt;span style=&quot;color: rgb(148, 138, 139);&quot;&gt;,&lt;/span&gt;&amp;nbsp;&lt;span style=&quot;color: rgb(243, 141, 112); font-style: italic;&quot;&gt;size&lt;/span&gt;&lt;span style=&quot;color: rgb(148, 138, 139);&quot;&gt;);&lt;/span&gt;&lt;/div&gt;&lt;div&gt;&amp;nbsp; &amp;nbsp;&amp;nbsp;&lt;span style=&quot;color: rgb(148, 138, 139);&quot;&gt;}&lt;/span&gt;&amp;nbsp; &amp;nbsp;&lt;/div&gt;&lt;div&gt;&lt;span style=&quot;color: rgb(148, 138, 139);&quot;&gt;}&lt;/span&gt;&lt;/div&gt;&lt;/div&gt;" style="text;whiteSpace=wrap;html=1;" parent="1" vertex="1">
                    <mxGeometry x="-170.00000000000003" y="-1540" width="540" height="120" as="geometry"/>
                </mxCell>
                <mxCell id="124" style="edgeStyle=orthogonalEdgeStyle;html=1;entryX=0.351;entryY=0.167;entryDx=0;entryDy=0;entryPerimeter=0;strokeWidth=3;" parent="1" target="88" edge="1">
                    <mxGeometry relative="1" as="geometry">
                        <mxPoint x="149.99999999999997" y="-1450" as="sourcePoint"/>
                        <Array as="points">
                            <mxPoint x="149.99999999999997" y="-1370"/>
                            <mxPoint x="-90.00000000000003" y="-1370"/>
                        </Array>
                    </mxGeometry>
                </mxCell>
                <mxCell id="128" value="&lt;div style=&quot;color: rgb(255, 241, 243); background-color: rgb(44, 37, 37); font-family: &amp;quot;Ubuntu Mono&amp;quot;, Consolas, &amp;quot;Courier New&amp;quot;, monospace; font-weight: normal; font-size: 14px; line-height: 19px;&quot;&gt;&lt;div&gt;&lt;span style=&quot;color: #fd6883;font-style: italic;&quot;&gt;static&lt;/span&gt;&lt;span style=&quot;color: #fff1f3;&quot;&gt; &lt;/span&gt;&lt;span style=&quot;color: #85dacc;font-style: italic;&quot;&gt;void&lt;/span&gt;&lt;span style=&quot;color: #fff1f3;&quot;&gt; &lt;/span&gt;&lt;span style=&quot;color: #adda78;&quot;&gt;packet_handler&lt;/span&gt;&lt;span style=&quot;color: #948a8b;&quot;&gt;(&lt;/span&gt;&lt;span style=&quot;color: #85dacc;font-style: italic;&quot;&gt;uint8_t&lt;/span&gt;&lt;span style=&quot;color: #fff1f3;&quot;&gt; &lt;/span&gt;&lt;span style=&quot;color: #f38d70;font-style: italic;&quot;&gt;packet_type&lt;/span&gt;&lt;span style=&quot;color: #948a8b;&quot;&gt;,&lt;/span&gt;&lt;span style=&quot;color: #fff1f3;&quot;&gt; &lt;/span&gt;&lt;span style=&quot;color: #85dacc;font-style: italic;&quot;&gt;uint8_t&lt;/span&gt;&lt;span style=&quot;color: #fff1f3;&quot;&gt; &lt;/span&gt;&lt;span style=&quot;color: #fd6883;&quot;&gt;*&lt;/span&gt;&lt;span style=&quot;color: #f38d70;font-style: italic;&quot;&gt;packet&lt;/span&gt;&lt;span style=&quot;color: #948a8b;&quot;&gt;,&lt;/span&gt;&lt;span style=&quot;color: #fff1f3;&quot;&gt; &lt;/span&gt;&lt;span style=&quot;color: #85dacc;font-style: italic;&quot;&gt;uint16_t&lt;/span&gt;&lt;span style=&quot;color: #fff1f3;&quot;&gt; &lt;/span&gt;&lt;span style=&quot;color: #f38d70;font-style: italic;&quot;&gt;size&lt;/span&gt;&lt;span style=&quot;color: #948a8b;&quot;&gt;){&lt;/span&gt;&lt;/div&gt;&lt;div&gt;&lt;span style=&quot;color: #fff1f3;&quot;&gt;&amp;nbsp; &amp;nbsp; &lt;/span&gt;&lt;span style=&quot;color: #adda78;&quot;&gt;hci_dump_packet&lt;/span&gt;&lt;span style=&quot;color: #948a8b;&quot;&gt;(&lt;/span&gt;&lt;span style=&quot;color: #f38d70;font-style: italic;&quot;&gt;packet_type&lt;/span&gt;&lt;span style=&quot;color: #948a8b;&quot;&gt;,&lt;/span&gt;&lt;span style=&quot;color: #fff1f3;&quot;&gt; &lt;/span&gt;&lt;span style=&quot;color: #a8a9eb;&quot;&gt;1&lt;/span&gt;&lt;span style=&quot;color: #948a8b;&quot;&gt;,&lt;/span&gt;&lt;span style=&quot;color: #fff1f3;&quot;&gt; &lt;/span&gt;&lt;span style=&quot;color: #f38d70;font-style: italic;&quot;&gt;packet&lt;/span&gt;&lt;span style=&quot;color: #948a8b;&quot;&gt;,&lt;/span&gt;&lt;span style=&quot;color: #fff1f3;&quot;&gt; &lt;/span&gt;&lt;span style=&quot;color: #f38d70;font-style: italic;&quot;&gt;size&lt;/span&gt;&lt;span style=&quot;color: #948a8b;&quot;&gt;);&lt;/span&gt;&lt;/div&gt;&lt;div&gt;&lt;span style=&quot;color: #fff1f3;&quot;&gt;&amp;nbsp; &amp;nbsp; &lt;/span&gt;&lt;span style=&quot;color: #fd6883;&quot;&gt;switch&lt;/span&gt;&lt;span style=&quot;color: #fff1f3;&quot;&gt; &lt;/span&gt;&lt;span style=&quot;color: #948a8b;&quot;&gt;(&lt;/span&gt;&lt;span style=&quot;color: #f38d70;font-style: italic;&quot;&gt;packet_type&lt;/span&gt;&lt;span style=&quot;color: #948a8b;&quot;&gt;)&lt;/span&gt;&lt;span style=&quot;color: #fff1f3;&quot;&gt; &lt;/span&gt;&lt;span style=&quot;color: #948a8b;&quot;&gt;{&lt;/span&gt;&lt;/div&gt;&lt;div&gt;&lt;span style=&quot;color: #fff1f3;&quot;&gt;&amp;nbsp; &amp;nbsp; &amp;nbsp; &amp;nbsp; &lt;/span&gt;&lt;span style=&quot;color: #fd6883;&quot;&gt;case&lt;/span&gt;&lt;span style=&quot;color: #fff1f3;&quot;&gt; &lt;/span&gt;&lt;span style=&quot;color: #85dacc;&quot;&gt;HCI_EVENT_PACKET&lt;/span&gt;&lt;span style=&quot;color: #948a8b;&quot;&gt;:&lt;/span&gt;&lt;/div&gt;&lt;div&gt;&lt;span style=&quot;color: #fff1f3;&quot;&gt;&amp;nbsp; &amp;nbsp; &amp;nbsp; &amp;nbsp; &amp;nbsp; &amp;nbsp; &lt;/span&gt;&lt;span style=&quot;color: #adda78;&quot;&gt;event_handler&lt;/span&gt;&lt;span style=&quot;color: #948a8b;&quot;&gt;(&lt;/span&gt;&lt;span style=&quot;color: #f38d70;font-style: italic;&quot;&gt;packet&lt;/span&gt;&lt;span style=&quot;color: #948a8b;&quot;&gt;,&lt;/span&gt;&lt;span style=&quot;color: #fff1f3;&quot;&gt; &lt;/span&gt;&lt;span style=&quot;color: #f38d70;font-style: italic;&quot;&gt;size&lt;/span&gt;&lt;span style=&quot;color: #948a8b;&quot;&gt;);&lt;/span&gt;&lt;/div&gt;&lt;div&gt;&lt;span style=&quot;color: #fff1f3;&quot;&gt;&amp;nbsp; &amp;nbsp; &amp;nbsp; &amp;nbsp; &amp;nbsp; &amp;nbsp; &lt;/span&gt;&lt;span style=&quot;color: #fd6883;&quot;&gt;break&lt;/span&gt;&lt;span style=&quot;color: #948a8b;&quot;&gt;;&lt;/span&gt;&lt;/div&gt;&lt;div&gt;&lt;span style=&quot;color: #fff1f3;&quot;&gt;&amp;nbsp; &amp;nbsp; &amp;nbsp; &amp;nbsp; &lt;/span&gt;&lt;span style=&quot;color: #fd6883;&quot;&gt;case&lt;/span&gt;&lt;span style=&quot;color: #fff1f3;&quot;&gt; &lt;/span&gt;&lt;span style=&quot;color: #85dacc;&quot;&gt;HCI_ACL_DATA_PACKET&lt;/span&gt;&lt;span style=&quot;color: #948a8b;&quot;&gt;:&lt;/span&gt;&lt;/div&gt;&lt;div&gt;&lt;span style=&quot;color: #fff1f3;&quot;&gt;&amp;nbsp; &amp;nbsp; &amp;nbsp; &amp;nbsp; &amp;nbsp; &amp;nbsp; &lt;/span&gt;&lt;span style=&quot;color: #adda78;&quot;&gt;acl_handler&lt;/span&gt;&lt;span style=&quot;color: #948a8b;&quot;&gt;(&lt;/span&gt;&lt;span style=&quot;color: #f38d70;font-style: italic;&quot;&gt;packet&lt;/span&gt;&lt;span style=&quot;color: #948a8b;&quot;&gt;,&lt;/span&gt;&lt;span style=&quot;color: #fff1f3;&quot;&gt; &lt;/span&gt;&lt;span style=&quot;color: #f38d70;font-style: italic;&quot;&gt;size&lt;/span&gt;&lt;span style=&quot;color: #948a8b;&quot;&gt;);&lt;/span&gt;&lt;/div&gt;&lt;div&gt;&lt;span style=&quot;color: #fff1f3;&quot;&gt;&amp;nbsp; &amp;nbsp; &amp;nbsp; &amp;nbsp; &amp;nbsp; &amp;nbsp; &lt;/span&gt;&lt;span style=&quot;color: #fd6883;&quot;&gt;break&lt;/span&gt;&lt;span style=&quot;color: #948a8b;&quot;&gt;;&lt;/span&gt;&lt;/div&gt;&lt;div&gt;&lt;span style=&quot;color: #948a8b;&quot;&gt;#&lt;/span&gt;&lt;span style=&quot;color: #fd6883;&quot;&gt;ifdef&lt;/span&gt;&lt;span style=&quot;color: #a8a9eb;&quot;&gt; &lt;/span&gt;&lt;span style=&quot;color: #85dacc;&quot;&gt;ENABLE_CLASSIC&lt;/span&gt;&lt;/div&gt;&lt;div&gt;&lt;span style=&quot;color: #fff1f3;&quot;&gt;&amp;nbsp; &amp;nbsp; &amp;nbsp; &amp;nbsp; case &lt;/span&gt;&lt;span style=&quot;color: #85dacc;&quot;&gt;HCI_SCO_DATA_PACKET&lt;/span&gt;&lt;span style=&quot;color: #fff1f3;&quot;&gt;:&lt;/span&gt;&lt;/div&gt;&lt;div&gt;&lt;span style=&quot;color: #fff1f3;&quot;&gt;&amp;nbsp; &amp;nbsp; &amp;nbsp; &amp;nbsp; &amp;nbsp; &amp;nbsp; &lt;/span&gt;&lt;span style=&quot;color: #adda78;&quot;&gt;sco_handler&lt;/span&gt;&lt;span style=&quot;color: #948a8b;&quot;&gt;(&lt;/span&gt;&lt;span style=&quot;color: #f38d70;font-style: italic;&quot;&gt;packet&lt;/span&gt;&lt;span style=&quot;color: #948a8b;&quot;&gt;,&lt;/span&gt;&lt;span style=&quot;color: #fff1f3;&quot;&gt; &lt;/span&gt;&lt;span style=&quot;color: #f38d70;font-style: italic;&quot;&gt;size&lt;/span&gt;&lt;span style=&quot;color: #948a8b;&quot;&gt;);&lt;/span&gt;&lt;/div&gt;&lt;div&gt;&lt;span style=&quot;color: #fff1f3;&quot;&gt;&amp;nbsp; &amp;nbsp; &amp;nbsp; &amp;nbsp; &amp;nbsp; &amp;nbsp; &lt;/span&gt;&lt;span style=&quot;color: #fd6883;&quot;&gt;break&lt;/span&gt;&lt;span style=&quot;color: #948a8b;&quot;&gt;;&lt;/span&gt;&lt;/div&gt;&lt;div&gt;&lt;span style=&quot;color: #948a8b;&quot;&gt;#&lt;/span&gt;&lt;span style=&quot;color: #fd6883;&quot;&gt;endif&lt;/span&gt;&lt;/div&gt;&lt;/div&gt;" style="text;whiteSpace=wrap;html=1;" parent="1" vertex="1">
                    <mxGeometry x="-180.00000000000003" y="-1880" width="560" height="290" as="geometry"/>
                </mxCell>
                <mxCell id="129" style="edgeStyle=orthogonalEdgeStyle;html=1;exitX=0.25;exitY=0.862;exitDx=0;exitDy=0;strokeWidth=2;exitPerimeter=0;" parent="1" source="128" edge="1">
                    <mxGeometry relative="1" as="geometry">
                        <mxPoint x="-40.00000000000003" y="-1530" as="targetPoint"/>
                        <Array as="points">
                            <mxPoint x="-40.00000000000003" y="-1630"/>
                        </Array>
                    </mxGeometry>
                </mxCell>
                <mxCell id="130" value="&lt;div style=&quot;color: rgb(255, 241, 243); background-color: rgb(44, 37, 37); font-family: &amp;quot;Ubuntu Mono&amp;quot;, Consolas, &amp;quot;Courier New&amp;quot;, monospace; font-weight: normal; font-size: 14px; line-height: 19px;&quot;&gt;&lt;div&gt;&lt;span style=&quot;color: #f38d70;font-style: italic;&quot;&gt;transport&lt;/span&gt;&lt;span style=&quot;color: #948a8b;&quot;&gt;-&amp;gt;&lt;/span&gt;&lt;span style=&quot;color: #fff1f3;&quot;&gt;register_packet_handler&lt;/span&gt;&lt;span style=&quot;color: #948a8b;&quot;&gt;(&lt;/span&gt;&lt;span style=&quot;color: #fd6883;&quot;&gt;&amp;amp;&lt;/span&gt;&lt;span style=&quot;color: #adda78;&quot;&gt;packet_handler&lt;/span&gt;&lt;span style=&quot;color: #948a8b;&quot;&gt;);&lt;/span&gt;&lt;/div&gt;&lt;/div&gt;" style="text;whiteSpace=wrap;html=1;" parent="1" vertex="1">
                    <mxGeometry x="-170.00000000000003" y="-1940" width="400" height="30" as="geometry"/>
                </mxCell>
                <mxCell id="133" style="edgeStyle=orthogonalEdgeStyle;html=1;exitX=0.5;exitY=1;exitDx=0;exitDy=0;strokeWidth=2;" parent="1" source="131" edge="1">
                    <mxGeometry relative="1" as="geometry">
                        <mxPoint x="-130.00000000000003" y="-1930" as="targetPoint"/>
                    </mxGeometry>
                </mxCell>
                <mxCell id="131" value="&lt;div style=&quot;color: rgb(255, 241, 243); background-color: rgb(44, 37, 37); font-family: &amp;quot;Ubuntu Mono&amp;quot;, Consolas, &amp;quot;Courier New&amp;quot;, monospace; font-weight: normal; font-size: 14px; line-height: 19px;&quot;&gt;&lt;div&gt;&lt;span style=&quot;color: #fff1f3;&quot;&gt;&amp;nbsp;&lt;/span&gt;&lt;span style=&quot;color: #adda78;&quot;&gt;hci_init&lt;/span&gt;&lt;span style=&quot;color: #948a8b;&quot;&gt;(&lt;/span&gt;&lt;span style=&quot;color: #adda78;&quot;&gt;transport_get_instance&lt;/span&gt;&lt;span style=&quot;color: #948a8b;&quot;&gt;(),&lt;/span&gt;&lt;span style=&quot;color: #fff1f3;&quot;&gt; &lt;/span&gt;&lt;span style=&quot;color: #a8a9eb;&quot;&gt;NULL&lt;/span&gt;&lt;span style=&quot;color: #948a8b;&quot;&gt;);&lt;/span&gt;&lt;/div&gt;&lt;/div&gt;" style="text;whiteSpace=wrap;html=1;" parent="1" vertex="1">
                    <mxGeometry x="-170.00000000000003" y="-2000" width="300" height="20" as="geometry"/>
                </mxCell>
                <mxCell id="134" style="edgeStyle=orthogonalEdgeStyle;html=1;exitX=0.25;exitY=0;exitDx=0;exitDy=0;entryX=0.75;entryY=0.667;entryDx=0;entryDy=0;entryPerimeter=0;" parent="1" source="128" target="130" edge="1">
                    <mxGeometry relative="1" as="geometry">
                        <mxPoint x="129.99999999999997" y="-1910" as="targetPoint"/>
                        <Array as="points">
                            <mxPoint x="-40.00000000000003" y="-1900"/>
                            <mxPoint x="129.99999999999997" y="-1900"/>
                        </Array>
                    </mxGeometry>
                </mxCell>
                <mxCell id="135" value="&lt;div style=&quot;color: rgb(255, 241, 243); background-color: rgb(44, 37, 37); font-family: &amp;quot;Ubuntu Mono&amp;quot;, Consolas, &amp;quot;Courier New&amp;quot;, monospace; font-weight: normal; font-size: 14px; line-height: 19px;&quot;&gt;&lt;div&gt;&lt;span style=&quot;color: #fd6883;font-style: italic;&quot;&gt;static&lt;/span&gt;&lt;span style=&quot;color: #fff1f3;&quot;&gt; &lt;/span&gt;&lt;span style=&quot;color: #fd6883;font-style: italic;&quot;&gt;const&lt;/span&gt;&lt;span style=&quot;color: #fff1f3;&quot;&gt; &lt;/span&gt;&lt;span style=&quot;color: #85dacc;font-style: italic;&quot;&gt;hci_transport_t&lt;/span&gt;&lt;span style=&quot;color: #fff1f3;&quot;&gt; &lt;/span&gt;&lt;span style=&quot;color: #fd6883;&quot;&gt;*&lt;/span&gt;&lt;span style=&quot;color: #fff1f3;&quot;&gt; &lt;/span&gt;&lt;span style=&quot;color: #adda78;&quot;&gt;transport_get_instance&lt;/span&gt;&lt;span style=&quot;color: #948a8b;&quot;&gt;(&lt;/span&gt;&lt;span style=&quot;color: #85dacc;font-style: italic;&quot;&gt;void&lt;/span&gt;&lt;span style=&quot;color: #948a8b;&quot;&gt;){&lt;/span&gt;&lt;/div&gt;&lt;div&gt;&lt;span style=&quot;color: #fff1f3;&quot;&gt;&amp;nbsp; &amp;nbsp; &lt;/span&gt;&lt;span style=&quot;color: #fd6883;&quot;&gt;return&lt;/span&gt;&lt;span style=&quot;color: #fff1f3;&quot;&gt; &lt;/span&gt;&lt;span style=&quot;color: #fd6883;&quot;&gt;&amp;amp;&lt;/span&gt;&lt;span style=&quot;color: #fff1f3;&quot;&gt;transport&lt;/span&gt;&lt;span style=&quot;color: #948a8b;&quot;&gt;;&lt;/span&gt;&lt;span style=&quot;color: rgb(148, 138, 139);&quot;&gt;}&lt;/span&gt;&lt;/div&gt;&lt;/div&gt;" style="text;whiteSpace=wrap;html=1;" parent="1" vertex="1">
                    <mxGeometry x="-173.60000000000005" y="-2100" width="423.6" height="40" as="geometry"/>
                </mxCell>
                <mxCell id="137" style="edgeStyle=orthogonalEdgeStyle;html=1;exitX=0.5;exitY=0;exitDx=0;exitDy=0;" parent="1" source="131" edge="1">
                    <mxGeometry relative="1" as="geometry">
                        <mxPoint x="149.99999999999997" y="-2090" as="targetPoint"/>
                        <Array as="points">
                            <mxPoint x="-20.00000000000003" y="-2020"/>
                            <mxPoint x="-230.00000000000003" y="-2020"/>
                            <mxPoint x="-230.00000000000003" y="-2120"/>
                            <mxPoint x="149.99999999999997" y="-2120"/>
                        </Array>
                    </mxGeometry>
                </mxCell>
                <mxCell id="138" value="&lt;div style=&quot;color: rgb(255, 241, 243); background-color: rgb(44, 37, 37); font-family: &amp;quot;Ubuntu Mono&amp;quot;, Consolas, &amp;quot;Courier New&amp;quot;, monospace; font-weight: normal; font-size: 14px; line-height: 19px;&quot;&gt;&lt;div&gt;&lt;span style=&quot;color: #fd6883;font-style: italic;&quot;&gt;static&lt;/span&gt;&lt;span style=&quot;color: #fff1f3;&quot;&gt; &lt;/span&gt;&lt;span style=&quot;color: #fd6883;font-style: italic;&quot;&gt;const&lt;/span&gt;&lt;span style=&quot;color: #fff1f3;&quot;&gt; &lt;/span&gt;&lt;span style=&quot;color: #85dacc;font-style: italic;&quot;&gt;hci_transport_t&lt;/span&gt;&lt;span style=&quot;color: #fff1f3;&quot;&gt; transport &lt;/span&gt;&lt;span style=&quot;color: #fd6883;&quot;&gt;=&lt;/span&gt;&lt;span style=&quot;color: #fff1f3;&quot;&gt; &lt;/span&gt;&lt;span style=&quot;color: #948a8b;&quot;&gt;{&lt;/span&gt;&lt;/div&gt;&lt;div&gt;&lt;span style=&quot;color: #fff1f3;&quot;&gt;&amp;nbsp; &amp;nbsp; &lt;/span&gt;&lt;span style=&quot;color: #948a8b;&quot;&gt;&quot;&lt;/span&gt;&lt;span style=&quot;color: #f9cc6c;&quot;&gt;esp32-vhci&lt;/span&gt;&lt;span style=&quot;color: #948a8b;&quot;&gt;&quot;&lt;/span&gt;&lt;span style=&quot;color: #948a8b;&quot;&gt;,&lt;/span&gt;&lt;/div&gt;&lt;div&gt;&lt;span style=&quot;color: #fff1f3;&quot;&gt;&amp;nbsp; &amp;nbsp; &lt;/span&gt;&lt;span style=&quot;color: #fd6883;&quot;&gt;&amp;amp;&lt;/span&gt;&lt;span style=&quot;color: #fff1f3;&quot;&gt;transport_init&lt;/span&gt;&lt;span style=&quot;color: #948a8b;&quot;&gt;,&lt;/span&gt;&lt;/div&gt;&lt;div&gt;&lt;span style=&quot;color: #fff1f3;&quot;&gt;&amp;nbsp; &amp;nbsp; &lt;/span&gt;&lt;span style=&quot;color: #fd6883;&quot;&gt;&amp;amp;&lt;/span&gt;&lt;span style=&quot;color: #fff1f3;&quot;&gt;transport_open&lt;/span&gt;&lt;span style=&quot;color: #948a8b;&quot;&gt;,&lt;/span&gt;&lt;/div&gt;&lt;div&gt;&lt;span style=&quot;color: #fff1f3;&quot;&gt;&amp;nbsp; &amp;nbsp; &lt;/span&gt;&lt;span style=&quot;color: #fd6883;&quot;&gt;&amp;amp;&lt;/span&gt;&lt;span style=&quot;color: #fff1f3;&quot;&gt;transport_close&lt;/span&gt;&lt;span style=&quot;color: #948a8b;&quot;&gt;,&lt;/span&gt;&lt;/div&gt;&lt;div&gt;&lt;span style=&quot;color: #fff1f3;&quot;&gt;&amp;nbsp; &amp;nbsp; &lt;/span&gt;&lt;span style=&quot;color: #fd6883;&quot;&gt;&amp;amp;&lt;/span&gt;&lt;span style=&quot;color: #fff1f3;&quot;&gt;transport_register_packet_handler&lt;/span&gt;&lt;span style=&quot;color: #948a8b;&quot;&gt;,&lt;/span&gt;&lt;/div&gt;&lt;div&gt;&lt;span style=&quot;color: #fff1f3;&quot;&gt;&amp;nbsp; &amp;nbsp; &lt;/span&gt;&lt;span style=&quot;color: #fd6883;&quot;&gt;&amp;amp;&lt;/span&gt;&lt;span style=&quot;color: #fff1f3;&quot;&gt;transport_can_send_packet_now&lt;/span&gt;&lt;span style=&quot;color: #948a8b;&quot;&gt;,&lt;/span&gt;&lt;/div&gt;&lt;div&gt;&lt;span style=&quot;color: #fff1f3;&quot;&gt;&amp;nbsp; &amp;nbsp; &lt;/span&gt;&lt;span style=&quot;color: #fd6883;&quot;&gt;&amp;amp;&lt;/span&gt;&lt;span style=&quot;color: #fff1f3;&quot;&gt;transport_send_packet&lt;/span&gt;&lt;span style=&quot;color: #948a8b;&quot;&gt;,&lt;/span&gt;&lt;/div&gt;&lt;div&gt;&lt;span style=&quot;color: #fff1f3;&quot;&gt;&amp;nbsp; &amp;nbsp; &lt;/span&gt;&lt;span style=&quot;color: #a8a9eb;&quot;&gt;NULL&lt;/span&gt;&lt;span style=&quot;color: #948a8b;&quot;&gt;,&lt;/span&gt;&lt;span style=&quot;color: #72696a;font-style: italic;&quot;&gt; // set baud rate&lt;/span&gt;&lt;/div&gt;&lt;div&gt;&lt;span style=&quot;color: #fff1f3;&quot;&gt;&amp;nbsp; &amp;nbsp; &lt;/span&gt;&lt;span style=&quot;color: #a8a9eb;&quot;&gt;NULL&lt;/span&gt;&lt;span style=&quot;color: #948a8b;&quot;&gt;,&lt;/span&gt;&lt;span style=&quot;color: #72696a;font-style: italic;&quot;&gt; // reset link&lt;/span&gt;&lt;/div&gt;&lt;div&gt;&lt;span style=&quot;color: #fff1f3;&quot;&gt;&amp;nbsp; &amp;nbsp; &lt;/span&gt;&lt;span style=&quot;color: #a8a9eb;&quot;&gt;NULL&lt;/span&gt;&lt;span style=&quot;color: #948a8b;&quot;&gt;,&lt;/span&gt;&lt;span style=&quot;color: #72696a;font-style: italic;&quot;&gt; // set SCO config&lt;/span&gt;&lt;/div&gt;&lt;div&gt;&lt;span style=&quot;color: #948a8b;&quot;&gt;};&lt;/span&gt;&lt;/div&gt;&lt;/div&gt;" style="text;whiteSpace=wrap;html=1;" parent="1" vertex="1">
                    <mxGeometry x="-168.4" y="-2380" width="296.8" height="240" as="geometry"/>
                </mxCell>
                <mxCell id="139" value="Возможно, проект hf поможет понять, &lt;br&gt;когда отправляется сцо" style="text;html=1;align=center;verticalAlign=middle;resizable=0;points=[];autosize=1;strokeColor=none;fillColor=none;" parent="1" vertex="1">
                    <mxGeometry x="285" y="-2100" width="230" height="40" as="geometry"/>
                </mxCell>
                <mxCell id="140" style="edgeStyle=orthogonalEdgeStyle;html=1;exitX=0.25;exitY=1;exitDx=0;exitDy=0;entryX=0.096;entryY=0.458;entryDx=0;entryDy=0;entryPerimeter=0;" parent="1" source="130" target="138" edge="1">
                    <mxGeometry relative="1" as="geometry">
                        <mxPoint x="-250.00000000000003" y="-2270" as="targetPoint"/>
                        <Array as="points">
                            <mxPoint x="-70.00000000000003" y="-1900"/>
                            <mxPoint x="-260" y="-1900"/>
                            <mxPoint x="-260" y="-2270"/>
                        </Array>
                    </mxGeometry>
                </mxCell>
                <mxCell id="141" value="&lt;div style=&quot;color: rgb(255, 241, 243); background-color: rgb(44, 37, 37); font-family: &amp;quot;Ubuntu Mono&amp;quot;, Consolas, &amp;quot;Courier New&amp;quot;, monospace; font-weight: normal; font-size: 14px; line-height: 19px;&quot;&gt;&lt;div&gt;&lt;span style=&quot;color: #fd6883;font-style: italic;&quot;&gt;static&lt;/span&gt;&lt;span style=&quot;color: #fff1f3;&quot;&gt; &lt;/span&gt;&lt;span style=&quot;color: #85dacc;font-style: italic;&quot;&gt;void&lt;/span&gt;&lt;span style=&quot;color: #fff1f3;&quot;&gt; &lt;/span&gt;&lt;span style=&quot;color: #adda78;&quot;&gt;transport_register_packet_handler&lt;/span&gt;&lt;span style=&quot;color: #948a8b;&quot;&gt;(&lt;/span&gt;&lt;span style=&quot;color: #85dacc;font-style: italic;&quot;&gt;void&lt;/span&gt;&lt;span style=&quot;color: #fff1f3;&quot;&gt; &lt;/span&gt;&lt;span style=&quot;color: #948a8b;&quot;&gt;(&lt;/span&gt;&lt;span style=&quot;color: #fd6883;&quot;&gt;*&lt;/span&gt;&lt;span style=&quot;color: #fff1f3;&quot;&gt;handler&lt;/span&gt;&lt;span style=&quot;color: #948a8b;&quot;&gt;)(&lt;/span&gt;&lt;span style=&quot;color: #85dacc;font-style: italic;&quot;&gt;uint8_t&lt;/span&gt;&lt;span style=&quot;color: #fff1f3;&quot;&gt; packet_type&lt;/span&gt;&lt;span style=&quot;color: #948a8b;&quot;&gt;,&lt;/span&gt;&lt;span style=&quot;color: #fff1f3;&quot;&gt; &lt;/span&gt;&lt;span style=&quot;color: #85dacc;font-style: italic;&quot;&gt;uint8_t&lt;/span&gt;&lt;span style=&quot;color: #fff1f3;&quot;&gt; &lt;/span&gt;&lt;span style=&quot;color: #fd6883;&quot;&gt;*&lt;/span&gt;&lt;span style=&quot;color: #fff1f3;&quot;&gt;packet&lt;/span&gt;&lt;span style=&quot;color: #948a8b;&quot;&gt;,&lt;/span&gt;&lt;span style=&quot;color: #fff1f3;&quot;&gt; &lt;/span&gt;&lt;span style=&quot;color: #85dacc;font-style: italic;&quot;&gt;uint16_t&lt;/span&gt;&lt;span style=&quot;color: #fff1f3;&quot;&gt; size&lt;/span&gt;&lt;span style=&quot;color: #948a8b;&quot;&gt;)){&lt;/span&gt;&lt;/div&gt;&lt;div&gt;&lt;span style=&quot;color: #fff1f3;&quot;&gt;&amp;nbsp; &amp;nbsp; &lt;/span&gt;&lt;span style=&quot;color: #adda78;&quot;&gt;log_info&lt;/span&gt;&lt;span style=&quot;color: #948a8b;&quot;&gt;(&lt;/span&gt;&lt;span style=&quot;color: #948a8b;&quot;&gt;&quot;&lt;/span&gt;&lt;span style=&quot;color: #f9cc6c;&quot;&gt;transport_register_packet_handler&lt;/span&gt;&lt;span style=&quot;color: #948a8b;&quot;&gt;&quot;&lt;/span&gt;&lt;span style=&quot;color: #948a8b;&quot;&gt;);&lt;/span&gt;&lt;/div&gt;&lt;div&gt;&lt;span style=&quot;color: #fff1f3;&quot;&gt;&amp;nbsp; &amp;nbsp; transport_packet_handler &lt;/span&gt;&lt;span style=&quot;color: #fd6883;&quot;&gt;=&lt;/span&gt;&lt;span style=&quot;color: #fff1f3;&quot;&gt; handler&lt;/span&gt;&lt;span style=&quot;color: #948a8b;&quot;&gt;;&lt;/span&gt;&lt;/div&gt;&lt;div&gt;&lt;span style=&quot;color: #948a8b;&quot;&gt;}&lt;/span&gt;&lt;/div&gt;&lt;/div&gt;" style="text;whiteSpace=wrap;html=1;" parent="1" vertex="1">
                    <mxGeometry x="179.99999999999997" y="-2270" width="560" height="100" as="geometry"/>
                </mxCell>
                <mxCell id="142" style="edgeStyle=orthogonalEdgeStyle;html=1;exitX=1;exitY=0.5;exitDx=0;exitDy=0;entryX=0.018;entryY=0.167;entryDx=0;entryDy=0;entryPerimeter=0;" parent="1" source="138" target="141" edge="1">
                    <mxGeometry relative="1" as="geometry"/>
                </mxCell>
                <mxCell id="143" value="&lt;div style=&quot;color: rgb(255, 241, 243); background-color: rgb(44, 37, 37); font-family: &amp;quot;Ubuntu Mono&amp;quot;, Consolas, &amp;quot;Courier New&amp;quot;, monospace; font-weight: normal; font-size: 14px; line-height: 19px;&quot;&gt;&lt;div&gt;&lt;span style=&quot;color: #fd6883;font-style: italic;&quot;&gt;static&lt;/span&gt;&lt;span style=&quot;color: #fff1f3;&quot;&gt; &lt;/span&gt;&lt;span style=&quot;color: #85dacc;font-style: italic;&quot;&gt;void&lt;/span&gt;&lt;span style=&quot;color: #fff1f3;&quot;&gt; &lt;/span&gt;&lt;span style=&quot;color: #adda78;&quot;&gt;transport_deliver_packets&lt;/span&gt;&lt;span style=&quot;color: #948a8b;&quot;&gt;(&lt;/span&gt;&lt;span style=&quot;color: #85dacc;font-style: italic;&quot;&gt;void&lt;/span&gt;&lt;span style=&quot;color: #fff1f3;&quot;&gt; &lt;/span&gt;&lt;span style=&quot;color: #fd6883;&quot;&gt;*&lt;/span&gt;&lt;span style=&quot;color: #f38d70;font-style: italic;&quot;&gt;context&lt;/span&gt;&lt;span style=&quot;color: #948a8b;&quot;&gt;){&lt;/span&gt;&lt;/div&gt;&lt;div&gt;&lt;span style=&quot;color: #948a8b;&quot;&gt;&lt;br&gt;&lt;/span&gt;&lt;/div&gt;&lt;div&gt;&lt;span style=&quot;color: #fff1f3;&quot;&gt;&amp;nbsp; &amp;nbsp; &amp;nbsp; &amp;nbsp; &lt;/span&gt;&lt;span style=&quot;color: #adda78;&quot;&gt;btstack_ring_buffer_read&lt;/span&gt;&lt;span style=&quot;color: #948a8b;&quot;&gt;(&lt;/span&gt;&lt;span style=&quot;color: #fd6883;&quot;&gt;&amp;amp;&lt;/span&gt;&lt;span style=&quot;color: #fff1f3;&quot;&gt;hci_ringbuffer&lt;/span&gt;&lt;span style=&quot;color: #948a8b;&quot;&gt;,&lt;/span&gt;&lt;span style=&quot;color: #fff1f3;&quot;&gt; hci_receive_buffer&lt;/span&gt;&lt;span style=&quot;color: #948a8b;&quot;&gt;,&lt;/span&gt;&lt;span style=&quot;color: #fff1f3;&quot;&gt; len&lt;/span&gt;&lt;span style=&quot;color: #948a8b;&quot;&gt;,&lt;/span&gt;&lt;span style=&quot;color: #fff1f3;&quot;&gt; &lt;/span&gt;&lt;span style=&quot;color: #fd6883;&quot;&gt;&amp;amp;&lt;/span&gt;&lt;span style=&quot;color: #fff1f3;&quot;&gt;number_read&lt;/span&gt;&lt;span style=&quot;color: #948a8b;&quot;&gt;);&lt;/span&gt;&lt;/div&gt;&lt;div&gt;&lt;span style=&quot;color: #fff1f3;&quot;&gt;&amp;nbsp; &amp;nbsp; &amp;nbsp; &amp;nbsp;&amp;nbsp;&lt;/span&gt;&lt;/div&gt;&lt;div&gt;&lt;span style=&quot;color: #fff1f3;&quot;&gt;&amp;nbsp; &amp;nbsp; &amp;nbsp; &amp;nbsp; &lt;/span&gt;&lt;span style=&quot;color: #adda78;&quot;&gt;transport_packet_handler&lt;/span&gt;&lt;span style=&quot;color: #948a8b;&quot;&gt;(&lt;/span&gt;&lt;span style=&quot;color: #fff1f3;&quot;&gt;hci_receive_buffer&lt;/span&gt;&lt;span style=&quot;color: #948a8b;&quot;&gt;[&lt;/span&gt;&lt;span style=&quot;color: #a8a9eb;&quot;&gt;0&lt;/span&gt;&lt;span style=&quot;color: #948a8b;&quot;&gt;],&lt;/span&gt;&lt;span style=&quot;color: #fff1f3;&quot;&gt; &lt;/span&gt;&lt;span style=&quot;color: #fd6883;&quot;&gt;&amp;amp;&lt;/span&gt;&lt;span style=&quot;color: #fff1f3;&quot;&gt;hci_receive_buffer&lt;/span&gt;&lt;span style=&quot;color: #948a8b;&quot;&gt;[&lt;/span&gt;&lt;span style=&quot;color: #a8a9eb;&quot;&gt;1&lt;/span&gt;&lt;span style=&quot;color: #948a8b;&quot;&gt;],&lt;/span&gt;&lt;span style=&quot;color: #fff1f3;&quot;&gt; len&lt;/span&gt;&lt;span style=&quot;color: #fd6883;&quot;&gt;-&lt;/span&gt;&lt;span style=&quot;color: #a8a9eb;&quot;&gt;1&lt;/span&gt;&lt;span style=&quot;color: #948a8b;&quot;&gt;);&lt;/span&gt;&lt;/div&gt;&lt;div&gt;&lt;span style=&quot;color: #fff1f3;&quot;&gt;&amp;nbsp; &amp;nbsp; &amp;nbsp; &amp;nbsp;&amp;nbsp;&lt;/span&gt;&lt;/div&gt;&lt;div&gt;&lt;span style=&quot;color: #948a8b;&quot;&gt;}&lt;/span&gt;&lt;/div&gt;&lt;/div&gt;" style="text;whiteSpace=wrap;html=1;" parent="1" vertex="1">
                    <mxGeometry x="179.99999999999997" y="-2440" width="630" height="130" as="geometry"/>
                </mxCell>
                <mxCell id="144" style="edgeStyle=orthogonalEdgeStyle;html=1;exitX=0.054;exitY=0.75;exitDx=0;exitDy=0;exitPerimeter=0;entryX=0.095;entryY=0.688;entryDx=0;entryDy=0;entryPerimeter=0;" parent="1" source="141" target="143" edge="1">
                    <mxGeometry relative="1" as="geometry">
                        <mxPoint x="229.99999999999997" y="-2310" as="targetPoint"/>
                        <Array as="points">
                            <mxPoint x="159.99999999999997" y="-2195"/>
                            <mxPoint x="159.99999999999997" y="-2330"/>
                        </Array>
                    </mxGeometry>
                </mxCell>
                <mxCell id="146" style="edgeStyle=orthogonalEdgeStyle;html=1;exitX=0.698;exitY=0.5;exitDx=0;exitDy=0;entryX=0.476;entryY=0.688;entryDx=0;entryDy=0;entryPerimeter=0;exitPerimeter=0;strokeWidth=2;" parent="1" source="143" target="143" edge="1">
                    <mxGeometry relative="1" as="geometry"/>
                </mxCell>
                <mxCell id="154" style="edgeStyle=orthogonalEdgeStyle;html=1;exitX=0.25;exitY=0;exitDx=0;exitDy=0;strokeWidth=2;entryX=0.435;entryY=0.75;entryDx=0;entryDy=0;entryPerimeter=0;" parent="1" source="147" target="153" edge="1">
                    <mxGeometry relative="1" as="geometry">
                        <mxPoint x="880.0000000000001" y="-2640" as="targetPoint"/>
                        <Array as="points">
                            <mxPoint x="303" y="-2720"/>
                            <mxPoint x="640" y="-2720"/>
                            <mxPoint x="640" y="-2600"/>
                            <mxPoint x="880.0000000000001" y="-2600"/>
                        </Array>
                    </mxGeometry>
                </mxCell>
                <mxCell id="147" value="&lt;div style=&quot;color: rgb(255, 241, 243); background-color: rgb(44, 37, 37); font-family: &amp;quot;Ubuntu Mono&amp;quot;, Consolas, &amp;quot;Courier New&amp;quot;, monospace; font-weight: normal; font-size: 14px; line-height: 19px;&quot;&gt;&lt;div&gt;&lt;span style=&quot;color: #fd6883;font-style: italic;&quot;&gt;static&lt;/span&gt;&lt;span style=&quot;color: #fff1f3;&quot;&gt; &lt;/span&gt;&lt;span style=&quot;color: #85dacc;font-style: italic;&quot;&gt;int&lt;/span&gt;&lt;span style=&quot;color: #fff1f3;&quot;&gt; &lt;/span&gt;&lt;span style=&quot;color: #adda78;&quot;&gt;host_recv_pkt_cb&lt;/span&gt;&lt;span style=&quot;color: #948a8b;&quot;&gt;(&lt;/span&gt;&lt;span style=&quot;color: #85dacc;font-style: italic;&quot;&gt;uint8_t&lt;/span&gt;&lt;span style=&quot;color: #fff1f3;&quot;&gt; &lt;/span&gt;&lt;span style=&quot;color: #fd6883;&quot;&gt;*&lt;/span&gt;&lt;span style=&quot;color: #f38d70;font-style: italic;&quot;&gt;data&lt;/span&gt;&lt;span style=&quot;color: #948a8b;&quot;&gt;,&lt;/span&gt;&lt;span style=&quot;color: #fff1f3;&quot;&gt; &lt;/span&gt;&lt;span style=&quot;color: #85dacc;font-style: italic;&quot;&gt;uint16_t&lt;/span&gt;&lt;span style=&quot;color: #fff1f3;&quot;&gt; &lt;/span&gt;&lt;span style=&quot;color: #f38d70;font-style: italic;&quot;&gt;len&lt;/span&gt;&lt;span style=&quot;color: #948a8b;&quot;&gt;){&lt;/span&gt;&lt;/div&gt;&lt;div&gt;&lt;span style=&quot;color: #948a8b;&quot;&gt;&amp;nbsp; &amp;nbsp; &lt;/span&gt;&lt;span style=&quot;color: #72696a;font-style: italic;&quot;&gt;// store in ringbuffer&lt;/span&gt;&lt;/div&gt;&lt;div&gt;&lt;span style=&quot;color: #fff1f3;&quot;&gt;&amp;nbsp; &amp;nbsp; &lt;/span&gt;&lt;span style=&quot;color: #adda78;&quot;&gt;btstack_ring_buffer_write&lt;/span&gt;&lt;span style=&quot;color: #948a8b;&quot;&gt;(&lt;/span&gt;&lt;span style=&quot;color: #fd6883;&quot;&gt;&amp;amp;&lt;/span&gt;&lt;span style=&quot;color: #fff1f3;&quot;&gt;hci_ringbuffer&lt;/span&gt;&lt;span style=&quot;color: #948a8b;&quot;&gt;,&lt;/span&gt;&lt;span style=&quot;color: #fff1f3;&quot;&gt; data&lt;/span&gt;&lt;span style=&quot;color: #948a8b;&quot;&gt;,&lt;/span&gt;&lt;span style=&quot;color: #fff1f3;&quot;&gt; len&lt;/span&gt;&lt;span style=&quot;color: #948a8b;&quot;&gt;);&lt;/span&gt;&lt;/div&gt;&lt;div&gt;&lt;span style=&quot;color: #948a8b;&quot;&gt;}&lt;/span&gt;&lt;/div&gt;&lt;/div&gt;" style="text;whiteSpace=wrap;html=1;" parent="1" vertex="1">
                    <mxGeometry x="199.99999999999997" y="-2710" width="410" height="80" as="geometry"/>
                </mxCell>
                <mxCell id="149" style="edgeStyle=orthogonalEdgeStyle;html=1;entryX=0.476;entryY=0.385;entryDx=0;entryDy=0;entryPerimeter=0;strokeWidth=2;" parent="1" source="148" target="143" edge="1">
                    <mxGeometry relative="1" as="geometry">
                        <Array as="points">
                            <mxPoint x="400" y="-2460"/>
                            <mxPoint x="480" y="-2460"/>
                        </Array>
                    </mxGeometry>
                </mxCell>
                <mxCell id="150" value="READ" style="edgeLabel;html=1;align=center;verticalAlign=middle;resizable=0;points=[];" parent="149" vertex="1" connectable="0">
                    <mxGeometry x="-0.0444" y="2" relative="1" as="geometry">
                        <mxPoint x="-21" as="offset"/>
                    </mxGeometry>
                </mxCell>
                <mxCell id="148" value="HCI_RB" style="ellipse;whiteSpace=wrap;html=1;aspect=fixed;" parent="1" vertex="1">
                    <mxGeometry x="360" y="-2560" width="80" height="80" as="geometry"/>
                </mxCell>
                <mxCell id="151" style="edgeStyle=orthogonalEdgeStyle;html=1;exitX=0.683;exitY=0.75;exitDx=0;exitDy=0;strokeWidth=2;exitPerimeter=0;" parent="1" source="147" target="148" edge="1">
                    <mxGeometry relative="1" as="geometry">
                        <Array as="points">
                            <mxPoint x="480" y="-2595"/>
                            <mxPoint x="400" y="-2595"/>
                        </Array>
                    </mxGeometry>
                </mxCell>
                <mxCell id="152" value="WRITE" style="edgeLabel;html=1;align=center;verticalAlign=middle;resizable=0;points=[];" parent="151" vertex="1" connectable="0">
                    <mxGeometry x="0.3613" relative="1" as="geometry">
                        <mxPoint x="20" as="offset"/>
                    </mxGeometry>
                </mxCell>
                <mxCell id="155" value="&lt;div style=&quot;color: rgb(255, 241, 243); background-color: rgb(44, 37, 37); font-family: &amp;quot;Ubuntu Mono&amp;quot;, Consolas, &amp;quot;Courier New&amp;quot;, monospace; font-weight: normal; font-size: 14px; line-height: 19px;&quot;&gt;&lt;div&gt;&lt;span style=&quot;color: #adda78;&quot;&gt;esp_vhci_host_register_callback&lt;/span&gt;&lt;span style=&quot;color: #948a8b;&quot;&gt;(&lt;/span&gt;&lt;span style=&quot;color: #fd6883;&quot;&gt;&amp;amp;&lt;/span&gt;&lt;span style=&quot;color: #fff1f3;&quot;&gt;vhci_host_cb&lt;/span&gt;&lt;span style=&quot;color: #948a8b;&quot;&gt;);&lt;/span&gt;&lt;/div&gt;&lt;/div&gt;" style="text;whiteSpace=wrap;html=1;" parent="1" vertex="1">
                    <mxGeometry x="720" y="-2770" width="330" height="30" as="geometry"/>
                </mxCell>
                <mxCell id="156" style="edgeStyle=orthogonalEdgeStyle;html=1;exitX=0.75;exitY=0.125;exitDx=0;exitDy=0;entryX=0.848;entryY=0.667;entryDx=0;entryDy=0;entryPerimeter=0;strokeWidth=1;exitPerimeter=0;" parent="1" source="153" target="155" edge="1">
                    <mxGeometry relative="1" as="geometry">
                        <Array as="points">
                            <mxPoint x="1025" y="-2725"/>
                            <mxPoint x="1000.0000000000001" y="-2725"/>
                        </Array>
                    </mxGeometry>
                </mxCell>
                <mxCell id="157" value="&lt;div style=&quot;color: rgb(255, 241, 243); background-color: rgb(44, 37, 37); font-family: &amp;quot;Ubuntu Mono&amp;quot;, Consolas, &amp;quot;Courier New&amp;quot;, monospace; font-weight: normal; font-size: 14px; line-height: 19px;&quot;&gt;&lt;div&gt;&lt;span style=&quot;color: #fff1f3;&quot;&gt;&amp;nbsp;extern&amp;nbsp;&lt;/span&gt;&lt;span style=&quot;color: #adda78;&quot;&gt;API_vhci_host_register_callback&lt;/span&gt;&lt;span style=&quot;color: #948a8b;&quot;&gt;((&lt;/span&gt;&lt;span style=&quot;color: #fd6883;font-style: italic;&quot;&gt;const&lt;/span&gt;&lt;span style=&quot;color: #fff1f3;&quot;&gt; &lt;/span&gt;&lt;span style=&quot;color: #85dacc;font-style: italic;&quot;&gt;vhci_host_callback_t&lt;/span&gt;&lt;span style=&quot;color: #fff1f3;&quot;&gt; &lt;/span&gt;&lt;span style=&quot;color: #fd6883;&quot;&gt;*&lt;/span&gt;&lt;span style=&quot;color: #948a8b;&quot;&gt;)&lt;/span&gt;&lt;span style=&quot;color: #fff1f3;&quot;&gt;callback&lt;/span&gt;&lt;span style=&quot;color: #948a8b;&quot;&gt;)&lt;/span&gt;&lt;/div&gt;&lt;/div&gt;" style="text;whiteSpace=wrap;html=1;" parent="1" vertex="1">
                    <mxGeometry x="680" y="-2830" width="560" height="30" as="geometry"/>
                </mxCell>
                <mxCell id="158" style="edgeStyle=orthogonalEdgeStyle;html=1;exitX=0.25;exitY=0;exitDx=0;exitDy=0;entryX=0.821;entryY=0.5;entryDx=0;entryDy=0;entryPerimeter=0;strokeWidth=1;" parent="1" source="155" target="157" edge="1">
                    <mxGeometry relative="1" as="geometry">
                        <Array as="points">
                            <mxPoint x="803" y="-2780"/>
                            <mxPoint x="1140" y="-2780"/>
                            <mxPoint x="1140" y="-2815"/>
                        </Array>
                    </mxGeometry>
                </mxCell>
                <mxCell id="121" style="edgeStyle=orthogonalEdgeStyle;html=1;exitX=0.5;exitY=1;exitDx=0;exitDy=0;entryX=0.608;entryY=0.5;entryDx=0;entryDy=0;entryPerimeter=0;" parent="1" source="94" target="116" edge="1">
                    <mxGeometry relative="1" as="geometry">
                        <mxPoint x="159.99999999999997" y="-1480" as="targetPoint"/>
                        <Array as="points">
                            <mxPoint x="-487" y="-1200"/>
                            <mxPoint x="-400" y="-1200"/>
                        </Array>
                    </mxGeometry>
                </mxCell>
                <mxCell id="159" value="&lt;div style=&quot;color: rgb(255, 241, 243); background-color: rgb(44, 37, 37); font-family: &amp;quot;Ubuntu Mono&amp;quot;, Consolas, &amp;quot;Courier New&amp;quot;, monospace; font-weight: normal; font-size: 14px; line-height: 19px;&quot;&gt;&lt;div&gt;&lt;span style=&quot;color: #fff1f3;&quot;&gt;В усл. гарнитуре передача данных микрофона происходит после получения команды:&lt;br&gt;&lt;br&gt;&lt;/span&gt;&lt;span style=&quot;color: #fd6883;&quot;&gt;case&lt;/span&gt;&lt;span style=&quot;color: #fff1f3;&quot;&gt; HCI_EVENT_SCO_CAN_SEND_NOW&lt;/span&gt;&lt;span style=&quot;color: #948a8b;&quot;&gt;:&lt;/span&gt;&lt;/div&gt;&lt;div&gt;&lt;span style=&quot;color: #fff1f3;&quot;&gt;&amp;nbsp; &amp;nbsp; &amp;nbsp; &amp;nbsp; &amp;nbsp; &amp;nbsp; &amp;nbsp; &amp;nbsp; &amp;nbsp; &amp;nbsp; &lt;/span&gt;&lt;span style=&quot;color: #adda78;&quot;&gt;sco_demo_send&lt;/span&gt;&lt;span style=&quot;color: #948a8b;&quot;&gt;(&lt;/span&gt;&lt;span style=&quot;color: #fff1f3;&quot;&gt;sco_handle&lt;/span&gt;&lt;span style=&quot;color: #948a8b;&quot;&gt;);&lt;/span&gt;&lt;/div&gt;&lt;div&gt;&lt;span style=&quot;color: #fff1f3;&quot;&gt;&amp;nbsp; &amp;nbsp; &amp;nbsp; &amp;nbsp; &amp;nbsp; &amp;nbsp; &amp;nbsp; &amp;nbsp; &amp;nbsp; &amp;nbsp; &lt;/span&gt;&lt;span style=&quot;color: #fd6883;&quot;&gt;break&lt;/span&gt;&lt;span style=&quot;color: #948a8b;&quot;&gt;;&lt;/span&gt;&lt;/div&gt;&lt;/div&gt;" style="text;whiteSpace=wrap;html=1;" parent="1" vertex="1">
                    <mxGeometry x="490" y="-2040" width="330" height="80" as="geometry"/>
                </mxCell>
                <mxCell id="162" value="Следовательно, проследив момент отправки&amp;nbsp;&lt;br&gt;&lt;span style=&quot;color: rgb(255, 241, 243); font-family: &amp;quot;Ubuntu Mono&amp;quot;, Consolas, &amp;quot;Courier New&amp;quot;, monospace; font-size: 14px; text-align: left; background-color: rgb(44, 37, 37);&quot;&gt;HCI_EVENT_SCO_CAN_SEND_NOW&lt;br&gt;из ESP, можем понять связь с establish connection.&lt;br&gt;&lt;/span&gt;" style="text;html=1;align=center;verticalAlign=middle;resizable=0;points=[];autosize=1;strokeColor=none;fillColor=none;" parent="1" vertex="1">
                    <mxGeometry x="470" y="-1900" width="370" height="60" as="geometry"/>
                </mxCell>
            </root>
        </mxGraphModel>
    </diagram>
</mxfile>